<svg id="Capa_1" enable-background="new 0 0 511.985 511.985" height="512" viewBox="0 0 511.985 511.985" width="512" xmlns="http://www.w3.org/2000/svg"><g><g><path d="m437.721 238.625c-6.27-19.269-24.402-33.235-45.735-33.235-21.275 0-39.368 13.892-45.684 33.08h-1.429c-23.195 0-42.065 18.87-42.065 42.064 0 23.195 18.87 42.065 42.065 42.065h89.214c23.195 0 42.065-18.87 42.065-42.065.001-21.969-16.931-40.06-38.431-41.909z" fill="#ffb74b"/><path d="m437.721 238.625c-6.27-19.269-24.402-33.235-45.735-33.235-.841 0-1.675.03-2.506.072v117.137h44.607c23.195 0 42.065-18.87 42.065-42.065.001-21.969-16.931-40.06-38.431-41.909z" fill="#f85"/><path d="m506.626 386.316-26.978-22.637c10.166-16.286 16.051-35.507 16.051-56.079 0-8.284-6.716-15-15-15h-182.437c-8.284 0-15 6.716-15 15 0 20.572 5.885 39.793 16.051 56.079l-26.978 22.637c-6.346 5.325-7.174 14.787-1.849 21.132 2.967 3.536 7.218 5.359 11.499 5.359 3.402 0 6.824-1.152 9.634-3.51l26.993-22.65c4.02 3.608 8.315 6.912 12.85 9.881l-14.885 31.92c-3.501 7.508-.252 16.433 7.255 19.934 2.051.956 4.207 1.409 6.33 1.409 5.649 0 11.06-3.207 13.604-8.664l14.867-31.882c5.13 1.56 10.424 2.739 15.847 3.509v65.254c0 8.284 6.716 15 15 15s15-6.716 15-15v-65.254c5.424-.77 10.717-1.949 15.847-3.509l14.867 31.882c2.545 5.458 7.955 8.664 13.604 8.664 2.122 0 4.279-.453 6.33-1.409 7.508-3.501 10.756-12.426 7.255-19.934l-14.885-31.92c4.535-2.969 8.831-6.274 12.85-9.881l26.993 22.65c2.811 2.358 6.231 3.51 9.634 3.51 4.28 0 8.532-1.823 11.499-5.359 5.327-6.346 4.498-15.807-1.848-21.132z" fill="#59595a"/><path d="m506.626 386.316-26.978-22.637c10.166-16.286 16.051-35.507 16.051-56.079 0-8.284-6.716-15-15-15h-91.219v200.409c8.284 0 15-6.716 15-15v-65.254c5.424-.77 10.717-1.949 15.847-3.509l14.867 31.882c2.545 5.458 7.955 8.664 13.604 8.664 2.122 0 4.279-.453 6.33-1.409 7.508-3.501 10.756-12.426 7.255-19.934l-14.885-31.92c4.535-2.969 8.831-6.274 12.85-9.881l26.993 22.65c2.811 2.358 6.231 3.51 9.634 3.51 4.28 0 8.532-1.823 11.499-5.359 5.327-6.347 4.498-15.808-1.848-21.133z" fill="#444"/></g><g><path d="m199.738 453.955c-21.377 0-38.769-17.391-38.769-38.768v-90.697c0-8.284 6.716-15 15-15s15 6.716 15 15v90.697c0 4.835 3.934 8.768 8.769 8.768s8.768-3.933 8.768-8.768v-23.953c0-8.284 6.716-15 15-15s15 6.716 15 15v23.953c0 21.377-17.391 38.768-38.768 38.768z" fill="#fd9d8c"/><path d="m128.432 493.009c-8.284 0-15-6.716-15-15v-133.64c0-8.284 6.716-15 15-15s15 6.716 15 15v133.64c0 8.284-6.715 15-15 15z" fill="#fec3b9"/><path d="m128.432 329.369v163.64c8.284 0 15-6.716 15-15v-133.64c0-8.284-6.715-15-15-15z" fill="#fd9d8c"/><path d="m57.128 453.955c-21.377 0-38.769-17.391-38.769-38.768v-23.953c0-8.284 6.716-15 15-15s15 6.716 15 15v23.953c0 4.835 3.933 8.768 8.768 8.768s8.769-3.933 8.769-8.768v-91.618c0-8.284 6.716-15 15-15s15 6.716 15 15v91.618c0 21.377-17.391 38.768-38.768 38.768z" fill="#fec3b9"/><path d="m250.678 168.225-94.292-134.695c-6.379-9.112-16.829-14.553-27.952-14.553-.001 0 0 0 0 0-11.124 0-21.574 5.441-27.954 14.554l-94.293 134.694c-7.324 10.462-8.21 23.999-2.312 35.326s17.495 18.365 30.266 18.365h188.585c12.771 0 24.368-7.037 30.266-18.365s5.01-24.864-2.314-35.326z" fill="#fec3b9"/><path d="m250.678 168.225-94.292-134.695c-6.379-9.112-16.829-14.553-27.952-14.553-.001 0 0 0 0 0v202.939h94.292c12.771 0 24.368-7.037 30.266-18.365s5.01-24.864-2.314-35.326z" fill="#fd9d8c"/><path d="m180.927 167.516c-7.661-13.826-28.11-45.984-52.494-45.984s-44.833 32.158-52.494 45.984c-15.794 28.507-24.853 62.909-24.853 94.386 0 34.484 7.272 59.138 22.23 75.37 12.95 14.051 31.493 21.176 55.116 21.176s42.167-7.125 55.116-21.176c14.958-16.232 22.23-40.886 22.23-75.37.001-31.477-9.057-65.879-24.851-94.386z" fill="#fa7578"/><path d="m180.927 167.516c-7.661-13.826-28.11-45.984-52.494-45.984v236.916c23.623 0 42.167-7.125 55.116-21.176 14.958-16.232 22.23-40.886 22.23-75.37 0-31.477-9.058-65.879-24.852-94.386z" fill="#f9545b"/></g></g></svg>