<svg id="Capa_1" enable-background="new 0 0 510.971 510.971" height="512" viewBox="0 0 510.971 510.971" width="512" xmlns="http://www.w3.org/2000/svg"><g><g><path d="m437.656 391.666v-97.121c0-4.142-3.358-7.5-7.5-7.5h-50c-4.142 0-7.5 3.358-7.5 7.5v97.121c-9.445 6.495-15.333 17.915-15.333 30.351 0 19.771 14.729 35.856 32.833 35.856 5.295 0 10.393-1.35 15-3.943 4.607 2.593 9.705 3.943 15 3.943 18.104 0 32.833-16.085 32.833-35.856.001-12.436-5.888-23.856-15.333-30.351z" fill="#fff5f5"/><path d="m437.656 391.666v-97.121c0-4.142-3.358-7.5-7.5-7.5h-25v166.885c4.607 2.593 9.705 3.943 15 3.943 18.104 0 32.833-16.085 32.833-35.856.001-12.436-5.888-23.856-15.333-30.351z" fill="#eee1dd"/><path d="m480.328 77.362c-19.154-20.483-45.851-31.763-75.172-31.763s-56.017 11.28-75.171 31.763c-20.047 21.438-30.643 51.208-30.643 86.093 0 34.793 10.588 70.92 29.05 99.117 20.623 31.498 47.885 48.844 76.765 48.844s56.143-17.347 76.765-48.844c18.461-28.196 29.05-64.323 29.05-99.117-.001-34.885-10.597-64.656-30.644-86.093z" fill="#ffb74b"/><path d="m480.328 77.362c-19.154-20.483-45.85-31.763-75.172-31.763v265.817c28.88 0 56.142-17.347 76.765-48.844 18.461-28.196 29.05-64.323 29.05-99.117 0-34.885-10.596-64.656-30.643-86.093z" fill="#f85"/></g><g><path d="m308.184 324.619c-3.101-41.515-36.255-69.09-46.712-107.776-4.828-17.863-3.465-36.198-5.056-54.44-1.589-18.219-5.679-36.752-15.24-52.545-15.866-26.207-46.468-42.389-77.24-40.135-26.237 1.922-52.262 12.064-73.35 27.59-31.667 23.315-53.185 58.104-67.461 94.213-14.213 35.949-23.129 75.193-23.125 113.931.003 36.948 9.124 74.672 33.033 103.635 24.623 29.828 62.452 47.042 99.988 53.526 37.843 6.537 78.589 1.828 111.783-18.352 32.332-19.656 55.622-53.275 61.972-90.656 1.625-9.559 2.131-19.319 1.408-28.991-1.991-26.666 2.438 32.637 0 0z" fill="#fec3b9"/><path d="m164.835 435.372c-30.938-.002-63.521-8.905-88.837-27.045-23.309-16.701-37.329-41.568-42.857-69.445-5.733-28.912-3.228-59.225 3.015-87.829 7.15-32.758 19.272-65.685 38.239-93.521 16.28-23.894 38.496-43.553 66.268-52.754 28.266-9.365 60.594-5.613 76.145 22.886 14.849 27.214 8.007 60.008 13.907 89.338 6.65 33.063 28.507 57.844 41.685 87.979 13.33 30.483 3.216 66.441-17.344 91.26-22.207 26.803-55.996 39.131-90.221 39.131z" fill="#fa7578"/><path d="m308.184 324.617c-3.102-41.514-36.255-69.089-46.712-107.775-4.828-17.863-3.465-36.198-5.056-54.44-1.589-18.219-5.679-36.752-15.24-52.545-15.866-26.207-46.468-42.389-77.24-40.135-3.261.239-6.518.606-9.763 1.093v394.241c31.452 1.834 63.554-4.329 90.631-20.791 32.332-19.656 55.622-53.275 61.972-90.656 1.624-9.558 2.13-19.318 1.407-28.988.001 0 .001-.002.001-.004z" fill="#fd9d8c"/><path d="m272.398 304.981c-13.178-30.135-35.034-54.916-41.685-87.979-5.9-29.33.943-62.124-13.907-89.338-13.113-24.032-38.155-30.466-62.633-26.278v333.621c3.566.233 7.125.365 10.661.365 34.225 0 68.014-12.328 90.219-39.132 20.561-24.818 30.675-60.776 17.345-91.259z" fill="#f9545b"/></g></g></svg>