<svg id="Capa_1" enable-background="new 0 0 512 512" height="512" viewBox="0 0 512 512" width="512" xmlns="http://www.w3.org/2000/svg"><g><g><path d="m468.026 151.788c-7.086-10.97-43.961-65.693-74.165-65.693s-67.08 54.723-74.165 65.693c-27.946 43.268-43.974 91.064-43.974 131.134 0 43.987 11.731 80.627 33.927 105.959 20.92 23.876 50.826 37.025 84.212 37.025s63.292-13.149 84.212-37.025c22.196-25.332 33.927-61.972 33.927-105.959 0-40.07-16.028-87.867-43.974-131.134z" fill="#fab991"/><path d="m468.026 151.788c-7.086-10.97-43.961-65.693-74.165-65.693v339.812c33.386 0 63.292-13.149 84.212-37.025 22.196-25.333 33.927-61.973 33.927-105.96 0-40.07-16.028-87.867-43.974-131.134z" fill="#f0915a"/><path d="m393.861 425.906c-11.979 0-28.427-7.408-38.754-42.697-7.096-24.247-10.693-57.988-10.693-100.287 0-40.497 4.423-87.541 11.83-125.844 3.55-18.356 7.644-33.893 11.838-44.932 2.963-7.796 9.9-26.052 25.779-26.052s22.816 18.256 25.778 26.052c4.195 11.039 8.288 26.576 11.839 44.932 7.407 38.304 11.83 85.348 11.83 125.844 0 42.299-3.598 76.04-10.693 100.287-10.327 35.289-26.774 42.697-38.754 42.697zm0-296.573c-2.979 9.342-6.526 23.355-10.003 43.517-6.002 34.803-9.444 74.923-9.444 110.073 0 81.473 14.318 108.304 19.447 112.608 5.129-4.304 19.447-31.135 19.447-112.608 0-35.149-3.442-75.27-9.444-110.073-3.477-20.162-7.025-34.175-10.003-43.517z" fill="#ca6d58"/><path d="m431.479 157.078c-3.551-18.356-7.644-33.893-11.839-44.932-2.962-7.796-9.899-26.052-25.778-26.052v43.238c2.978 9.342 6.525 23.355 10.003 43.517 6.002 34.803 9.444 74.923 9.444 110.073 0 81.473-14.318 108.304-19.447 112.608v30.376c11.979 0 28.427-7.408 38.754-42.697 7.096-24.247 10.693-57.988 10.693-100.287 0-40.496-4.423-87.541-11.83-125.844z" fill="#a54f3e"/></g><g><path d="m187.62 142.096c-10.282-14.289-22.179-27.981-33.498-38.553-18.681-17.449-25.769-17.449-29.176-17.449s-10.495 0-29.176 17.449c-11.319 10.572-23.215 24.264-33.498 38.553-20.781 28.879-45.554 74.358-45.554 127.018 0 8.284 6.716 15 15 15h186.454c8.284 0 15-6.716 15-15 .001-52.659-24.771-98.138-45.552-127.018z" fill="#fab991"/><path d="m187.62 142.096c-10.282-14.289-22.179-27.981-33.498-38.553-18.681-17.449-25.769-17.449-29.176-17.449v198.02h93.227c8.284 0 15-6.716 15-15 0-52.659-24.772-98.138-45.553-127.018z" fill="#f0915a"/><path d="m153.991 284.114h-58.089c-8.284 0-15-6.716-15-15 0-50.035 7.437-93.71 13.675-121.538 3.138-13.997 6.775-27.428 10.24-37.817 4.059-12.17 7.893-23.665 20.129-23.665s16.07 11.495 20.129 23.665c3.465 10.39 7.102 23.82 10.24 37.817 6.239 27.828 13.675 71.502 13.675 121.538.001 8.284-6.715 15-14.999 15zm-42.85-30h27.611c-1.295-41.026-7.643-78.115-13.806-104.521-6.162 26.406-12.51 63.495-13.805 104.521z" fill="#ca6d58"/><path d="m155.315 147.576c-3.138-13.997-6.775-27.428-10.24-37.817-4.059-12.17-7.893-23.665-20.129-23.665v63.498c6.163 26.407 12.511 63.496 13.806 104.521h-13.806v30h29.044c8.284 0 15-6.716 15-15 .001-50.034-7.436-93.709-13.675-121.537z" fill="#a54f3e"/><path d="m234.704 254.114h-219.704c-8.284 0-15 6.716-15 15 0 46.937 11.96 86.425 34.588 114.195 22.382 27.469 54.438 42.597 90.264 42.597 35.825 0 67.882-15.128 90.264-42.597 22.627-27.771 34.588-67.258 34.588-114.195 0-8.284-6.716-15-15-15z" fill="#f0915a"/><path d="m234.704 254.114h-109.758v171.791c35.787-.027 67.807-15.151 90.169-42.596 22.627-27.771 34.588-67.258 34.588-114.195.001-8.284-6.715-15-14.999-15z" fill="#c8733c"/></g></g></svg>