<svg id="Capa_1" enable-background="new 0 0 512 512" height="512" viewBox="0 0 512 512" width="512" xmlns="http://www.w3.org/2000/svg"><g><g><path d="m385.667 248.04c-8.284 0-15-6.716-15-15v-54.334c0-8.284 6.716-15 15-15s15 6.716 15 15v54.334c0 8.284-6.716 15-15 15z" fill="#fab991"/><path d="m385.667 163.705v84.334c8.284 0 15-6.716 15-15v-54.334c0-8.284-6.716-15-15-15z" fill="#f0915a"/><path d="m486.166 242.585c-17.476-22.082-41.027-34.242-66.314-34.242-11.711 0-23.373 2.732-34.185 7.961-10.813-5.229-22.476-7.961-34.186-7.961-25.287 0-48.838 12.161-66.314 34.242-16.659 21.05-25.834 48.835-25.834 78.237s9.175 57.188 25.834 78.238c17.477 22.082 41.027 34.242 66.314 34.242 11.709 0 23.373-2.733 34.186-7.962 10.812 5.229 22.475 7.962 34.185 7.962 25.288 0 48.839-12.161 66.314-34.242 16.659-21.05 25.834-48.835 25.834-78.238 0-29.402-9.175-57.187-25.834-78.237z" fill="#fa7578"/><path d="m486.166 242.585c-17.476-22.082-41.027-34.242-66.314-34.242-11.711 0-23.373 2.732-34.185 7.961v209.037c10.812 5.229 22.475 7.962 34.185 7.962 25.288 0 48.839-12.161 66.314-34.242 16.659-21.051 25.834-48.836 25.834-78.239 0-29.402-9.175-57.187-25.834-78.237z" fill="#f9545b"/><path d="m453.272 378.822c-3.486 0-6.988-1.208-9.828-3.674-6.255-5.432-6.923-14.906-1.49-21.161 3.89-4.479 8.046-13.705 8.046-26.165 0-9.128-2.18-15.748-4.008-19.693-3.483-7.516-.214-16.433 7.303-19.917 7.516-3.484 16.434-.213 19.916 7.303 4.441 9.583 6.789 20.755 6.789 32.307 0 17.862-5.611 34.569-15.396 45.835-2.965 3.416-7.137 5.165-11.332 5.165z" fill="#fd9d8c"/></g><g><path d="m115.336 166.979c-8.284 0-15-6.716-15-15v-64.743c0-8.284 6.716-15 15-15s15 6.716 15 15v64.742c0 8.285-6.716 15.001-15 15.001z" fill="#fab991"/><path d="m115.588 72.249v94.717c8.167-.136 14.748-6.788 14.748-14.987v-64.743c0-8.199-6.582-14.851-14.748-14.987z" fill="#f0915a"/><path d="m215.177 266.656c-7.625-13.151-17.813-24.691-29.856-33.901 2.287-7.189 3.47-14.734 3.47-22.322 0-40.503-32.951-73.454-73.454-73.454-40.502 0-73.453 32.951-73.453 73.454 0 7.588 1.183 15.133 3.47 22.322-12.043 9.209-22.231 20.75-29.856 33.901-10.14 17.483-15.498 37.46-15.498 57.771 0 63.597 51.739 115.336 115.336 115.336s115.337-51.74 115.337-115.336c0-20.311-5.359-40.288-15.496-57.771z" fill="#a5e887"/><path d="m230.673 324.427c0-20.311-5.358-40.288-15.496-57.771-7.625-13.151-17.813-24.691-29.856-33.901 2.287-7.189 3.47-14.734 3.47-22.322 0-40.418-32.815-73.311-73.202-73.448v302.775c63.48-.136 115.084-51.82 115.084-115.333z" fill="#00cc76"/><path d="m170.011 378.822c-3.896 0-7.786-1.507-10.725-4.512-5.793-5.923-5.687-15.419.235-21.212 5.901-5.771 9.151-13.467 9.151-21.671 0-7.322-2.593-14.349-7.301-19.786-5.424-6.262-4.743-15.735 1.52-21.159s15.736-4.743 21.158 1.52c9.43 10.889 14.623 24.89 14.623 39.424 0 16.343-6.455 31.657-18.175 43.119-2.918 2.855-6.703 4.277-10.486 4.277z" fill="#a5e887"/></g></g></svg>