<svg id="Capa_1" enable-background="new 0 0 512 512" height="512" viewBox="0 0 512 512" width="512" xmlns="http://www.w3.org/2000/svg"><g><g><path d="m429.705 286.169c-.891 0-1.792-.079-2.7-.244-8.151-1.482-13.557-9.29-12.076-17.441l22.782-125.332c1.482-8.15 9.293-13.554 17.441-12.076 8.151 1.482 13.557 9.29 12.076 17.441l-22.782 125.332c-1.317 7.243-7.631 12.32-14.741 12.32z" fill="#eee1dd"/><path d="m481.466 271.167h-171.904c-8.284 0-15 6.716-15 15v210.833c0 8.284 6.716 15 15 15h171.905c8.284 0 15-6.716 15-15v-210.833c-.001-8.285-6.716-15-15.001-15z" fill="#fff5f5"/><path d="m481.466 271.167h-85.952v240.833h85.952c8.284 0 15-6.716 15-15v-210.833c0-8.285-6.715-15-15-15z" fill="#eee1dd"/><path d="m438.682 356.916c-6.536-17.5-23.417-30-43.168-30s-36.633 12.5-43.168 30h-57.784v84.334h57.784c6.536 17.5 23.417 30 43.168 30s36.632-12.5 43.168-30h57.784v-1.067-83.267z" fill="#4fdae1"/><path d="m395.514 471.251c19.751 0 36.632-12.5 43.168-30h57.784v-84.334h-57.784c-6.536-17.5-23.417-30-43.168-30z" fill="#16aac8"/><path d="m497 286.167h-202.972c-8.284 0-15-6.716-15-15s6.716-15 15-15h202.972c8.284 0 15 6.716 15 15s-6.716 15-15 15z" fill="#4fdae1"/><path d="m497 256.167h-101.486v30h101.486c8.284 0 15-6.716 15-15s-6.716-15-15-15z" fill="#16aac8"/></g><g><path d="m215.23 0h-172.614c-8.284 0-15 6.716-15 15v53.39c0 8.284 6.716 15 15 15h172.614c8.284 0 15-6.716 15-15v-53.39c0-8.284-6.716-15-15-15z" fill="#fff5f5"/><path d="m230.23 68.39v-53.39c0-8.284-6.716-15-15-15h-86.307v83.39h86.307c8.284 0 15-6.716 15-15z" fill="#eee1dd"/><path d="m257.044 144.556-27.616-81.006c-2.071-6.075-7.779-10.16-14.198-10.16h-172.614c-6.419 0-12.126 4.084-14.198 10.16l-27.616 81.006c-1.562 4.581-.817 9.634 2 13.569 2.816 3.936 7.358 6.271 12.198 6.271h227.846c4.84 0 9.382-2.335 12.198-6.271s3.561-8.988 2-13.569z" fill="#eee1dd"/><path d="m257.044 144.556-27.616-81.006c-2.071-6.075-7.779-10.16-14.198-10.16h-86.307v111.006h113.923c4.84 0 9.382-2.335 12.198-6.271s3.561-8.988 2-13.569z" fill="#ccc2be"/><path d="m242.846 134.396h-227.846c-8.284 0-15 6.716-15 15v347.604c0 8.284 6.716 15 15 15h227.846c8.284 0 15-6.716 15-15v-347.604c0-8.284-6.716-15-15-15z" fill="#fff5f5"/><path d="m242.846 134.396h-113.923v377.604h113.923c8.284 0 15-6.716 15-15v-347.604c0-8.284-6.716-15-15-15z" fill="#eee1dd"/><path d="m0 210.588h257.846v225.219h-257.846z" fill="#4fdae1"/><path d="m128.923 210.588h128.923v225.219h-128.923z" fill="#16aac8"/><ellipse cx="128.923" cy="323.198" fill="#fff5f5" rx="51.082" ry="51.082" transform="matrix(.707 -.707 .707 .707 -190.775 185.825)"/><path d="m180.004 323.198c0-28.167-22.915-51.082-51.082-51.082v102.164c28.167 0 51.082-22.916 51.082-51.082z" fill="#eee1dd"/></g></g></svg>