<svg id="Capa_1" enable-background="new 0 0 512 512" height="512" viewBox="0 0 512 512" width="512" xmlns="http://www.w3.org/2000/svg"><g><g><path d="m425.239 56.446c.024-.651.037-1.302.037-1.953 0-30.048-25.919-54.493-57.778-54.493s-57.779 24.445-57.779 54.493c0 .651.012 1.302.037 1.952-14.005 13.812-21.89 32.132-21.89 51.415 0 41.172 35.723 74.668 79.632 74.668s79.631-33.496 79.631-74.668c0-19.283-7.884-37.603-21.89-51.414z" fill="#a5e887"/><path d="m447.129 107.86c0-19.283-7.884-37.603-21.89-51.414.024-.651.037-1.302.037-1.953 0-30.048-25.919-54.493-57.778-54.493v182.528c43.908 0 79.631-33.496 79.631-74.668z" fill="#00cc76"/><path d="m367.498 230.667c-8.284 0-15-6.716-15-15v-124.403c0-8.284 6.716-15 15-15s15 6.716 15 15v124.402c0 8.285-6.716 15.001-15 15.001z" fill="#00cc76"/><path d="m367.498 76.264v154.402c8.284 0 15-6.716 15-15v-124.402c0-8.284-6.716-15-15-15z" fill="#00884f"/><path d="m367.498 200.667c-70.398 0-127.681 59.988-127.694 133.722-.005 28.248 7.756 54.115 22.444 74.803 14.139 19.915 33.665 35.336 50.893 48.943 2.514 1.986 5.084 3.944 7.806 6.019 13.163 10.031 28.082 21.4 32.46 33.405 2.16 5.921 7.79 9.86 14.092 9.86s11.932-3.939 14.092-9.86c4.379-12.005 19.298-23.375 32.46-33.406 2.721-2.073 5.291-4.032 7.805-6.018 17.227-13.605 36.752-29.026 50.893-48.943 14.688-20.688 22.449-46.555 22.444-74.802-.015-73.736-57.298-133.723-127.695-133.723z" fill="#fff5f5"/><path d="m367.498 200.667v306.751c6.302 0 11.932-3.939 14.092-9.86 4.379-12.005 19.298-23.375 32.46-33.406 2.721-2.073 5.291-4.032 7.805-6.018 17.227-13.605 36.752-29.026 50.893-48.943 14.688-20.688 22.449-46.555 22.444-74.802-.014-73.735-57.297-133.722-127.694-133.722z" fill="#eee1dd"/><path d="m437.498 376.636c0 8.284 6.716 15 15 15h30.464c4.4-9.344 7.642-19.404 9.677-30h-40.141c-8.284 0-15 6.716-15 15z" fill="#ccc2be"/><path d="m407.498 321.649c0 8.284 6.716 15 15 15h72.655c.011-.754.039-1.502.039-2.26-.002-9.509-.963-18.787-2.775-27.74h-69.919c-8.284 0-15 6.716-15 15z" fill="#ccc2be"/><g fill="#eee1dd"><path d="m307.498 294.155c0-8.284-6.716-15-15-15h-41.276c-4.116 9.464-7.203 19.518-9.124 30h50.4c8.284 0 15-6.716 15-15z"/><path d="m327.498 349.143c0-8.284-6.716-15-15-15h-72.691c0 .082-.003.164-.003.246-.002 10.28 1.037 20.239 3.052 29.754h69.642c8.284 0 15-6.716 15-15z"/></g></g><g><path d="m219.365 36.651c-14.091-14.091-35.062-17.21-52.199-9.36-7.302-16.08-23.513-27.291-42.292-27.291s-34.991 11.211-42.293 27.291c-17.14-7.852-38.108-4.73-52.2 9.361-18.098 18.099-18.098 47.547 0 65.646l46.785 46.785c2.813 2.813 6.628 4.394 10.606 4.394h74.2c3.978 0 7.793-1.581 10.606-4.394l46.785-46.785c8.768-8.767 13.596-20.424 13.596-32.823.002-12.399-4.826-24.057-13.594-32.824z" fill="#a5e887"/><path d="m219.365 36.651c-14.091-14.091-35.062-17.21-52.199-9.36-7.302-16.08-23.513-27.291-42.292-27.291v153.476h37.1c3.978 0 7.793-1.581 10.606-4.394l46.785-46.785c8.768-8.767 13.596-20.424 13.596-32.823 0-12.398-4.828-24.056-13.596-32.823z" fill="#00cc76"/><path d="m192.035 130.687c-15.43-21.966-38.026-33.104-67.162-33.104s-51.732 11.138-67.162 33.104c-17.133 24.39-25.461 61.995-25.461 114.963 0 49.168 11.295 111.215 30.989 170.23 8.508 25.495 17.732 47.616 26.677 63.971 12.159 22.234 22.941 32.149 34.958 32.149s22.798-9.915 34.957-32.148c8.944-16.354 18.169-38.476 26.677-63.971 19.694-59.016 30.989-121.063 30.989-170.23-.001-52.969-8.329-90.574-25.462-114.964z" fill="#ffb74b"/><path d="m192.035 130.687c-15.43-21.966-38.026-33.104-67.162-33.104v414.417c12.017 0 22.798-9.915 34.957-32.148 8.944-16.354 18.169-38.476 26.677-63.971 19.694-59.016 30.989-121.063 30.989-170.23 0-52.969-8.328-90.574-25.461-114.964z" fill="#f85"/><path d="m164.874 193c0 8.284 6.716 15 15 15h35.977c-1.028-10.84-2.54-20.831-4.544-30h-31.433c-8.284 0-15 6.716-15 15z" fill="#ff631d"/><path d="m217.324 233h-47.45c-8.284 0-15 6.716-15 15s6.716 15 15 15h47.177c.291-5.933.446-11.729.446-17.35-.001-4.322-.062-8.531-.173-12.65z" fill="#ff631d"/><g fill="#f85"><path d="m104.874 321.649c0-8.284-6.716-15-15-15h-52.85c1.42 9.823 3.147 19.85 5.165 30h47.685c8.284 0 15-6.716 15-15z"/><path d="m89.874 220c0-8.284-6.716-15-15-15h-40.68c-.978 9.344-1.583 19.339-1.822 30h42.502c8.284 0 15-6.716 15-15z"/></g></g></g></svg>