<svg id="Capa_1" enable-background="new 0 0 512 512" height="512" viewBox="0 0 512 512" width="512" xmlns="http://www.w3.org/2000/svg"><g><path d="m349.807 0h-187.614c-8.284 0-15 6.716-15 15v53.39c0 8.284 6.716 15 15 15h187.615c8.284 0 15-6.716 15-15v-53.39c-.001-8.284-6.716-15-15.001-15z" fill="#fff5f5"/><path d="m391.62 144.556-27.615-81.006c-2.071-6.076-7.778-10.16-14.197-10.16h-187.615c-6.419 0-12.126 4.084-14.198 10.16l-27.616 81.006c-1.562 4.581-.817 9.634 2 13.569 2.816 3.936 7.358 6.271 12.198 6.271h242.846c4.84 0 9.382-2.335 12.198-6.271s3.562-8.988 1.999-13.569z" fill="#eee1dd"/><path d="m364.807 68.39v-53.39c0-8.284-6.716-15-15-15h-93.807v83.39h93.807c8.285 0 15-6.716 15-15z" fill="#eee1dd"/><path d="m391.62 144.556-27.615-81.006c-2.071-6.076-7.778-10.16-14.197-10.16h-93.808v111.006h121.423c4.84 0 9.382-2.335 12.198-6.271s3.562-8.988 1.999-13.569z" fill="#ccc2be"/><path d="m377.423 134.396h-242.846c-8.284 0-15 6.716-15 15v45l24.723 133.854-24.723 123.75v45c0 8.284 6.716 15 15 15h242.846c8.284 0 15-6.716 15-15v-45l-25.823-135 25.823-122.604v-45c0-8.284-6.716-15-15-15z" fill="#fff5f5"/><path d="m377.423 134.396h-121.423v377.604h121.423c8.284 0 15-6.716 15-15v-45l-23.123-129.15 23.123-128.454v-45c0-8.284-6.716-15-15-15z" fill="#eee1dd"/><path d="m119.577 194.396v257.604h272.846l-31.223-135.45 31.223-122.154z" fill="#4fdae1"/><path d="m256 194.396h136.423v257.604h-136.423z" fill="#16aac8"/><path d="m289.777 318.335c6.389-7.715 9.391-17.456 8.452-27.429-.938-9.972-5.704-18.982-13.418-25.37-7.716-6.389-17.457-9.388-27.43-8.453-9.974.938-18.984 5.705-25.371 13.42-24.462 29.541-24.465 75.832-.006 105.385 7.149 8.637 17.685 13.591 28.906 13.591 8.697 0 17.183-3.059 23.894-8.612 15.929-13.185 18.162-36.87 4.979-52.8-1.657-2.003-1.661-7.733-.006-9.732z" fill="#fab991"/><path d="m260.911 389.479c8.697 0 17.183-3.059 23.894-8.612 15.929-13.185 18.162-36.87 4.979-52.8-1.657-2.002-1.661-7.732-.006-9.732 6.389-7.715 9.391-17.456 8.452-27.429-.938-9.972-5.704-18.982-13.418-25.37-7.716-6.389-17.457-9.388-27.43-8.453-.464.044-.923.104-1.382.164v131.899c1.617.212 3.255.333 4.911.333z" fill="#f0915a"/></g></svg>