<svg id="Capa_1" enable-background="new 0 0 512 512" height="512" viewBox="0 0 512 512" width="512" xmlns="http://www.w3.org/2000/svg"><g><path d="m429.118 141.194c-.91-1.416-22.644-35.056-54.011-69.191-43.904-47.777-83.978-72.003-119.107-72.003s-75.203 24.226-119.107 72.003c-31.367 34.135-53.101 67.776-54.011 69.191-2.967 4.615-3.177 10.483-.548 15.299 2.63 4.816 7.679 7.812 13.166 7.812h321c5.487 0 10.536-2.996 13.166-7.812 2.629-4.816 2.419-10.683-.548-15.299z" fill="#fff5f5"/><path d="m429.118 141.194c-.91-1.416-22.644-35.056-54.011-69.191-43.904-47.777-83.978-72.003-119.107-72.003v164.305h160.5c5.487 0 10.536-2.996 13.166-7.812 2.629-4.816 2.419-10.683-.548-15.299z" fill="#eee1dd"/><g fill="#ccc2be"><circle cx="335.081" cy="92.814" r="13.726"/><circle cx="279" cy="92.814" r="13.726"/><circle cx="306.452" cy="55.814" r="13.726"/></g><path d="m446.528 426.912c3.725-25.868 5.609-58.989 5.609-98.74 0-114.429-15.504-142.851-20.256-148.836-2.846-3.584-7.172-5.673-11.748-5.673h-328.267c-4.576 0-8.902 2.089-11.748 5.673-4.752 5.985-20.256 34.407-20.256 148.836 0 39.75 1.885 72.872 5.609 98.74-16.142 6.783-27.269 22.417-27.269 40.737 0 24.455 20.328 44.351 45.314 44.351h344.965c24.986 0 45.314-19.896 45.314-44.351.002-18.32-11.125-33.955-27.267-40.737z" fill="#f0915a"/><path d="m446.528 426.912c3.725-25.868 5.609-58.989 5.609-98.74 0-114.429-15.504-142.851-20.256-148.836-2.846-3.584-7.172-5.673-11.748-5.673h-164.133v338.337h172.482c24.986 0 45.314-19.896 45.314-44.351.001-18.32-11.126-33.955-27.268-40.737z" fill="#c8733c"/><path d="m442.3 134.305h-372.6c-13.764 0-24.962 11.198-24.962 24.962v19.433c0 13.764 11.198 24.962 24.962 24.962h372.6c13.764 0 24.962-11.198 24.962-24.962v-19.433c0-13.764-11.199-24.962-24.962-24.962z" fill="#fab991"/><path d="m442.3 134.305h-186.3v69.357h186.3c13.764 0 24.962-11.198 24.962-24.962v-19.433c0-13.764-11.199-24.962-24.962-24.962z" fill="#f0915a"/><path d="m354.562 291.814-16.621-30c-2.644-4.771-7.667-7.73-13.121-7.73h-137.639c-5.454 0-10.478 2.96-13.121 7.73l-16.621 30c-1.232 2.225-1.879 4.726-1.879 7.27 0 0 45.034 47.508 100.416 47.508s100.464-47.508 100.464-47.508c0-2.543-.646-5.045-1.878-7.27z" fill="#fff5f5"/><path d="m356.44 299.084c0-2.543-.646-5.045-1.879-7.27l-16.621-30c-2.644-4.771-7.667-7.73-13.121-7.73h-68.819v84.091c55.383 0 100.44-39.091 100.44-39.091z" fill="#eee1dd"/><path d="m156.839 293.039c-.837 1.901-1.28 3.958-1.28 6.045v24.017c0 55.383 45.058 100.44 100.44 100.44s100.44-45.058 100.44-100.44v-24.017c0-2.088-.442-4.144-1.28-6.045-22.821 19.447-54.816 34.575-99.161 34.575s-76.338-15.128-99.159-34.575z" fill="#a5e887"/><path d="m355.161 293.039c-22.821 19.447-54.816 34.575-99.161 34.575v95.928c55.383 0 100.44-45.058 100.44-100.44v-24.017c0-2.089-.442-4.145-1.279-6.046z" fill="#00cc76"/></g></svg>