<svg id="Capa_1" enable-background="new 0 0 511.401 511.401" height="512" viewBox="0 0 511.401 511.401" width="512" xmlns="http://www.w3.org/2000/svg"><g><path d="m211.566 161.456v-20.743c0-8.284-6.716-15-15-15h-49.109c-8.284 0-15 6.716-15 15v20.743c-15.067 12.085-24.135 30.592-24.135 50.14v17.264c0 8.284 6.716 15 15 15h97.379c8.284 0 15-6.716 15-15v-17.264c0-19.549-9.068-38.055-24.135-50.14z" fill="#fff5f5"/><path d="m205.24 90.712h-66.457c-8.284 0-15 6.716-15 15v35c0 8.284 6.716 15 15 15h66.457c8.284 0 15-6.716 15-15v-35c0-8.284-6.716-15-15-15z" fill="#4fdae1"/><path d="m339.826 0c-35.358 0-64.125 28.766-64.125 64.125v164.734c0 8.284 6.716 15 15 15h98.25c8.284 0 15-6.716 15-15v-164.734c0-35.359-28.767-64.125-64.125-64.125z" fill="#ffb74b"/><g fill="#c8733c"><path d="m355.495 152.964c-7.932 2.392-12.422 10.761-10.03 18.692 1.957 6.487 7.912 10.672 14.355 10.672 1.435 0 2.894-.208 4.338-.643l39.793-12.002v-31.335z"/><path d="m345.464 121.657c1.957 6.487 7.912 10.672 14.355 10.672 1.435 0 2.894-.208 4.338-.643l39.793-12.002v-31.335l-48.456 14.615c-7.931 2.392-12.421 10.762-10.03 18.693z"/><path d="m345.464 71.808c1.957 6.487 7.912 10.672 14.355 10.672 1.435 0 2.894-.208 4.337-.643l39.794-12.002v-5.71c0-8.557-1.698-16.721-4.753-24.191l-43.703 13.182c-7.931 2.392-12.421 10.76-10.03 18.692z"/></g><path d="m431.004 228.558c-.302-8.06-6.923-14.439-14.989-14.439h-320.629c-8.066 0-14.688 6.379-14.989 14.439l-10 267.283c-.152 4.072 1.358 8.032 4.187 10.967 2.827 2.936 6.728 4.594 10.803 4.594h340.629c4.075 0 7.976-1.658 10.803-4.594 2.828-2.935 4.339-6.895 4.187-10.967z" fill="#b56d3c"/><path d="m431.004 228.558c-.302-8.06-6.923-14.439-14.989-14.439h-320.629c-8.066 0-14.688 6.379-14.989 14.439l-10 267.283c-.152 4.072 1.358 8.032 4.187 10.967 2.827 2.936 6.728 4.594 10.803 4.594h340.629c4.075 0 7.976-1.658 10.803-4.594 2.828-2.935 4.339-6.895 4.187-10.967z" fill="#fab991"/><path d="m431.004 228.558c-.302-8.06-6.923-14.439-14.989-14.439h-160.314v297.283h170.314c4.075 0 7.976-1.658 10.803-4.594 2.828-2.935 4.339-6.895 4.187-10.967z" fill="#f0915a"/><path d="m72.621 436.401-2.224 59.44c-.152 4.072 1.358 8.032 4.187 10.967 2.827 2.936 6.728 4.594 10.803 4.594h340.629c4.075 0 7.976-1.658 10.803-4.594 2.828-2.935 4.339-6.895 4.187-10.967l-2.224-59.44z" fill="#f0915a"/><path d="m438.781 436.401h-183.08v75h170.314c4.075 0 7.976-1.658 10.803-4.594 2.828-2.935 4.339-6.895 4.187-10.967z" fill="#c8733c"/></g></svg>