<svg id="Capa_1" enable-background="new 0 0 512 512" height="512" viewBox="0 0 512 512" width="512" xmlns="http://www.w3.org/2000/svg"><g><path d="m308.058 33.509c-6.64-19.536-27.304-33.509-52.058-33.509s-45.418 13.973-52.058 33.509c-27.073 7.468-46.328 31.522-46.328 59.875 0 34.333 28.71 62.265 64 62.265h68.77c35.29 0 64.001-27.932 64.001-62.265.001-28.353-19.254-52.407-46.327-59.875z" fill="#a5e887"/><path d="m308.058 33.509c-6.64-19.536-27.304-33.509-52.058-33.509v155.649h34.385c35.29 0 64.001-27.932 64.001-62.265 0-28.353-19.255-52.407-46.328-59.875z" fill="#00cc76"/><circle cx="256" cy="131.873" fill="#fa7578" r="58.464"/><path d="m256 73.409v116.928c32.237 0 58.464-26.227 58.464-58.464s-26.227-58.464-58.464-58.464z" fill="#f9545b"/><path d="m355.132 57.766c-31.708 0-61.06 18.16-82.647 51.134-6.434 9.828-11.949 20.656-16.485 32.239-4.536-11.582-10.051-22.41-16.485-32.239-21.587-32.975-50.939-51.134-82.647-51.134-8.284 0-15 6.716-15 15v151.422c0 8.284 6.716 15 15 15h99.132 99.132c8.284 0 15-6.716 15-15v-151.422c0-8.284-6.715-15-15-15z" fill="#fff5f5"/><path d="m355.132 57.766c-31.708 0-61.06 18.16-82.647 51.134-6.434 9.828-11.949 20.656-16.485 32.239v98.049h99.132c8.284 0 15-6.716 15-15v-151.422c0-8.284-6.715-15-15-15z" fill="#eee1dd"/><path d="m370.132 209.188h-228.264v287.812c0 8.284 6.716 15 15 15h198.265c8.284 0 15-6.716 15-15v-287.812z" fill="#fce000"/><path d="m370.132 209.188h-114.132v302.812h99.132c8.284 0 15-6.716 15-15z" fill="#fdbf00"/><path d="m141.868 260.684h228.265v199.821h-228.265z" fill="#00cc76"/><path d="m256 260.684h114.132v199.821h-114.132z" fill="#00884f"/><ellipse cx="256" cy="360.878" fill="#ffb74b" rx="65.815" ry="47.957"/><path d="m256 312.921v95.915c36.906 0 65.815-21.065 65.815-47.958 0-26.892-28.909-47.957-65.815-47.957z" fill="#f85"/></g></svg>