<svg id="Capa_1" enable-background="new 0 0 512 512" height="512" viewBox="0 0 512 512" width="512" xmlns="http://www.w3.org/2000/svg"><g><path d="m300.02 128.613h-1.752v-76.927c0-4.142-3.358-7.5-7.5-7.5h-69.535c-4.142 0-7.5 3.358-7.5 7.5v76.928h-1.752c-33.707 0-61.13 27.423-61.13 61.13v307.256c0 8.284 6.716 15 15 15h180.299c8.284 0 15-6.716 15-15v-307.256c-.001-33.708-27.423-61.131-61.13-61.131z" fill="#fce000"/><path d="m300.02 128.613h-1.752v-76.927c0-4.142-3.358-7.5-7.5-7.5h-34.768v467.814h90.149c8.284 0 15-6.716 15-15v-307.256c0-33.708-27.422-61.131-61.129-61.131z" fill="#fdbf00"/><path d="m150.851 194.723h210.299v251.167h-210.299z" fill="#a5e887"/><path d="m256 194.723h105.149v251.167h-105.149z" fill="#00cc76"/><path d="m282.965 394.059h-53.931c-8.284 0-15-6.716-15-15s6.716-15 15-15h53.931c8.284 0 15 6.716 15 15s-6.715 15-15 15z" fill="#00cc76"/><path d="m282.965 394.059c8.284 0 15-6.716 15-15s-6.716-15-15-15h-26.965v30z" fill="#00884f"/><circle cx="256" cy="296.692" fill="#00cc76" r="50.137"/><path d="m306.137 296.692c0-27.646-22.491-50.137-50.137-50.137v100.274c27.646 0 50.137-22.491 50.137-50.137z" fill="#00884f"/><path d="m301.303 0h-90.606c-8.284 0-15 6.716-15 15v36.686c0 8.284 6.716 15 15 15h90.606c8.284 0 15-6.716 15-15v-36.686c0-8.284-6.716-15-15-15z" fill="#00cc76"/><path d="m301.303 0h-45.303v66.686h45.303c8.284 0 15-6.716 15-15v-36.686c0-8.284-6.716-15-15-15z" fill="#00884f"/></g></svg>