<svg id="Capa_1" enable-background="new 0 0 512 512" height="512" viewBox="0 0 512 512" width="512" xmlns="http://www.w3.org/2000/svg"><g><path d="m307.266 92.914v-37.914c0-8.284-6.716-15-15-15h-72.534c-8.284 0-15 6.716-15 15v37.914c-30.433 6.852-53.23 34.098-53.23 66.569v8.774c0 8.284 6.716 15 15 15h178.996c8.284 0 15-6.716 15-15v-8.774c0-32.472-22.799-59.718-53.232-66.569z" fill="#fff5f5"/><path d="m360.498 168.257v-8.774c0-32.472-22.799-59.718-53.231-66.569v-37.914c0-8.284-6.716-15-15-15h-36.267v143.257h89.498c8.284 0 15-6.715 15-15z" fill="#eee1dd"/><path d="m151.502 153.257h208.996v167.352h-208.996z" fill="#4fdae1"/><path d="m256 153.257h104.498v167.352h-104.498z" fill="#16aac8"/><ellipse cx="256" cy="221.933" fill="#eeeced" rx="40.333" ry="40.333" transform="matrix(.707 -.707 .707 .707 -81.95 246.022)"/><path d="m256 262.267c22.239 0 40.333-18.094 40.333-40.333s-18.094-40.334-40.333-40.334z" fill="#eee1dd"/><path d="m299.846 0h-87.691c-8.284 0-15 6.716-15 15v40c0 8.284 6.716 15 15 15h87.691c8.284 0 15-6.716 15-15v-40c0-8.284-6.716-15-15-15z" fill="#4fdae1"/><path d="m314.846 55v-40c0-8.284-6.716-15-15-15h-43.846v70h43.846c8.284 0 15-6.716 15-15z" fill="#16aac8"/><path d="m345.498 390.609h-178.996c-8.284 0-15 6.716-15 15v61.309c0 24.858 20.224 45.082 45.082 45.082h118.831c24.858 0 45.083-20.224 45.083-45.082v-61.309c0-8.284-6.716-15-15-15z" fill="#eee1dd"/><path d="m345.498 390.609h-89.498v121.391h59.415c24.858 0 45.083-20.224 45.083-45.082v-61.309c0-8.284-6.716-15-15-15z" fill="#ccc2be"/><path d="m165.084 405.609h181.831c13.807 0 25-11.193 25-25 0-13.807-11.193-25-25-25h-181.831c-13.807 0-25 11.193-25 25 .001 13.807 11.193 25 25 25z" fill="#fff5f5"/><path d="m256 405.609h90.916c13.807 0 25-11.193 25-25 0-13.807-11.193-25-25-25h-90.916z" fill="#eee1dd"/><path d="m165.084 355.609h181.831c13.807 0 25-11.193 25-25 0-13.807-11.193-25-25-25h-181.831c-13.807 0-25 11.193-25 25 .001 13.807 11.193 25 25 25z" fill="#eee1dd"/><path d="m371.915 330.609c0-13.807-11.193-25-25-25h-90.915v50h90.916c13.807 0 24.999-11.193 24.999-25z" fill="#ccc2be"/></g></svg>