<svg id="Capa_1" enable-background="new 0 0 512 512" height="512" viewBox="0 0 512 512" width="512" xmlns="http://www.w3.org/2000/svg"><g><path d="m255.953 89.766c-8.284 0-15-6.716-15-15v-59.766c0-8.284 6.716-15 15-15s15 6.716 15 15v59.766c0 8.284-6.716 15-15 15z" fill="#fff5f5"/><path d="m255.953 0v89.766c8.284 0 15-6.716 15-15v-59.766c0-8.284-6.716-15-15-15z" fill="#eee1dd"/><path d="m346.702 59.766h-181.498c-8.284 0-15 6.716-15 15v35c0 8.284 6.716 15 15 15h181.498c8.284 0 15-6.716 15-15v-35c0-8.284-6.716-15-15-15z" fill="#fff5f5"/><path d="m346.702 59.766h-90.749v65h90.749c8.284 0 15-6.716 15-15v-35c0-8.284-6.716-15-15-15z" fill="#eee1dd"/><path d="m220.703 59.766h70.5v65h-70.5z" fill="#eee1dd"/><path d="m255.953 59.766h35.25v65h-35.25z" fill="#ccc2be"/><path d="m383.793 187.846-22.878-67.871c-2.056-6.101-7.776-10.208-14.214-10.208h-181.497c-6.438 0-12.158 4.108-14.214 10.208l-22.878 67.871c-1.543 4.578-.787 9.618 2.03 13.542 2.818 3.924 7.353 6.25 12.184 6.25h227.254c4.831 0 9.365-2.326 12.184-6.25 2.817-3.924 3.572-8.965 2.029-13.542z" fill="#fec3b9"/><path d="m381.763 201.387c2.817-3.923 3.573-8.964 2.03-13.542l-22.878-67.871c-2.056-6.101-7.776-10.208-14.214-10.208h-90.749v97.871h113.628c4.831 0 9.365-2.326 12.183-6.25z" fill="#fd9d8c"/><path d="m369.58 177.637h-227.254c-8.284 0-15 6.716-15 15v63.634c0 8.284 6.716 15 15 15h227.254c8.284 0 15-6.716 15-15v-63.634c0-8.284-6.716-15-15-15z" fill="#fa7578"/><path d="m384.58 256.271v-63.634c0-8.284-6.716-15-15-15h-113.627v93.634h113.627c8.284 0 15-6.716 15-15z" fill="#f9545b"/><path d="m377.605 319.096c-.158-.101-15.903-10.717-15.903-25.076 0-14.177 15.068-24.514 15.947-25.104 5.688-3.523 8.271-10.337 6.449-16.78-1.826-6.459-7.807-10.865-14.519-10.865h-227.253c-6.675 0-12.547 4.411-14.406 10.822s.741 13.279 6.381 16.851c.158.101 15.903 10.717 15.903 25.076 0 14.529-15.826 25.025-15.903 25.076-5.719 3.515-7.67 10.747-5.843 17.206 1.826 6.459 7.157 10.466 13.868 10.466h227.254c6.675 0 11.785-3.892 13.644-10.304s.021-13.797-5.619-17.368z" fill="#fec3b9"/><path d="m377.605 319.096c-.158-.101-15.903-10.717-15.903-25.076 0-14.177 15.068-24.514 15.947-25.104 5.688-3.523 8.271-10.337 6.449-16.78-1.826-6.459-7.807-10.865-14.519-10.865h-113.626v105.497h113.627c6.675 0 11.234-3.778 13.094-10.189s.571-13.912-5.069-17.483z" fill="#fd9d8c"/><path d="m369.58 316.768h-227.254c-8.284 0-15 6.716-15 15v165.232c0 8.284 6.716 15 15 15h227.254c8.284 0 15-6.716 15-15v-165.232c0-8.284-6.716-15-15-15z" fill="#fa7578"/><path d="m369.58 512c8.284 0 15-6.716 15-15v-165.232c0-8.284-6.716-15-15-15h-113.627v195.232z" fill="#f9545b"/><path d="m299.766 382.507c-11.954-5.936-27.514-9.204-43.813-9.204s-31.859 3.269-43.813 9.204c-15.07 7.482-23.714 19.102-23.714 31.877s8.644 24.394 23.714 31.877c11.954 5.935 27.514 9.204 43.813 9.204s31.859-3.269 43.813-9.204c15.07-7.483 23.714-19.102 23.714-31.877s-8.644-24.394-23.714-31.877z" fill="#fec3b9"/><path d="m299.766 382.507c-11.954-5.936-27.514-9.204-43.813-9.204v82.162c16.3 0 31.859-3.269 43.813-9.204 15.07-7.483 23.714-19.102 23.714-31.877s-8.644-24.394-23.714-31.877z" fill="#fd9d8c"/></g></svg>