<svg id="Capa_1" enable-background="new 0 0 511.011 511.011" height="512" viewBox="0 0 511.011 511.011" width="512" xmlns="http://www.w3.org/2000/svg"><g><g><path d="m335.737 208.341c-2.532-1.79-5.557-2.75-8.657-2.75h-173.149c-3.101 0-6.125.961-8.657 2.75-48.663 34.392-77.714 90.452-77.714 149.959s29.052 115.567 77.713 149.96c2.532 1.79 5.557 2.75 8.657 2.75h173.15c3.101 0 6.125-.961 8.657-2.75 48.662-34.393 77.714-90.452 77.714-149.96 0-59.507-29.052-115.567-77.714-149.959z" fill="#fce000"/><path d="m335.737 208.341c-2.532-1.79-5.557-2.75-8.657-2.75h-86.575v305.42h86.575c3.101 0 6.125-.961 8.657-2.75 48.662-34.393 77.714-90.452 77.714-149.96s-29.052-115.568-77.714-149.96z" fill="#fdbf00"/><path d="m396.974 282.438h-312.937c-10.698 23.532-16.477 49.351-16.477 75.862s5.78 52.331 16.477 75.862h312.937c10.697-23.531 16.477-49.351 16.477-75.862s-5.78-52.33-16.477-75.862z" fill="#ffb74b"/><path d="m413.451 358.3c0-26.511-5.78-52.331-16.477-75.862h-156.469v151.724h156.469c10.697-23.531 16.477-49.351 16.477-75.862z" fill="#f85"/><path d="m283.297 350.8-14.9-25.809c-2.68-4.641-7.631-7.5-12.99-7.5h-29.802c-5.359 0-10.311 2.859-12.99 7.5l-14.9 25.809c-2.68 4.641-2.68 10.359 0 15l14.9 25.809c2.679 4.641 7.631 7.5 12.99 7.5h29.802c5.359 0 10.311-2.859 12.99-7.5l14.9-25.809c2.68-4.641 2.68-10.359 0-15z" fill="#fff5f5"/><path d="m283.297 350.8-14.9-25.809c-2.68-4.641-7.631-7.5-12.99-7.5h-14.901v81.618h14.901c5.359 0 10.311-2.859 12.99-7.5l14.9-25.809c2.68-4.641 2.68-10.359 0-15z" fill="#eee1dd"/><path d="m347.547 164.52h-214.083c-8.284 0-15 6.716-15 15v41.07c0 8.284 6.716 15 15 15h214.083c8.284 0 15-6.716 15-15v-41.07c0-8.284-6.716-15-15-15z" fill="#ca6d58"/><path d="m362.547 220.59v-41.07c0-8.284-6.716-15-15-15h-107.042v71.07h107.042c8.284 0 15-6.715 15-15z" fill="#a54f3e"/></g><g><path d="m428.451 66.013h-130.534c-8.284 0-15-6.716-15-15s6.716-15 15-15h130.534c8.284 0 15 6.716 15 15s-6.716 15-15 15z" fill="#a54f3e"/><path d="m215.434 132.352c-8.284 0-15-6.716-15-15v-28.346c0-8.284 6.716-15 15-15s15 6.716 15 15v28.346c0 8.284-6.716 15-15 15z" fill="#fce000"/><path d="m265.576 144.817c-8.284 0-15-6.716-15-15v-42.038c0-8.284 6.716-15 15-15s15 6.716 15 15v42.038c0 8.284-6.716 15-15 15z" fill="#fdbf00"/><path d="m259.807 0h-38.603c-28.088 0-50.939 22.852-50.939 50.939v.147c0 28.088 22.852 50.939 50.939 50.939h38.603c28.088 0 50.939-22.852 50.939-50.939v-.147c0-28.087-22.851-50.939-50.939-50.939z" fill="#ffb74b"/><path d="m259.807 0h-19.301v102.026h19.301c28.088 0 50.939-22.852 50.939-50.939v-.147c0-28.088-22.851-50.94-50.939-50.94z" fill="#f85"/></g></g></svg>