<svg id="Capa_1" enable-background="new 0 0 512 512" height="512" viewBox="0 0 512 512" width="512" xmlns="http://www.w3.org/2000/svg"><g><path d="m194.839 134.704h-101.27c-7.545 0-13.661-6.116-13.661-13.661 0-36.865 28.843-66.857 64.296-66.857s64.296 29.992 64.296 66.857c0 7.544-6.116 13.661-13.661 13.661z" fill="#fe9e22"/><path d="m109.505 107.382h69.398c-5.212-15.088-18.8-25.874-34.699-25.874s-29.487 10.786-34.699 25.874z" fill="#ffcd00"/><path d="m272.737 122.41c-8.284 0-15-6.716-15-15v-92.41c0-8.284 6.716-15 15-15h49.355c8.284 0 15 6.716 15 15s-6.716 15-15 15h-34.355v77.41c0 8.284-6.716 15-15 15z" fill="#e7e7e7"/><path d="m335.862 194.014v-27.798c0-8.284-6.716-15-15-15h-224.723c-8.284 0-15 6.716-15 15v27.798c-18.287 6.106-31.503 23.391-31.503 43.705v228.66c0 25.156 20.465 45.621 45.621 45.621h226.488c25.156 0 45.621-20.465 45.621-45.621v-228.66c-.001-20.314-13.217-37.598-31.504-43.705z" fill="#fa7578"/><path d="m432.313 255.177h-64.948v-17.458c0-20.314-13.216-37.599-31.503-43.705v-27.798c0-8.284-6.716-15-15-15h-112.362v360.784h113.244c25.156 0 45.621-20.465 45.621-45.621v-20.536h64.948c16.597 0 30.052-13.455 30.052-30.052v-130.562c0-16.597-13.455-30.052-30.052-30.052zm-24.948 135.666h-40v-80.667h40z" fill="#f9545b"/><path d="m334.188 107.41h-251.377c-13.951 0-25.3 11.35-25.3 25.301v23.205c0 13.951 11.35 25.301 25.3 25.301h251.377c13.951 0 25.301-11.35 25.301-25.301v-23.206c0-13.95-11.35-25.3-25.301-25.3z" fill="#fff5f5"/><path d="m334.188 107.41h-125.688v73.806h125.688c13.951 0 25.301-11.35 25.301-25.301v-23.205c0-13.95-11.35-25.3-25.301-25.3z" fill="#eee1dd"/><g><circle cx="208.5" cy="283.452" fill="#59595a" r="13.726"/><path d="m208.5 269.726v27.452c7.581 0 13.726-6.145 13.726-13.726s-6.145-13.726-13.726-13.726z" fill="#3b484a"/><circle cx="154.232" cy="223.274" fill="#59595a" r="13.726"/><circle cx="126.78" cy="305.176" fill="#59595a" r="13.726"/><circle cx="227.595" cy="371" fill="#3b484a" r="13.726"/><circle cx="126.78" cy="388.557" fill="#59595a" r="13.726"/><circle cx="289.459" cy="310.904" fill="#3b484a" r="13.726"/><circle cx="269.011" cy="228.548" fill="#3b484a" r="13.726"/><circle cx="187.595" cy="439.009" fill="#59595a" r="13.726"/><circle cx="293.689" cy="425.283" fill="#3b484a" r="13.726"/></g></g></svg>