<svg id="Capa_1" enable-background="new 0 0 512 512" height="512" viewBox="0 0 512 512" width="512" xmlns="http://www.w3.org/2000/svg"><g><path d="m282.729 42.521h-53.458c-8.284 0-15 6.716-15 15v65c0 8.284 6.716 15 15 15h53.458c8.284 0 15-6.716 15-15v-65c0-8.285-6.716-15-15-15z" fill="#eee1dd"/><path d="m279.295 0h-46.591c-27.935 0-50.661 22.726-50.661 50.661v11.859c0 8.284 6.716 15 15 15h117.912c8.284 0 15-6.716 15-15v-11.859c.001-27.935-22.725-50.661-50.66-50.661z" fill="#4fdae1"/><path d="m282.729 42.521h-26.729v95h26.729c8.284 0 15-6.716 15-15v-65c0-8.285-6.716-15-15-15z" fill="#ccc2be"/><path d="m279.295 0h-23.295v77.52h58.956c8.284 0 15-6.716 15-15v-11.859c0-27.935-22.726-50.661-50.661-50.661z" fill="#16aac8"/><path d="m375.61 97.52h-239.22c-27.562 0-49.985 22.423-49.985 49.986v314.509c0 27.562 22.423 49.985 49.985 49.985h239.22c27.562 0 49.985-22.423 49.985-49.985v-314.509c.001-27.563-22.423-49.986-49.985-49.986z" fill="#fff5f5"/><path d="m375.61 97.52h-119.61v414.48h119.61c27.562 0 49.985-22.423 49.985-49.985v-314.509c.001-27.563-22.423-49.986-49.985-49.986z" fill="#eee1dd"/><path d="m370.596 137.521h-229.192c-8.284 0-15 6.716-15 15v304.479c0 8.284 6.716 15 15 15h229.191c8.284 0 15-6.716 15-15v-304.479c.001-8.285-6.715-15-14.999-15z" fill="#eee1dd"/><path d="m370.596 137.521h-114.596v334.479h114.596c8.284 0 15-6.716 15-15v-304.479c0-8.285-6.716-15-15-15z" fill="#ccc2be"/><path d="m291.864 274.76c-8.356 0-15.13 6.774-15.13 15.13v44.74c0 8.356 6.774 15.13 15.13 15.13h93.732v-75z" fill="#16aac8"/><path d="m235.266 334.63v-44.74c0-8.356-6.774-15.13-15.13-15.13h-93.732v75h93.732c8.356 0 15.13-6.774 15.13-15.13z" fill="#4fdae1"/><circle cx="256" cy="312.26" fill="#16aac8" r="59.667"/><path d="m315.667 312.26c0-32.9-26.766-59.667-59.667-59.667v119.333c32.9.001 59.667-26.765 59.667-59.666z" fill="#157aa8"/></g></svg>