<svg id="Capa_1" enable-background="new 0 0 512 512" height="512" viewBox="0 0 512 512" width="512" xmlns="http://www.w3.org/2000/svg"><g><g><path d="m382.265 0h-349.411c-7.897 0-15.05 4.673-18.223 11.905-3.172 7.232-1.766 15.66 3.583 21.471.602.653 1.26 1.252 1.967 1.789l39.895 30.283v431.552c0 8.284 6.716 15 15 15h312.089c8.284 0 15-6.716 15-15v-477.101c-.002-10.972-8.929-19.899-19.9-19.899z" fill="#fff5f5"/><path d="m382.265 0h-143.01v512h147.908c8.284 0 15-6.716 15-15v-477.101c0-10.972-8.927-19.899-19.898-19.899z" fill="#eee1dd"/><path d="m478.698 157.253h-76.535v-50h-342.089v389.747c0 8.284 6.716 15 15 15h312.089c8.284 0 15-6.716 15-15v-142.253h76.535c11.238 0 20.348-9.11 20.348-20.348v-156.798c0-11.238-9.11-20.348-20.348-20.348zm-34.653 142.494h-41.882v-87.494h41.882z" fill="#a5e887"/><path d="m478.698 157.253h-76.535v-50h-162.908v404.747h147.908c8.284 0 15-6.716 15-15v-142.253h76.535c11.238 0 20.348-9.11 20.348-20.348v-156.798c0-11.238-9.11-20.348-20.348-20.348zm-34.653 142.494h-41.882v-87.494h41.882z" fill="#00cc76"/></g><g><circle cx="242.887" cy="226" fill="#fe9e22" r="13.726"/><circle cx="126.264" cy="423.961" fill="#ffb74b" r="13.726"/><circle cx="205.264" cy="155.61" fill="#ffb74b" r="13.726"/><ellipse cx="160.625" cy="233.943" fill="#ffb74b" rx="49.361" ry="49.361" transform="matrix(.707 -.707 .707 .707 -118.377 182.099)"/><g fill="#ffcd00"><path d="m160.625 214.582c-10.676 0-19.361 8.685-19.361 19.361s8.685 19.361 19.361 19.361 19.361-8.686 19.361-19.361-8.686-19.361-19.361-19.361z"/><rect height="0" width="0" x="239.255" y="308.489"/><path d="m239.256 308.489h-.001z"/><path d=""/></g><g><path d="m335.397 308.489h-192.283c-8.284 0-15 6.716-15 15 0 61.284 49.858 111.142 111.142 111.142s111.141-49.858 111.141-111.142c0-8.284-6.716-15-15-15z" fill="#fce000"/><path d="m239.255 308.489 85.696 85.696c15.888-19.225 25.445-43.866 25.445-70.696 0-8.284-6.716-15-15-15z" fill="#fdbf00"/><path d="m239.255 308.489-85.696 85.696c20.402 24.687 51.243 40.445 85.696 40.445z" fill="#fdbf00"/><path d="m335.397 308.489h-16.413c.913 4.865 1.413 9.874 1.413 15 0 44.742-36.399 81.142-81.141 81.142s-81.142-36.4-81.142-81.142c0-5.126.5-10.135 1.413-15h-16.413c-8.284 0-15 6.716-15 15 0 61.284 49.858 111.142 111.142 111.142s111.141-49.858 111.141-111.142c0-8.284-6.716-15-15-15z" fill="#ffb74b"/><path d="m335.397 308.489h-16.413c.913 4.865 1.413 9.874 1.413 15 0 44.742-36.399 81.142-81.141 81.142v30c61.284 0 111.141-49.858 111.141-111.142 0-8.284-6.716-15-15-15z" fill="#f85"/></g><circle cx="317.444" cy="272.03" fill="#f85" r="13.726"/><path d="m242.887 212.274c-1.26 0-2.474.184-3.632.502v26.449c1.159.318 2.373.502 3.632.502 7.581 0 13.726-6.145 13.726-13.726s-6.145-13.727-13.726-13.727z" fill="#f85"/><circle cx="319.816" cy="447.083" fill="#f85" r="13.726"/><path d="m296.09 220.131c-22.1 0-40.079-17.979-40.079-40.079s17.979-40.08 40.079-40.08c22.101 0 40.08 17.979 40.08 40.08 0 22.1-17.979 40.079-40.08 40.079z" fill="#f85"/><path d="m296.09 169.973c-5.558 0-10.079 4.521-10.079 10.08 0 5.558 4.521 10.079 10.079 10.079 5.559 0 10.08-4.521 10.08-10.079 0-5.559-4.521-10.08-10.08-10.08z" fill="#ffcd00"/></g></g></svg>