<svg id="Capa_1" enable-background="new 0 0 512.004 512.004" height="512" viewBox="0 0 512.004 512.004" width="512" xmlns="http://www.w3.org/2000/svg"><g><path d="m311.758 184.921c-.567 0-1.14-.032-1.716-.098-8.231-.938-14.144-8.37-13.206-16.601l15.255-133.941c.624-5.484 4.21-10.182 9.334-12.23l52.457-20.975c7.694-3.076 16.422.667 19.497 8.359 3.076 7.692-.667 16.421-8.358 19.497l-44.137 17.648-14.241 125.037c-.871 7.654-7.361 13.304-14.885 13.304z" fill="#fdbf00"/><path d="m156.864.004c-17.541 0-31.812 14.271-31.812 31.812s14.271 31.812 31.812 31.812 31.813-14.271 31.813-31.812-14.272-31.812-31.813-31.812z" fill="#4fdae1"/><path d="m243.846 58.534c-20.086 0-36.427 16.341-36.427 36.427s16.341 36.427 36.427 36.427 36.428-16.341 36.428-36.427-16.342-36.427-36.428-36.427z" fill="#4fdae1"/><path d="m280.273 94.962c0-15.824-10.146-29.317-24.271-34.334v68.668c14.126-5.017 24.271-18.51 24.271-34.334z" fill="#16aac8"/><path d="m451.017 222.294-35.425-60c-2.698-4.57-7.61-7.374-12.917-7.374h-293.346c-5.307 0-10.219 2.804-12.917 7.374l-35.425 60c-1.363 2.31-2.083 4.943-2.083 7.626 0 0 86.496 89.841 195.176 89.841s199.02-89.841 199.02-89.841c0-2.683-.72-5.317-2.083-7.626z" fill="#fff5f5"/><path d="m451.017 222.294-35.425-60c-2.698-4.57-7.61-7.374-12.917-7.374h-147.673v148.384c108.68 0 198.098-73.384 198.098-73.384 0-2.683-.72-5.317-2.083-7.626z" fill="#eee1dd"/><path d="m368.503 229.919-51.952 50.72c-2.906 2.837-7.558 2.798-10.415-.088l-50.134-50.632h-197.098v83.282c0 108.353 88.645 198.748 196.998 198.802 108.726.055 197.198-88.383 197.198-197.097v-84.986z" fill="#a5e887"/><path d="m368.503 229.919-51.952 50.72c-2.906 2.837-7.558 2.798-10.415-.088l-50.134-50.632h-1v282.073c.301.002.599.012.9.012 108.726.054 197.198-88.384 197.198-197.098v-84.986z" fill="#00cc76"/><path d="m316.825 463.459c-6.012 0-11.685-3.639-13.989-9.58-2.995-7.724.838-16.413 8.562-19.409 25.45-9.871 46.435-28.675 59.086-52.948 3.829-7.346 12.889-10.197 20.234-6.369 7.347 3.829 10.198 12.889 6.369 20.235-16.02 30.734-42.599 54.547-74.842 67.052-1.782.691-3.617 1.019-5.42 1.019z" fill="#a5e887"/></g></svg>