<svg id="Capa_1" enable-background="new 0 0 512 512" height="512" viewBox="0 0 512 512" width="512" xmlns="http://www.w3.org/2000/svg"><g><path d="m310.331 98.167v4.846 53.638c.975.008 1.577.013 1.625.013 11.638 0 46.921-1.945 70.234-23.937 19.184-18.112 26.018-41.981 26.02-58.282.001-9.546-2.25-16.312-6.879-20.685-8.186-7.71-24.068-6.636-32.811-5.311-10.416 1.578-25.975 5.803-40.943 16.965 0 .003-17.246 15.421-17.246 32.753z" fill="#a5e887"/><path d="m310.33 98.167v4.846 53.638c-.975.008-1.577.013-1.625.013-11.638 0-46.921-1.945-70.234-23.937-19.184-18.112-26.018-41.981-26.02-58.282-.001-9.546 2.25-16.312 6.879-20.685 8.186-7.71 24.068-6.636 32.811-5.311 10.416 1.578 25.975 5.803 40.943 16.965-.001.003 17.246 15.421 17.246 32.753z" fill="#a5e887"/><path d="m340.329 51.272c-6.986-11.448-17.862-25.095-29.999-25.095s-23.012 13.647-29.998 25.095c-5.469 8.963-14.645 27.176-14.645 48.45 0 41.996 23.061 56.959 44.643 56.959s44.644-14.963 44.644-56.959c0-21.274-9.176-39.487-14.645-48.45z" fill="#00cc76"/><path d="m409.9 127.825h-394.9c-8.284 0-15 6.716-15 15v83.152c0 50.917 11.648 94.892 34.622 130.704 21.564 33.615 52.069 58.697 90.668 74.549 1.808.743 3.743 1.125 5.698 1.125h162.903c1.955 0 3.891-.382 5.698-1.125 38.601-15.853 69.108-40.934 90.677-74.547 22.981-35.814 34.634-79.79 34.634-130.705v-83.152c0-8.285-6.715-15.001-15-15.001z" fill="#fff5f5"/><path d="m436.754 193.037h-11.854v-50.211c0-8.284-6.716-15-15-15h-197.45v304.529h81.441c1.955 0 3.891-.382 5.698-1.125 38.601-15.853 69.108-40.934 90.677-74.547 2.757-4.297 5.347-8.715 7.778-13.245.536.058 1.079.092 1.63.092h37.079c41.491 0 75.246-33.755 75.246-75.246.001-41.492-33.754-75.247-75.245-75.247zm0 120.492h-25.614c9.144-26.235 13.76-55.519 13.76-87.552v-2.94h11.854c24.949 0 45.246 20.297 45.246 45.247 0 24.948-20.297 45.245-45.246 45.245z" fill="#eee1dd"/><path d="m386.113 403.447h-347.326c-8.284 0-15 6.716-15 15 0 37.151 30.225 67.376 67.376 67.376h242.574c37.151 0 67.376-30.225 67.376-67.376 0-8.284-6.716-15-15-15z" fill="#eee1dd"/><path d="m386.113 403.447h-173.663v82.376h121.287c37.151 0 67.376-30.225 67.376-67.376 0-8.284-6.716-15-15-15z" fill="#ccc2be"/><path d="m112.452 224.988c8.284 0 15-6.716 15-15v-82.163h-30v82.163c0 8.284 6.716 15 15 15z" fill="#ca6d58"/><path d="m151.577 194.988h-78.251c-8.284 0-15 6.716-15 15v72.057c0 8.284 6.716 15 15 15h78.251c8.284 0 15-6.716 15-15v-72.057c0-8.284-6.716-15-15-15z" fill="#ffb74b"/></g></svg>