<svg id="Capa_1" enable-background="new 0 0 512 512" height="512" viewBox="0 0 512 512" width="512" xmlns="http://www.w3.org/2000/svg"><g><g><path d="m410.153 62.833h-89.547c-8.284 0-15 6.716-15 15v86.81c0 8.284 6.716 15 15 15h89.547c8.284 0 15-6.716 15-15v-86.81c0-8.284-6.715-15-15-15z" fill="#fff5f5"/><path d="m425.153 164.643v-86.81c0-8.284-6.716-15-15-15h-44.773v116.81h44.774c8.284 0 14.999-6.716 14.999-15z" fill="#eeeced"/><path d="m416.634 225.705h-102.509c-8.284 0-15 6.716-15 15v180.233c0 8.284 6.716 15 15 15h102.508c8.284 0 15-6.716 15-15v-180.233c.001-8.284-6.715-15-14.999-15z" fill="#fce000"/><path d="m416.634 225.705h-51.254v210.233h51.254c8.284 0 15-6.716 15-15v-180.233c0-8.284-6.716-15-15-15z" fill="#fdbf00"/><path d="m431.634 240.705c0-8.284-6.716-15-15-15h-102.509c-8.284 0-15 6.716-15 15v128.59l132.508-76.948v-51.642z" fill="#fa7578"/><path d="m431.634 292.348v-51.643c0-8.284-6.716-15-15-15h-51.254v105.117z" fill="#f9545b"/><path d="m437.308 405.938h-143.856c-8.284 0-15 6.716-15 15v76.062c0 8.284 6.716 15 15 15h143.856c8.284 0 15-6.716 15-15v-76.062c0-8.284-6.716-15-15-15z" fill="#eeeced"/><path d="m437.308 512c8.284 0 15-6.716 15-15v-76.062c0-8.284-6.716-15-15-15h-71.928v106.062z" fill="#ccc2be"/><path d="m437.308 149.643h-143.856c-8.284 0-15 6.716-15 15v76.062c0 8.284 6.716 15 15 15h143.856c8.284 0 15-6.716 15-15v-76.062c0-8.284-6.716-15-15-15z" fill="#eeeced"/><path d="m452.308 240.705v-76.062c0-8.284-6.716-15-15-15h-71.928v106.062h71.928c8.284 0 15-6.716 15-15z" fill="#ccc2be"/><path d="m428.213 0h-125.667c-8.284 0-15 6.716-15 15v62.833c0 8.284 6.716 15 15 15h125.667c8.284 0 15-6.716 15-15v-62.833c0-8.284-6.715-15-15-15z" fill="#fa7578"/><path d="m428.213 0h-62.833v92.833h62.834c8.284 0 15-6.716 15-15v-62.833c-.001-8.284-6.716-15-15.001-15z" fill="#f9545b"/></g><g><path d="m204.912 169.98h-113.743c-8.284 0-15 6.716-15 15v83.05c0 8.284 6.716 15 15 15h113.743c8.284 0 15-6.716 15-15v-83.05c0-8.284-6.716-15-15-15z" fill="#fff5f5"/><path d="m204.912 169.98h-56.872v113.05h56.871c8.284 0 15-6.716 15-15v-83.05c.001-8.284-6.715-15-14.999-15z" fill="#eeeced"/><path d="m221.388 253.031h-146.696c-8.284 0-15 6.716-15 15v228.969c0 8.284 6.716 15 15 15h146.696c8.284 0 15-6.716 15-15v-228.969c0-8.284-6.716-15-15-15z" fill="#eeeced"/><path d="m221.388 512c8.284 0 15-6.716 15-15v-228.969c0-8.284-6.716-15-15-15h-73.348v258.969z" fill="#ccc2be"/><path d="m172.354 432.966v-100.902c0-8.284-6.716-15-15-15h-97.662v130.901h97.662c8.285.001 15-6.715 15-14.999z" fill="#fa7578"/><path d="m157.354 317.064h-9.314v130.901h9.314c8.284 0 15-6.716 15-15v-100.901c0-8.284-6.715-15-15-15z" fill="#f9545b"/><path d="m221.388 91.588h-146.696c-8.284 0-15 6.716-15 15v78.393c0 8.284 6.716 15 15 15h146.696c8.284 0 15-6.716 15-15v-78.393c0-8.284-6.716-15-15-15z" fill="#fa7578"/><path d="m236.388 184.98v-78.393c0-8.284-6.716-15-15-15h-73.348v108.393h73.348c8.284 0 15-6.715 15-15z" fill="#f9545b"/></g></g></svg>