<svg id="Capa_1" enable-background="new 0 0 512 512" height="512" viewBox="0 0 512 512" width="512" xmlns="http://www.w3.org/2000/svg"><g><path d="m328.982 157.631v-19.922c0-8.284-6.716-15-15-15h-115.964c-8.284 0-15 6.716-15 15v19.922c-28.923 12.579-48.283 41.393-48.283 73.654v240.382c0 22.239 18.093 40.333 40.333 40.333h161.864c22.239 0 40.333-18.093 40.333-40.333v-240.382c0-32.261-19.36-61.076-48.283-73.654z" fill="#fff5f5"/><path d="m328.982 157.631v-19.922c0-8.284-6.716-15-15-15h-57.982v389.291h80.932c22.239 0 40.333-18.093 40.333-40.333v-240.382c0-32.261-19.36-61.076-48.283-73.654z" fill="#eee1dd"/><path d="m134.735 231.285h242.529v214.797h-242.529z" fill="#a5e887"/><path d="m256 231.285h121.265v214.797h-121.265z" fill="#00cc76"/><path d="m256 0c-20.678 0-37.5 16.822-37.5 37.5v31.466c0 8.284 6.716 15 15 15h45c8.284 0 15-6.716 15-15v-31.466c0-20.678-16.822-37.5-37.5-37.5z" fill="#59595a"/><path d="m256 0v83.966h22.5c8.284 0 15-6.716 15-15v-31.466c0-20.678-16.822-37.5-37.5-37.5z" fill="#444"/><path d="m308.99 53.966h-105.987c-16.379 0-29.705 14.301-29.705 31.878v36.864c0 8.284 6.716 15 15 15h135.402c8.284 0 15-6.716 15-15v-36.864c.001-17.577-13.327-31.878-29.71-31.878z" fill="#a4e686"/><path d="m338.701 122.708v-36.864c0-17.578-13.328-31.878-29.711-31.878h-52.99v83.743h67.701c8.284-.001 15-6.716 15-15.001z" fill="#00cc76"/><g><path d="m256 394.665c-8.284 0-15-6.716-15-15v-48.217c0-8.284 6.716-15 15-15s15 6.716 15 15v48.217c0 8.284-6.716 15-15 15z" fill="#59595a"/><path d="m256 316.448c8.284 0 15 6.716 15 15v48.217c0 8.284-6.716 15-15 15z" fill="#444"/><path d="m323.751 296.502c-.772-6.977-6.28-12.484-13.257-13.257-6.133-.679-37.404-3.191-54.494 13.414-17.09-16.605-48.358-14.092-54.494-13.414-6.977.773-12.485 6.281-13.257 13.257-.685 6.179-3.237 37.864 13.768 54.869 9.613 9.613 21.121 14.493 32.154 14.493 7.792 0 15.345-2.441 21.829-7.362 6.485 4.922 14.037 7.362 21.83 7.362 11.032 0 22.542-4.881 32.154-14.493 17.004-17.005 14.452-48.69 13.767-54.869z" fill="#00cc76"/><path d="m323.751 296.502c-.772-6.977-6.28-12.484-13.257-13.257-6.133-.679-37.404-3.191-54.494 13.414v61.844c6.485 4.922 14.037 7.362 21.83 7.362 11.032 0 22.542-4.881 32.154-14.493 17.004-17.006 14.452-48.691 13.767-54.87z" fill="#00884f"/></g></g></svg>