<svg id="Capa_1" enable-background="new 0 0 512 512" height="512" viewBox="0 0 512 512" width="512" xmlns="http://www.w3.org/2000/svg"><g><g><path d="m512 185.02c0-24.373-9.117-47.636-25.673-65.505-13.647-14.73-31.325-24.717-50.688-28.818-8.15-39.984-43.589-69.77-85.518-69.77s-77.367 29.786-85.519 69.77c-19.362 4.101-37.041 14.088-50.688 28.818-16.556 17.869-25.673 41.132-25.673 65.505 0 25.646 10.095 49.922 27.979 67.926-1.542 8.263-2.322 16.688-2.322 25.148 0 75.113 61.108 136.221 136.222 136.221 75.112 0 136.221-61.108 136.221-136.221 0-8.461-.779-16.886-2.322-25.149 17.886-18.003 27.981-42.279 27.981-67.925z" fill="#a5e887"/><path d="m512 185.02c0-24.373-9.117-47.636-25.673-65.505-13.647-14.73-31.325-24.717-50.688-28.818-8.15-39.984-43.589-69.77-85.518-69.77 0 0 0 0-.001 0v393.388c75.113 0 136.221-61.108 136.221-136.221 0-8.461-.779-16.886-2.322-25.149 17.886-18.003 27.981-42.279 27.981-67.925z" fill="#00cc76"/><path d="m396.095 228.629c5.717-5.996 5.49-15.49-.505-21.207-5.997-5.717-15.489-5.492-21.208.505l-9.261 9.712v-21.972l30.974-32.484c5.717-5.996 5.49-15.49-.505-21.207-5.997-5.717-15.489-5.492-21.208.505l-9.261 9.712v-30.329c0-8.284-6.716-15-15-15s-15 6.716-15 15v30.329l-9.261-9.712c-5.719-5.997-15.212-6.221-21.208-.505-5.995 5.717-6.222 15.211-.505 21.207l30.974 32.484v21.972l-9.261-9.712c-5.719-5.997-15.212-6.221-21.208-.505-5.995 5.717-6.222 15.211-.505 21.207l30.974 32.484v21.972l-9.261-9.712c-5.719-5.997-15.212-6.221-21.208-.505-5.995 5.717-6.222 15.211-.505 21.207l30.974 32.484v149.513c0 8.284 6.716 15 15 15s15-6.716 15-15v-149.512l30.974-32.484c5.717-5.996 5.49-15.49-.505-21.207-5.997-5.717-15.489-5.492-21.208.505l-9.261 9.712v-21.972z" fill="#00cc76"/><path d="m396.095 228.629c5.717-5.996 5.49-15.49-.505-21.207-5.997-5.717-15.489-5.492-21.208.505l-9.261 9.712v-21.972l30.974-32.484c5.717-5.996 5.49-15.49-.505-21.207-5.997-5.717-15.489-5.492-21.208.505l-9.261 9.712v-30.329c0-8.284-6.716-15-15-15v384.208c8.284 0 15-6.716 15-15v-149.512l30.974-32.484c5.717-5.996 5.49-15.49-.505-21.207-5.997-5.717-15.489-5.492-21.208.505l-9.261 9.712v-21.972z" fill="#00884f"/></g><g><path d="m221.956 96.491c-12.109-22.111-26.292-40.657-41.014-53.634-16.277-14.347-33.302-21.93-49.233-21.93-15.932 0-32.957 7.583-49.233 21.93-14.724 12.976-28.906 31.522-41.016 53.634-26.735 48.818-41.46 109.481-41.46 170.813 0 40.719 10.577 77.861 31.438 110.397 17.521 27.328 38.813 46.413 54.359 60.348 3.085 2.766 5.999 5.377 8.525 7.738 5.567 5.202 8.234 12.608 10.813 19.771 1.853 5.145 3.603 10.004 6.475 14.321 6.482 9.739 15.375 11.193 20.098 11.193s13.616-1.454 20.098-11.193c2.873-4.317 4.623-9.176 6.475-14.321 2.579-7.163 5.246-14.569 10.813-19.771 2.527-2.361 5.441-4.973 8.526-7.738 15.546-13.935 36.837-33.021 54.359-60.348 20.861-32.536 31.438-69.678 31.438-110.397 0-61.332-14.725-121.995-41.461-170.813z" fill="#ffcd00"/><path d="m221.956 96.491c-12.109-22.111-26.292-40.657-41.014-53.634-16.277-14.347-33.302-21.93-49.233-21.93-15.932 0-32.957 7.583-49.233 21.93-14.724 12.976-28.906 31.522-41.016 53.634-20.976 38.302-34.555 83.896-39.433 131.383h259.363c-4.878-47.487-18.457-93.081-39.434-131.383z" fill="#fce000"/><path d="m221.956 96.491c-12.109-22.111-26.292-40.657-41.014-53.634-16.277-14.347-33.302-21.93-49.233-21.93v206.947h129.681c-4.878-47.487-18.457-93.081-39.434-131.383z" fill="#fdbf00"/><path d="m2.027 227.874c-1.34 13.038-2.027 26.218-2.027 39.43 0 40.719 10.577 77.861 31.438 110.397 17.521 27.328 38.813 46.413 54.359 60.348 3.085 2.766 5.999 5.377 8.525 7.738 5.567 5.202 8.234 12.608 10.813 19.771 1.853 5.145 3.603 10.004 6.475 14.321 6.482 9.739 15.375 11.193 20.098 11.193s13.616-1.454 20.098-11.193c2.873-4.317 4.623-9.176 6.475-14.321 2.579-7.163 5.246-14.569 10.813-19.771 2.527-2.361 5.441-4.973 8.526-7.738 15.546-13.935 36.837-33.021 54.359-60.348 20.861-32.536 31.438-69.678 31.438-110.397 0-13.212-.687-26.392-2.027-39.43z" fill="#f0915a"/><path d="m261.39 227.874h-129.682v263.199c4.724 0 13.616-1.454 20.098-11.193 2.873-4.317 4.623-9.176 6.475-14.321 2.579-7.163 5.246-14.569 10.813-19.771 2.527-2.361 5.441-4.973 8.526-7.738 15.546-13.935 36.837-33.021 54.359-60.348 20.861-32.536 31.438-69.678 31.438-110.397 0-13.213-.687-26.393-2.027-39.431z" fill="#c8733c"/><path d="m190.234 337.325c0 8.284 6.716 15 15 15h40.514c4.358-9.671 7.915-19.679 10.666-30h-51.18c-8.284 0-15 6.716-15 15z" fill="#a54f3e"/><path d="m170.402 285.708c0 8.284 6.716 15 15 15h75.523c1.493-9.759 2.315-19.765 2.464-30h-77.987c-8.284 0-15 6.716-15 15z" fill="#a54f3e"/><g fill="#ca6d58"><path d="m59.344 285.708c0-8.284-6.716-15-15-15h-44.316c.149 10.235.971 20.241 2.464 30h41.852c8.284 0 15-6.715 15-15z"/><path d="m94.927 337.325c0-8.284-6.716-15-15-15h-72.923c2.751 10.321 6.308 20.329 10.666 30h62.258c8.283 0 14.999-6.716 14.999-15z"/></g></g></g></svg>