<svg id="Capa_1" enable-background="new 0 0 512.248 512.248" height="512" viewBox="0 0 512.248 512.248" width="512" xmlns="http://www.w3.org/2000/svg"><g><g><path d="m379.618 179.556c-8.284 0-15-6.716-15-15v-128.586c0-8.284 6.716-15 15-15s15 6.716 15 15v128.585c0 8.285-6.716 15.001-15 15.001z" fill="#fce000"/><path d="m379.618 20.97v158.585c8.284 0 15-6.716 15-15v-128.585c0-8.284-6.716-15-15-15z" fill="#fdbf00"/><path d="m493.049 201.514c-2.828-2.947-6.737-4.614-10.822-4.614h-205.217c-8.284 0-15 6.716-15 15v264.378c0 8.284 6.716 15 15 15h194.944c8.044 0 14.656-6.345 14.987-14.383l10.272-264.378c.169-4.081-1.335-8.056-4.164-11.003z" fill="#fa7578"/><path d="m493.049 201.514c-2.828-2.947-6.737-4.614-10.822-4.614h-102.609v294.378h92.336c8.044 0 14.656-6.345 14.987-14.383l10.272-264.378c.169-4.081-1.335-8.056-4.164-11.003z" fill="#f9545b"/><path d="m497.248 149.556h-235.26c-8.284 0-15 6.716-15 15v47.344c0 8.284 6.716 15 15 15h235.26c8.284 0 15-6.716 15-15v-47.344c0-8.285-6.716-15-15-15z" fill="#fff5f5"/><path d="m497.248 149.556h-117.63v77.344h117.63c8.284 0 15-6.716 15-15v-47.344c0-8.285-6.716-15-15-15z" fill="#eee1dd"/></g><g><path d="m315.857 266.21h-248.883c-36.93 0-66.974 30.045-66.974 66.975v1.408c0 36.93 30.044 66.974 66.974 66.974h248.884c36.93 0 66.975-30.044 66.975-66.974v-1.408c-.001-36.93-30.046-66.975-66.976-66.975z" fill="#ca6d58"/><path d="m315.857 266.21h-124.441v135.356h124.442c36.93 0 66.975-30.044 66.975-66.974v-1.408c-.001-36.929-30.046-66.974-66.976-66.974z" fill="#a54f3e"/><path d="m270.391 276.462c-2.043-6.123-7.773-10.252-14.229-10.252h-129.493c-5.775 0-11.037 3.315-13.53 8.524s-1.774 11.387 1.848 15.884l48.805 60.599c2.958 3.672 7.302 5.592 11.692 5.592 3.139 0 6.302-.981 8.998-3.006l80.688-60.599c5.161-3.875 7.264-10.619 5.221-16.742z" fill="#fce000"/><path d="m270.391 276.462c-2.043-6.123-7.773-10.252-14.229-10.252h-64.747v82.385l73.754-55.391c5.162-3.875 7.265-10.619 5.222-16.742z" fill="#fdbf00"/><path d="m344.128 371.567h-305.425c-8.284 0-15 6.716-15 15v21.869c0 45.679 37.163 82.842 82.843 82.842h169.739c45.68 0 82.843-37.163 82.843-82.842v-21.869c0-8.284-6.716-15-15-15z" fill="#f0915a"/><path d="m344.128 371.567h-152.712v119.711h84.87c45.68 0 82.843-37.163 82.843-82.842v-21.869c-.001-8.284-6.717-15-15.001-15z" fill="#c8733c"/><path d="m38.455 296.21h305.921c8.284 0 15-6.716 15-15 0-31.94-18.323-61.507-51.594-83.254-31.302-20.461-72.628-31.729-116.366-31.729s-85.065 11.268-116.367 31.729c-33.271 21.748-51.594 51.314-51.594 83.254 0 8.285 6.716 15 15 15z" fill="#f0915a"/><path d="m359.376 281.21c0-31.94-18.323-61.507-51.594-83.254-31.302-20.461-72.628-31.729-116.366-31.729v129.983h152.96c8.284 0 15-6.715 15-15z" fill="#c8733c"/></g></g></svg>