<svg id="Capa_1" enable-background="new 0 0 512 512" height="512" viewBox="0 0 512 512" width="512" xmlns="http://www.w3.org/2000/svg"><g><path d="m387.169 281.929c-8.284 0-15 6.716-15 15v36.238h-254.166v-36.238c0-8.284-6.716-15-15-15s-15 6.716-15 15v51.238c0 8.284 6.716 15 15 15h127.083v74.324c0 8.284 6.716 15 15 15s15-6.716 15-15v-74.324h127.083c8.284 0 15-6.716 15-15v-51.238c0-8.284-6.716-15-15-15z" fill="#fff5f5"/><path d="m387.169 281.929c-8.284 0-15 6.716-15 15v36.238h-127.761v119.29c.226.01.449.034.678.034 8.284 0 15-6.716 15-15v-74.324h127.083c8.284 0 15-6.716 15-15v-51.238c0-8.284-6.716-15-15-15z" fill="#eee1dd"/><path d="m332.338 493.996c-8.469-41.433-45.35-71.505-87.694-71.505s-79.226 30.072-87.694 71.505c-.902 4.414.228 9 3.076 12.489s7.115 5.515 11.62 5.515h145.996c4.505 0 8.771-2.025 11.62-5.515s3.978-8.075 3.076-12.489z" fill="#59595a"/><path d="m332.338 493.996c-8.469-41.433-45.35-71.505-87.694-71.505-.079 0-.157.005-.236.005v89.504h73.234c4.505 0 8.771-2.025 11.62-5.515s3.978-8.075 3.076-12.489z" fill="#444"/><path d="m244.407 307.779c-22.14 0-40.151 18.012-40.151 40.152s18.012 40.152 40.151 40.152 40.152-18.012 40.152-40.152-18.012-40.152-40.152-40.152z" fill="#4fdae1"/><path d="m284.56 347.931c0-22.139-18.012-40.152-40.152-40.152v80.304c22.139-.001 40.152-18.013 40.152-40.152z" fill="#16aac8"/><g><path d="m444.583 149.851c-2.506-4.884-7.473-7.919-12.964-7.919h-88.901c-5.491 0-10.458 3.035-12.964 7.919-2.508 4.89-2.072 10.702 1.136 15.167 20.625 28.704 21.979 59.89 21.604 71.966-.124 3.973 1.332 7.733 4.099 10.587 2.77 2.857 6.488 4.431 10.471 4.431h40.213c3.982 0 7.701-1.574 10.472-4.433 2.767-2.854 4.222-6.614 4.097-10.585-.375-12.076.979-43.262 21.604-71.966 3.205-4.466 3.641-10.277 1.133-15.167z" fill="#00cc76"/><path d="m444.583 149.851c-2.506-4.884-7.473-7.919-12.964-7.919h-44.451v110.07h20.107c3.982 0 7.701-1.574 10.472-4.433 2.767-2.854 4.222-6.614 4.097-10.585-.375-12.076.979-43.262 21.604-71.966 3.207-4.466 3.643-10.277 1.135-15.167z" fill="#00884f"/><path d="m487.6 93.713c.413-2.67.62-5.378.62-8.113 0-28.912-23.295-52.486-52.102-52.938-7.966-19.367-26.946-32.662-48.949-32.662s-40.984 13.295-48.95 32.662c-28.807.452-52.102 24.025-52.102 52.938 0 2.735.207 5.444.62 8.114-9.562 8.66-15.169 21.005-15.169 34.36 0 25.607 20.833 46.439 46.439 46.439 10.84 0 21.11-3.799 29.231-10.376 11.054 9.166 25.05 14.321 39.93 14.321s28.876-5.155 39.929-14.321c8.121 6.577 18.392 10.376 29.232 10.376 25.606 0 46.439-20.833 46.439-46.439.002-13.356-5.606-25.701-15.168-34.361z" fill="#a5e887"/><path d="m427.098 164.137c8.121 6.577 18.392 10.376 29.232 10.376 25.606 0 46.439-20.833 46.439-46.439 0-13.355-5.607-25.701-15.17-34.36.413-2.67.62-5.378.62-8.113 0-28.912-23.295-52.486-52.102-52.938-7.965-19.368-26.945-32.663-48.948-32.663v178.458c14.88 0 28.876-5.155 39.929-14.321z" fill="#00cc76"/><path d="m459.817 249.908c-2.85-3.426-7.075-5.407-11.531-5.407h-122.235c-4.456 0-8.682 1.981-11.531 5.407s-4.029 7.941-3.219 12.323l6.926 37.428c1.316 7.111 7.519 12.271 14.75 12.271h108.385c7.231 0 13.434-5.16 14.75-12.271l6.925-37.428c.81-4.382-.37-8.898-3.22-12.323z" fill="#4fdae1"/><path d="m441.361 311.929c7.231 0 13.434-5.16 14.75-12.271l6.925-37.428c.811-4.382-.369-8.897-3.219-12.322-2.85-3.426-7.075-5.407-11.531-5.407h-61.118v67.428z" fill="#16aac8"/></g><g><path d="m165.509 107.269c-2.796-4.088-7.429-6.533-12.382-6.533h-100.249c-4.953 0-9.586 2.445-12.382 6.533s-3.393 9.293-1.597 13.908l50.125 128.766c2.244 5.763 7.794 9.559 13.979 9.559s11.735-3.795 13.979-9.559l50.124-128.766c1.795-4.615 1.199-9.82-1.597-13.908z" fill="#f0915a"/><path d="m165.509 107.269c-2.796-4.088-7.429-6.533-12.382-6.533h-50.125v158.766c6.185 0 11.736-3.795 13.979-9.559l50.124-128.766c1.796-4.615 1.2-9.82-1.596-13.908z" fill="#c8733c"/><path d="m180.807 75.095c-1.456-41.657-35.799-75.095-77.804-75.095s-76.348 33.438-77.804 75.094c-10.014 9.01-15.969 22.022-15.969 35.705 0 26.438 21.51 47.948 47.948 47.948 8.337 0 16.484-2.18 23.653-6.249 7.161 2.129 14.588 3.205 22.171 3.205s15.009-1.075 22.17-3.205c7.169 4.068 15.316 6.249 23.654 6.249 26.438 0 47.947-21.509 47.947-47.948.001-13.683-5.952-26.694-15.966-35.704z" fill="#fa7578"/><path d="m125.173 152.499c7.169 4.068 15.316 6.249 23.654 6.249 26.438 0 47.947-21.509 47.947-47.948 0-13.684-5.953-26.694-15.968-35.704-1.455-41.658-35.798-75.096-77.803-75.096v155.703c7.583 0 15.009-1.075 22.17-3.204z" fill="#f9545b"/><path d="m164.12 244.501h-122.235c-4.456 0-8.682 1.981-11.531 5.407s-4.029 7.941-3.219 12.323l6.926 37.428c1.316 7.111 7.519 12.271 14.75 12.271h108.385c7.231 0 13.434-5.16 14.75-12.271l6.925-37.428c.811-4.382-.369-8.897-3.219-12.322-2.85-3.427-7.076-5.408-11.532-5.408z" fill="#4fdae1"/><path d="m157.195 311.929c7.231 0 13.434-5.16 14.75-12.271l6.925-37.428c.811-4.382-.369-8.897-3.219-12.322-2.85-3.426-7.075-5.407-11.531-5.407h-61.118v67.428z" fill="#16aac8"/></g></g></svg>