<svg id="Capa_1" enable-background="new 0 0 512 512" height="512" viewBox="0 0 512 512" width="512" xmlns="http://www.w3.org/2000/svg"><g><path d="m336.085 90.438v-30.438c0-8.284-6.716-15-15-15h-212.045c-8.284 0-15 6.716-15 15v30.438c-25.233 13.784-41.572 40.687-41.572 69.896v306.624c0 24.836 20.206 45.041 45.041 45.041h235.107c24.836 0 45.041-20.205 45.041-45.041v-306.623c0-29.21-16.339-56.112-41.572-69.897z" fill="#fff5f5"/><path d="m336.085 90.438v-30.438c0-8.284-6.716-15-15-15h-106.022v467h117.553c24.836 0 45.041-20.205 45.041-45.041v-306.624c0-29.21-16.339-56.112-41.572-69.897z" fill="#eeeced"/><path d="m343.406 0h-256.686c-8.284 0-15 6.716-15 15v45c0 8.284 6.716 15 15 15h256.686c8.284 0 15-6.716 15-15v-45c0-8.284-6.716-15-15-15z" fill="#ffb74b"/><path d="m52.426 175.933h325.189v183.504h-325.189z" fill="#fce000"/><path d="m215.021 226.429c-23.454 0-42.534 19.08-42.534 42.533s19.081 42.534 42.534 42.534 42.534-19.081 42.534-42.534-19.081-42.533-42.534-42.533z" fill="#ffb74b"/><path d="m215.063 175.933h162.552v183.504h-162.552z" fill="#fdbf00"/><g fill="#f85"><path d="m343.406 0h-128.343v75h128.343c8.284 0 15-6.716 15-15v-45c0-8.284-6.716-15-15-15z"/><path d="m257.554 268.962c0-23.439-19.058-42.509-42.491-42.532v85.065c23.433-.023 42.491-19.094 42.491-42.533z"/><ellipse cx="394.302" cy="446.518" rx="65.273" ry="65.272" transform="matrix(.987 -.16 .16 .987 -66.433 68.926)"/></g><ellipse cx="331.013" cy="446.518" fill="#fce000" rx="65.273" ry="65.272" transform="matrix(.987 -.16 .16 .987 -67.25 58.788)"/><path d="m365.306 391.012-89.799 89.799c5.335 8.603 12.61 15.878 21.213 21.213l89.799-89.799c-5.335-8.604-12.61-15.879-21.213-21.213z" fill="#ffb74b"/></g></svg>