<svg id="Capa_1" enable-background="new 0 0 512 512" height="512" viewBox="0 0 512 512" width="512" xmlns="http://www.w3.org/2000/svg"><g><g><path d="m229.23 7.5h-45.514c-8.129 0-14.743 6.613-14.743 14.743v64.156c0 8.13 6.614 14.743 14.743 14.743h45.514c8.129 0 14.743-6.613 14.743-14.743v-64.156c.001-8.13-6.613-14.743-14.743-14.743z" fill="#fff5f5"/><path d="m229.23 7.5h-45.514c-.05 0-.098.007-.148.008v93.628c.05 0 .098.008.148.008h45.514c8.129 0 14.743-6.613 14.743-14.743v-64.158c.001-8.13-6.613-14.743-14.743-14.743z" fill="#eee1dd"/><path d="m251.214 0h-67.645v30h67.645c8.284 0 15-6.716 15-15s-6.716-15-15-15z" fill="#ccc2be" opacity="0"/><path d="m115.923 99.016c-8.284 0-15-6.716-15-15v-45.25c0-21.375 17.39-38.766 38.765-38.766h111.525c8.284 0 15 6.716 15 15s-6.716 15-15 15h-111.525c-4.833 0-8.765 3.933-8.765 8.766v45.25c0 8.284-6.716 15-15 15z" fill="#eee1dd"/><path d="m251.214 0h-67.645v30h67.645c8.284 0 15-6.716 15-15s-6.716-15-15-15z" fill="#ccc2be"/><path d="m322.66 173.462c-2.831-2.967-6.752-4.646-10.853-4.646h-256.477c-4.101 0-8.022 1.679-10.853 4.646s-4.323 6.964-4.13 11.06l14.74 313.184c.376 8 6.973 14.294 14.983 14.294h226.997c8.01 0 14.607-6.294 14.983-14.295l14.74-313.184c.193-4.095-1.299-8.092-4.13-11.059z" fill="#fff5f5"/><path d="m297.067 512c8.01 0 14.607-6.294 14.983-14.295l14.74-313.184c.193-4.096-1.3-8.093-4.13-11.06s-6.752-4.646-10.853-4.646h-128.238v343.185z" fill="#eee1dd"/><path d="m44.23 267.033 10.856 230.672c.377 8.001 6.974 14.295 14.984 14.295h226.997c8.01 0 14.607-6.294 14.983-14.295l10.857-230.672z" fill="#f0915a"/><path d="m183.569 512h113.498c8.01 0 14.607-6.294 14.983-14.295l10.857-230.672h-139.338z" fill="#c8733c"/><path d="m322.038 52.673c-3.042-2.838-7.133-4.286-11.276-3.994l-256.477 17.919c-7.859.55-13.955 7.085-13.955 14.964v43.295c0 8.284 6.716 15 15 15h256.477c8.284 0 15-6.716 15-15v-61.214c0-4.161-1.727-8.133-4.769-10.97z" fill="#fce000"/><path d="m326.807 124.856v-61.213c0-4.16-1.728-8.133-4.77-10.97-3.042-2.838-7.133-4.286-11.276-3.994l-127.193 8.886v82.291h128.239c8.284 0 15-6.715 15-15z" fill="#fdbf00"/><path d="m333.599 109.856h-300.061c-8.284 0-15 6.716-15 15v58.96c0 8.284 6.716 15 15 15h300.061c8.284 0 15-6.716 15-15v-58.96c0-8.284-6.716-15-15-15z" fill="#ffb74b"/><path d="m333.599 109.856h-150.03v88.96h150.031c8.284 0 15-6.716 15-15v-58.96c-.001-8.284-6.717-15-15.001-15z" fill="#f85"/></g><g><path d="m310.339 341.523c-30.974 0-56.173 29.112-56.173 64.896 0 8.284 6.716 15 15 15h82.346c8.284 0 15-6.716 15-15 0-35.783-25.199-64.896-56.173-64.896z" fill="#a54f3e"/><path d="m478.462 445.235h-108.422c-8.284 0-15-6.716-15-15s6.716-15 15-15h108.422c8.284 0 15 6.716 15 15s-6.716 15-15 15z" fill="#f85"/><path d="m381.382 392.486c-2.849-3.292-6.988-5.184-11.342-5.184h-119.401c-4.354 0-8.493 1.892-11.342 5.184s-4.127 7.659-3.503 11.968l13.724 94.697c1.069 7.376 7.392 12.849 14.845 12.849h91.953c7.453 0 13.776-5.473 14.845-12.849l13.724-94.697c.624-4.308-.654-8.676-3.503-11.968z" fill="#ffb74b"/></g></g></svg>