<svg id="Capa_1" enable-background="new 0 0 512 512" height="512" viewBox="0 0 512 512" width="512" xmlns="http://www.w3.org/2000/svg"><g><path d="m430.079 57.265c-1.317-7.109-7.518-12.265-14.748-12.265h-318.662c-7.229 0-13.43 5.156-14.749 12.265-.643 3.473-15.776 86.361-15.776 198.735s15.132 195.262 15.776 198.735c1.319 7.109 7.52 12.265 14.749 12.265h318.662c7.229 0 13.431-5.156 14.748-12.265.645-3.474 15.776-86.361 15.776-198.735s-15.131-195.262-15.776-198.735z" fill="#fff5f5"/><path d="m430.079 57.265c-1.317-7.109-7.518-12.265-14.748-12.265h-159.331v422h159.331c7.229 0 13.431-5.156 14.748-12.265.645-3.474 15.776-86.361 15.776-198.735s-15.131-195.262-15.776-198.735z" fill="#eee1dd"/><path d="m443.941 186.062h-375.882c-1.168 21.497-1.915 44.988-1.915 69.938s.747 48.442 1.915 69.938h375.882c1.168-21.497 1.915-44.988 1.915-69.938s-.747-48.442-1.915-69.938z" fill="#ffb74b"/><path d="m445.856 256c0-24.95-.747-48.442-1.915-69.938h-187.941v139.877h187.941c1.168-21.497 1.915-44.989 1.915-69.939z" fill="#f85"/><ellipse cx="256" cy="256" fill="#4fdae1" rx="137.597" ry="137.597" transform="matrix(.987 -.16 .16 .987 -37.701 44.312)"/><path d="m393.597 256c0-75.871-61.726-137.597-137.597-137.597v275.193c75.871.001 137.597-61.725 137.597-137.596z" fill="#16aac8"/><path d="m332.428 288.438-63.438-109.876c-2.68-4.641-7.631-7.5-12.99-7.5s-10.311 2.859-12.99 7.5l-63.437 109.877c-2.68 4.641-2.68 10.359 0 15 2.679 4.641 7.631 7.5 12.99 7.5h126.875c5.359 0 10.311-2.859 12.99-7.5s2.68-10.36 0-15.001z" fill="#fce000"/><path d="m332.428 288.438-63.438-109.876c-2.68-4.641-7.631-7.5-12.99-7.5v139.877h63.438c5.359 0 10.311-2.859 12.99-7.5s2.68-10.36 0-15.001z" fill="#fdbf00"/><g><path d="m429.759 448.746c-1.524-6.863-7.612-11.746-14.643-11.746h-318.232c-7.03 0-13.118 4.883-14.643 11.746l-10 45c-.987 4.441.096 9.091 2.942 12.64 2.847 3.549 7.151 5.614 11.701 5.614h338.233c4.55 0 8.854-2.065 11.7-5.614 2.848-3.549 3.93-8.198 2.942-12.64z" fill="#80e2ff"/><path d="m429.759 448.746c-1.524-6.863-7.612-11.746-14.643-11.746h-318.232c-7.03 0-13.118 4.883-14.643 11.746l-10 45c-.987 4.441.096 9.091 2.942 12.64 2.847 3.549 7.151 5.614 11.701 5.614h338.233c4.55 0 8.854-2.065 11.7-5.614 2.848-3.549 3.93-8.198 2.942-12.64z" fill="#4fdae1"/><g fill="#16aac8"><path d="m439.759 493.746-10-45c-1.524-6.863-7.612-11.746-14.643-11.746h-159.116v75h169.117c4.55 0 8.854-2.065 11.7-5.614 2.848-3.549 3.93-8.198 2.942-12.64z"/><path d="m217.467 437h77.066v75h-77.066z"/><path d="m96.884 437c-7.03 0-13.118 4.883-14.643 11.746l-10 45c-.987 4.441.096 9.091 2.942 12.64 2.847 3.549 7.151 5.614 11.701 5.614h53.518v-75z"/></g><path d="m429.759 448.746c-1.524-6.863-7.612-11.746-14.643-11.746h-43.518v75h53.518c4.55 0 8.854-2.065 11.7-5.614 2.848-3.549 3.93-8.198 2.942-12.64z" fill="#157aa8"/><path d="m256 437h38.533v75h-38.533z" fill="#157aa8"/></g><g><path d="m82.241 63.254c1.525 6.863 7.613 11.746 14.643 11.746h318.233c7.03 0 13.118-4.883 14.643-11.746l10-45c.987-4.441-.095-9.091-2.942-12.64-2.848-3.549-7.151-5.614-11.701-5.614h-338.233c-4.55 0-8.854 2.065-11.701 5.614s-3.929 8.198-2.942 12.64z" fill="#4fdae1"/><g fill="#16aac8"><path d="m436.817 5.614c-2.847-3.549-7.15-5.614-11.7-5.614h-169.117v75h159.116c7.03 0 13.118-4.883 14.643-11.746l10-45c.988-4.441-.094-9.091-2.942-12.64z"/><path d="m86.884 0c-4.55 0-8.854 2.065-11.701 5.614s-3.929 8.198-2.942 12.64l10 45c1.525 6.863 7.613 11.746 14.643 11.746h43.518v-75z"/><path d="m217.467 0h77.066v75h-77.066z"/></g><path d="m415.117 75c7.03 0 13.118-4.883 14.643-11.746l10-45c.987-4.441-.095-9.091-2.942-12.64-2.848-3.549-7.151-5.614-11.701-5.614h-53.518v75z" fill="#157aa8"/><path d="m256 0h38.533v75h-38.533z" fill="#157aa8"/></g></g></svg>