<svg id="Capa_1" enable-background="new 0 0 512 512" height="512" viewBox="0 0 512 512" width="512" xmlns="http://www.w3.org/2000/svg"><g><g><path d="m324.11 0h-136.22c-8.284 0-15 6.716-15 15v146.478c0 8.284 6.716 15 15 15h136.22c8.284 0 15-6.716 15-15v-146.478c0-8.284-6.715-15-15-15z" fill="#fce000"/><path d="m339.11 161.478v-146.478c0-8.284-6.716-15-15-15h-68.11v176.478h68.11c8.285 0 15-6.716 15-15z" fill="#fdbf00"/><g fill="#f0915a"><circle cx="207.357" cy="47.789" r="13.726"/><circle cx="217.083" cy="100.475" r="13.726"/><circle cx="256" cy="61.515" r="13.726"/></g><path d="m256 47.789v27.452c7.581 0 13.726-6.145 13.726-13.726s-6.145-13.726-13.726-13.726z" fill="#c8733c"/><path d="m339.255 146.478h-166.51c-8.284 0-15 6.716-15 15v271.672c0 8.284 6.716 15 15 15h166.51c8.284 0 15-6.716 15-15v-271.672c0-8.285-6.716-15-15-15z" fill="#fff5f5"/><path d="m339.255 146.478h-83.255v301.672h83.255c8.284 0 15-6.716 15-15v-271.672c0-8.285-6.716-15-15-15z" fill="#eee1dd"/><path d="m348.964 150.055c-2.617-2.227-6.003-3.578-9.709-3.578h-166.51c-5.194 0-9.77 2.642-12.462 6.653 27.973 18.735 83.895 56.19 107.571 72.047 6.266 4.197 14.682 3.026 19.566-2.72z" fill="#eee1dd"/><path d="m339.255 146.478h-83.255v70.761c4.479 3 8.499 5.692 11.854 7.939 6.266 4.197 14.682 3.026 19.566-2.72l61.545-72.403c-2.618-2.227-6.004-3.577-9.71-3.577z" fill="#ccc2be"/><path d="m368.857 493.569-15-63.85c-1.593-6.778-7.64-11.569-14.603-11.569h-83.254v93.85h98.255c4.582 0 8.912-2.094 11.757-5.685s3.893-8.286 2.845-12.746z" fill="#fe9e22"/><path d="m368.857 493.569-15-63.85c-1.593-6.778-7.64-11.569-14.603-11.569h-166.51c-6.963 0-13.01 4.791-14.603 11.569l-15 63.85c-1.048 4.46 0 9.154 2.846 12.746 2.845 3.591 7.175 5.685 11.757 5.685h196.51c4.582 0 8.912-2.094 11.757-5.685 2.846-3.591 3.894-8.286 2.846-12.746z" fill="#ffb74b"/><path d="m368.857 493.569-15-63.85c-1.593-6.778-7.64-11.569-14.603-11.569h-83.254v93.85h98.255c4.582 0 8.912-2.094 11.757-5.685s3.893-8.286 2.845-12.746z" fill="#f85"/><path d="m354.255 260.185-196.51 69.63v60l196.51-69.63z" fill="#ffb74b"/><path d="m354.255 260.185-98.255 34.815v60l98.255-34.815z" fill="#f85"/></g><path d="m450.052 146.478h-8.161v-8.161c0-8.284-6.716-15-15-15s-15 6.716-15 15v8.161h-8.161c-8.284 0-15 6.716-15 15s6.716 15 15 15h8.161v8.161c0 8.284 6.716 15 15 15s15-6.716 15-15v-8.161h8.161c8.284 0 15-6.716 15-15s-6.716-15-15-15z" fill="#fdbf00"/><path d="m108.271 146.478h-8.161v-8.161c0-8.284-6.716-15-15-15s-15 6.716-15 15v8.161h-8.161c-8.284 0-15 6.716-15 15s6.716 15 15 15h8.161v8.161c0 8.284 6.716 15 15 15s15-6.716 15-15v-8.161h8.161c8.284 0 15-6.716 15-15s-6.716-15-15-15z" fill="#fce000"/></g></svg>