<svg id="Capa_1" enable-background="new 0 0 512 512" height="512" viewBox="0 0 512 512" width="512" xmlns="http://www.w3.org/2000/svg"><g><path d="m342.195 46.76h-172.39c-46.029 0-83.478 37.448-83.478 83.479v327.681c0 29.82 24.26 54.08 54.08 54.08h231.186c29.82 0 54.08-24.26 54.08-54.08v-327.682c0-46.03-37.448-83.478-83.478-83.478z" fill="#f0915a"/><path d="m342.195 46.76h-86.195v465.24h115.593c29.82 0 54.08-24.26 54.08-54.08v-327.682c0-46.03-37.448-83.478-83.478-83.478z" fill="#c8733c"/><g><path d="m86.327 130.238h339.346v312.787h-339.346z" fill="#4fdae1"/><path d="m256 130.238h169.673v312.787h-169.673z" fill="#16aac8"/></g><g><path d="m303.913 300.162c-13.874-3.479-24.976.204-33.894 3.163-4.933 1.637-9.192 3.05-13.26 3.101-4.521.079-9.011-1.453-14.195-3.203-9.521-3.214-22.563-7.613-38.671-1.323-18.898 7.381-30.676 24.711-30.801 45.276-.001.058-.001.115-.001.174v.077s0 .052 0 .077c0 .059 0 .116.001.174.125 20.565 11.902 37.896 30.802 45.276 5.968 2.33 11.512 3.193 16.614 3.193 8.671-.001 16.062-2.494 22.056-4.517 5.184-1.749 9.624-3.232 14.197-3.203 4.066.051 8.326 1.464 13.259 3.101 8.919 2.959 20.019 6.64 33.893 3.163 21.267-5.334 35.003-23.888 34.995-47.26.008-23.381-13.728-41.935-34.995-47.269z" fill="#f0915a"/><path d="m256.762 388.428c4.066.051 8.326 1.464 13.259 3.101 8.919 2.959 20.019 6.64 33.893 3.163 21.267-5.334 35.003-23.888 34.995-47.26.008-23.382-13.729-41.936-34.995-47.27-13.874-3.479-24.976.204-33.894 3.163-4.933 1.637-9.192 3.05-13.26 3.101-.253.004-.507-.014-.76-.019v82.047c.254-.008.507-.028.762-.026z" fill="#c8733c"/><path d="m331.637 261.653h-151.274c-8.284 0-15-6.716-15-15s6.716-15 15-15h151.273c8.284 0 15 6.716 15 15s-6.715 15-14.999 15z" fill="#fce000"/><path d="m307.208 207.116h-102.416c-8.284 0-15-6.716-15-15s6.716-15 15-15h102.416c8.284 0 15 6.716 15 15s-6.716 15-15 15z" fill="#fce000"/><g fill="#fdbf00"><path d="m346.637 246.653c0-8.284-6.716-15-15-15h-75.637v30h75.637c8.284 0 15-6.715 15-15z"/><path d="m322.208 192.116c0-8.284-6.716-15-15-15h-51.208v30h51.208c8.284 0 15-6.716 15-15z"/></g></g><path d="m383.669 0h-255.858c-13.076 0-23.715 10.639-23.715 23.715v29.33c0 13.076 10.639 23.715 23.715 23.715h255.858c13.076 0 23.715-10.639 23.715-23.715v-29.33c0-13.076-10.639-23.715-23.715-23.715z" fill="#16aac8"/><path d="m383.669 0h-127.669v76.76h127.669c13.076 0 23.715-10.639 23.715-23.715v-29.33c0-13.076-10.639-23.715-23.715-23.715z" fill="#16aac8"/><path d="m172.114 0h83.886v76.76h-83.886z" fill="#4fdae1"/><path d="m383.669 0h-42.915v76.76h42.915c13.076 0 23.715-10.639 23.715-23.715v-29.33c0-13.076-10.639-23.715-23.715-23.715z" fill="#157aa8"/></g></svg>