<svg id="Capa_1" enable-background="new 0 0 512 512" height="512" viewBox="0 0 512 512" width="512" xmlns="http://www.w3.org/2000/svg"><g><g><path d="m256 77.944c-8.284 0-15-6.716-15-15v-36.424c0-8.284 6.716-15 15-15s15 6.716 15 15v36.425c0 8.284-6.716 14.999-15 14.999z" fill="#fab991"/><path d="m271 62.944v-36.424c0-8.284-6.716-15-15-15v66.425c8.284-.001 15-6.716 15-15.001z" fill="#f0915a"/><circle cx="256" cy="145.191" fill="#fa7578" r="97.246"/><path d="m353.246 145.191c0-53.622-43.625-97.246-97.246-97.246v194.492c53.622 0 97.246-43.624 97.246-97.246z" fill="#f9545b"/><path d="m283 202.437c-8.284 0-15-6.716-15-15s6.716-15 15-15c6.752 0 12.246-5.493 12.246-12.246 0-8.284 6.716-15 15-15s15 6.716 15 15c0 23.295-18.951 42.246-42.246 42.246z" fill="#fd9d8c"/></g><g><path d="m427.171 255.437h-342.342c-8.284 0-15 6.716-15 15v65c0 8.284 6.716 15 15 15h342.342c8.284 0 15-6.716 15-15v-65c0-8.285-6.716-15-15-15z" fill="#eee1dd"/><path d="m427.171 255.437h-171.171v95h171.171c8.284 0 15-6.716 15-15v-65c0-8.285-6.716-15-15-15z" fill="#ccbeb9"/><path d="m458.746 220.437h-405.492c-8.284 0-15 6.716-15 15v35c0 8.284 6.716 15 15 15h405.492c8.284 0 15-6.716 15-15v-35c0-8.285-6.716-15-15-15z" fill="#fff5f5"/><path d="m473.746 270.437v-35c0-8.284-6.716-15-15-15h-202.746v65h202.746c8.284 0 15-6.716 15-15z" fill="#eeeced"/><path d="m511.535 481.775-38.254-150.044c-1.694-6.645-7.678-11.294-14.535-11.294h-405.492c-6.857 0-12.841 4.649-14.535 11.294l-38.254 150.044c-1.144 4.488-.151 9.253 2.69 12.91 2.842 3.656 7.213 5.796 11.845 5.796h482c4.631 0 9.003-2.14 11.845-5.796 2.841-3.658 3.834-8.422 2.69-12.91z" fill="#fff5f5"/><path d="m511.535 481.775-38.254-150.044c-1.694-6.645-7.678-11.294-14.535-11.294h-202.746v180.044h241c4.631 0 9.003-2.14 11.845-5.796 2.841-3.658 3.834-8.422 2.69-12.91z" fill="#eeeced"/><g fill="#fa7578"><circle cx="427.197" cy="413.269" r="13.726"/><circle cx="387.197" cy="413.269" r="13.726"/><circle cx="347.197" cy="413.269" r="13.726"/></g><path d="m285.955 370.437h-199.877c-8.284 0-15 6.716-15 15v50.044c0 8.284 6.716 15 15 15h199.877c8.284 0 15-6.716 15-15v-50.044c0-8.285-6.716-15-15-15z" fill="#4fdae1"/><path d="m285.955 450.481c8.284 0 15-6.716 15-15v-50.044c0-8.284-6.716-15-15-15h-29.955v80.044z" fill="#16aac8"/></g></g></svg>