<svg id="Capa_1" enable-background="new 0 0 512 512" height="512" viewBox="0 0 512 512" width="512" xmlns="http://www.w3.org/2000/svg"><g><g><path d="m460.665 314.401h-42.098c-8.284 0-15 6.716-15 15v146.55c0 19.877 16.172 36.049 36.049 36.049s36.049-16.172 36.049-36.049v-146.55c0-8.284-6.716-15-15-15z" fill="#ca6d58"/><path d="m460.665 314.401h-21.049v197.599c19.877 0 36.049-16.172 36.049-36.049v-146.55c0-8.284-6.716-15-15-15z" fill="#a54f3e"/><path d="m418.645 37.748c-8.292-.007-15.077 6.708-15.077 15v291.653h93.432c8.284 0 15-6.716 15-15v-198.22c0-51.493-41.872-93.391-93.355-93.433z" fill="#fff5f5"/><path d="m439.616 40.14v304.261h57.384c8.284 0 15-6.716 15-15v-198.22c0-44.283-30.968-81.469-72.384-91.041z" fill="#eeeced"/></g><g><path d="m355.375 0h-340.375c-8.284 0-15 6.716-15 15v482c0 8.284 6.716 15 15 15h340.375c8.284 0 15-6.716 15-15v-482c0-8.284-6.716-15-15-15zm-90.485 76.656c0 13.807-11.193 25-25 25h-109.405c-13.807 0-25-11.193-25-25 0-13.807 11.193-25 25-25h109.405c13.807 0 25 11.193 25 25z" fill="#fff5f5"/><path d="m355.375 0h-170.188v51.656h54.702c13.807 0 25 11.193 25 25 0 13.807-11.193 25-25 25h-54.702v410.344h170.188c8.284 0 15-6.716 15-15v-482c0-8.284-6.716-15-15-15z" fill="#eeeced"/><g><circle cx="260.301" cy="216.828" fill="#00884f" r="54.887"/><ellipse cx="260.301" cy="216.828" fill="#00cc76" rx="24.887" ry="24.887" transform="matrix(.383 -.924 .924 .383 -39.635 374.338)"/><circle cx="260.301" cy="276.828" fill="#00884f" r="54.887"/><ellipse cx="260.301" cy="276.828" fill="#00cc76" rx="24.887" ry="24.887" transform="matrix(.383 -.924 .924 .383 -95.068 411.377)"/><circle cx="260.301" cy="336.828" fill="#00884f" r="54.887"/><ellipse cx="260.301" cy="336.828" fill="#00cc76" rx="24.887" ry="24.887" transform="matrix(.383 -.924 .924 .383 -150.501 448.416)"/><circle cx="260.301" cy="396.828" fill="#00884f" r="54.887"/><ellipse cx="260.301" cy="396.828" fill="#00cc76" rx="24.887" ry="24.887" transform="matrix(.383 -.924 .924 .383 -205.933 485.455)"/></g><g><path d="m110.122 161.056c-30.291 0-54.934 24.644-54.934 54.935v181.676c0 30.291 24.644 54.935 54.934 54.935 30.291 0 54.935-24.644 54.935-54.935v-181.677c-.001-30.291-24.644-54.934-54.935-54.934z" fill="#00cc76"/><g fill="#00884f"><path d="m92.64 236.941c0-8.284-6.716-15-15-15h-22.453v30h22.453c8.284 0 15-6.715 15-15z"/><path d="m101.655 283.937c0-8.284-6.716-15-15-15h-31.468v30h31.467c8.285 0 15.001-6.716 15.001-15z"/><path d="m127.604 338.252c0 8.284 6.716 15 15 15h22.453v-30h-22.453c-8.285 0-15 6.716-15 15z"/><path d="m165.056 370.248h-31.467c-8.284 0-15 6.716-15 15s6.716 15 15 15h31.402c.04-.856.065-1.716.065-2.582z"/></g></g></g></g></svg>