<svg id="Capa_1" enable-background="new 0 0 512 512" height="512" viewBox="0 0 512 512" width="512" xmlns="http://www.w3.org/2000/svg"><g><path d="m447.428 463.603h-382.856c-35.605 0-64.572-28.967-64.572-64.573v-286.06c0-35.605 28.967-64.572 64.572-64.572h382.855c35.605 0 64.572 28.967 64.572 64.572v286.06c.001 35.606-28.966 64.573-64.571 64.573z" fill="#eee1dd"/><path d="m447.428 48.397h-131.159v415.205h131.158c35.605 0 64.572-28.967 64.572-64.572v-286.06c.001-35.606-28.966-64.573-64.571-64.573z" fill="#ccc2be"/><path d="m64.572 78.397c-19.063 0-34.572 15.509-34.572 34.573v286.06c0 19.063 15.509 34.572 34.572 34.572h235.952v-355.205z" fill="#fff5f5"/><path d="m447.428 78.397h-116.904v355.205h116.903c19.063 0 34.572-15.509 34.572-34.572v-286.06c.001-19.064-15.508-34.573-34.571-34.573z" fill="#fff5f5"/><path d="m447.428 78.397h-41.166v355.205h41.166c19.063 0 34.572-15.509 34.572-34.572v-286.06c0-19.064-15.509-34.573-34.572-34.573z" fill="#eeeced"/><g><path d="m406.263 250.127c-27.978 0-50.738 22.761-50.738 50.738s22.761 50.737 50.738 50.737 50.737-22.761 50.737-50.737c0-27.977-22.761-50.738-50.737-50.738z" fill="#fce000"/><path d="m406.263 250.127c-.001 0-.001 0 0 0v101.476c27.977 0 50.737-22.761 50.737-50.737 0-27.978-22.761-50.739-50.737-50.739z" fill="#fdbf00"/><path d="m406.263 307.127c-27.978 0-50.738 22.761-50.738 50.738s22.761 50.737 50.738 50.737 50.737-22.761 50.737-50.737c0-27.977-22.761-50.738-50.737-50.738z" fill="#ffb74b"/><path d="m406.263 307.127c-.001 0-.001 0 0 0v101.476c27.977 0 50.737-22.761 50.737-50.737 0-27.978-22.761-50.739-50.737-50.739z" fill="#f85"/><path d="m450.118 195.106-28.856-18.571v-14.324l12.62 8.122c6.967 4.482 16.249 2.47 20.731-4.495 4.483-6.967 2.471-16.248-4.495-20.731l-28.856-18.571v-7.081c0-8.284-6.716-15-15-15s-15 6.716-15 15v7.081l-28.855 18.571c-6.966 4.483-8.979 13.765-4.495 20.731 2.867 4.455 7.696 6.884 12.627 6.884 2.78 0 5.593-.772 8.104-2.389l12.619-8.122v14.324l-28.855 18.571c-6.966 4.483-8.979 13.765-4.495 20.731 2.867 4.455 7.696 6.884 12.627 6.884 2.78 0 5.593-.772 8.104-2.389l12.619-8.122v10.774c0 8.284 6.716 15 15 15s15-6.716 15-15v-10.774l12.62 8.122c6.967 4.482 16.249 2.471 20.731-4.495 4.484-6.966 2.471-16.247-4.495-20.731z" fill="#00cc76"/><path d="m421.262 222.985v-10.774l12.62 8.122c6.967 4.482 16.249 2.471 20.731-4.495 4.483-6.967 2.471-16.248-4.495-20.731l-28.856-18.571v-14.324l12.62 8.122c6.967 4.482 16.249 2.47 20.731-4.495 4.483-6.967 2.471-16.248-4.495-20.731l-28.856-18.571v-7.081c0-8.284-6.716-15-15-15v133.531c8.284-.002 15-6.718 15-15.002z" fill="#00884f"/></g><path d="m165.679 78.397h134.845v355.205h-134.845z" fill="#eeeced"/><g><path d="m165.251 413.604c-29.163 0-56.611-11.3-77.402-31.891-21.055-20.851-32.649-48.613-32.649-78.174v-120.136c0-46.869 38.13-85.002 84.999-85.006 3.979 0 7.794 1.58 10.607 4.393s4.394 6.629 4.394 10.607v43.435c0 5.549 4.514 10.063 10.063 10.063s10.063-4.514 10.063-10.063v-43.435c0-8.284 6.716-15 15-15 46.869 0 85 38.131 85 85v118.931c0 60.771-48.888 110.687-108.979 111.27-.366.004-.732.006-1.096.006z" fill="#9b9b9c"/><path d="m190.325 98.397c-8.284 0-15 6.716-15 15v43.435c0 5.408-4.291 9.821-9.646 10.041v246.728c.222-.001.445-.001.667-.004 60.092-.583 108.979-50.498 108.979-111.27v-118.93c0-46.869-38.131-85-85-85z" fill="#59595a"/><path d="m125.2 130.478c-23.062 6.547-40 27.796-40 52.926l-.001 120.136c0 21.492 8.438 41.685 23.76 56.858 15.128 14.982 35.097 23.205 56.301 23.206.266 0 .528-.002.795-.004 43.71-.425 79.271-36.883 79.271-81.271v-118.932c0-25.13-16.939-46.376-40-52.921v26.355c0 22.091-17.972 40.063-40.063 40.063s-40.063-17.971-40.063-40.062z" fill="#ffb74b"/><path d="m205.325 130.477v26.355c0 21.951-17.747 39.827-39.646 40.052v186.717c.125-.001.25-.001.375-.002 43.71-.425 79.271-36.883 79.271-81.271v-118.931c0-25.129-16.939-46.376-40-52.92z" fill="#f85"/><path d="m123.658 229.898c-7.177 4.139-9.641 13.311-5.503 20.487 2.777 4.817 7.822 7.511 13.009 7.511 2.542 0 5.118-.647 7.479-2.008l12.036-6.94v22.038c-16.938 6.15-29.071 22.403-29.071 41.439 0 24.301 19.771 44.071 44.071 44.071 24.302 0 44.072-19.771 44.072-44.071 0-19.036-12.134-35.289-29.072-41.439v-22.038l12.037 6.94c2.36 1.36 4.936 2.008 7.479 2.008 5.187 0 10.231-2.694 13.009-7.511 4.138-7.177 1.674-16.35-5.503-20.487l-27.021-15.58v-20.513c-4.748 1.987-9.955 3.089-15.416 3.089-5.145 0-10.061-.985-14.584-2.76v20.185zm42.021 68.456c7.76 0 14.072 6.313 14.072 14.071s-6.313 14.071-14.072 14.071-14.071-6.313-14.071-14.071 6.312-14.071 14.071-14.071z" fill="#fff5f5"/><path d="m207.7 229.898-27.021-15.58v-20.513c-4.627 1.936-9.691 3.024-15 3.078v101.47c7.76 0 14.072 6.313 14.072 14.071s-6.312 14.071-14.072 14.071v30c24.302 0 44.072-19.771 44.072-44.071 0-19.036-12.134-35.289-29.072-41.439v-22.038l12.037 6.94c2.36 1.36 4.936 2.008 7.479 2.008 5.187 0 10.231-2.694 13.009-7.511 4.137-7.175 1.673-16.348-5.504-20.486z" fill="#eeeced"/></g></g></svg>