<svg id="Capa_1" enable-background="new 0 0 512.002 512.002" height="512" viewBox="0 0 512.002 512.002" width="512" xmlns="http://www.w3.org/2000/svg"><g><path d="m218.954 170.743-105.856-163.88c-4.337-6.715-13.176-8.849-20.1-4.852l-67.439 38.936c-6.922 3.996-9.495 12.72-5.849 19.833l88.997 173.614c1.874 3.655 5.165 6.383 9.105 7.545 1.391.41 2.819.612 4.242.612 2.608 0 5.199-.681 7.5-2.01l84.299-48.67c3.558-2.054 6.117-5.478 7.081-9.471.966-3.992.249-8.207-1.98-11.657z" fill="#fff5f5"/><path d="m424.433 157.203c-2.757-55.188-48.522-99.239-104.382-99.239-31.082 0-59.883 13.518-79.602 36.785-10.229-5.225-21.638-8.013-33.25-8.013-39.416 0-71.639 31.384-72.99 70.477-30.971 8.583-53.524 37.063-53.524 70.379v14.802c0 8.284 6.716 15 15 15h367.358c8.284 0 15-6.716 15-15v-14.802c.001-33.227-22.628-61.808-53.61-70.389z" fill="#fce000"/><path d="m424.433 157.203c-2.757-55.188-48.522-99.239-104.382-99.239-14.263 0-28.041 2.854-40.686 8.182v191.248h183.679c8.284 0 15-6.716 15-15v-14.802c0-33.227-22.629-61.808-53.611-70.389z" fill="#fdbf00"/><path d="m335.378 164.557c-7.558 0-13.685-6.127-13.685-13.685s6.127-13.685 13.685-13.685 13.685 6.127 13.685 13.685-6.127 13.685-13.685 13.685" fill="#f85"/><path d="m279.365 198.733c-7.558 0-13.685-6.127-13.685-13.685s6.127-13.685 13.685-13.685 13.685 6.127 13.685 13.685-6.127 13.685-13.685 13.685" fill="#ffb74b"/><path d="m279.365 171.363v27.37c7.558 0 13.685-6.127 13.685-13.685s-6.127-13.685-13.685-13.685z" fill="#f85"/><path d="m206.354 185.048c-7.558 0-13.685-6.127-13.685-13.685s6.127-13.685 13.685-13.685 13.685 6.127 13.685 13.685-6.127 13.685-13.685 13.685" fill="#ffb74b"/><path d="m478.946 227.394h-399.161c-8.284 0-15 6.716-15 15v119.556c0 82.739 67.313 150.052 150.052 150.052h129.057c82.739 0 150.052-67.313 150.052-150.052v-119.556c0-8.285-6.716-15-15-15z" fill="#fff5f5"/><path d="m478.946 227.394h-199.58v284.608h64.529c82.739 0 150.052-67.313 150.052-150.052v-119.556c-.001-8.285-6.717-15-15.001-15z" fill="#eeeced"/><path d="m493.946 242.394c0-8.284-6.716-15-15-15h-399.161c-8.284 0-15 6.716-15 15v70.773h429.161z" fill="#fa7578"/><path d="m493.946 242.394c0-8.284-6.716-15-15-15h-199.58v85.773h214.58z" fill="#f9545b"/></g></svg>