<svg id="Capa_1" enable-background="new 0 0 508.219 508.219" height="512" viewBox="0 0 508.219 508.219" width="512" xmlns="http://www.w3.org/2000/svg"><g><g><g><path d="m201.497 282.424h-124.774c-8.284 0-15 6.716-15 15v124.773c0 8.284 6.716 15 15 15h124.774c8.284 0 15-6.716 15-15v-124.773c0-8.284-6.716-15-15-15z" fill="#fce000"/><path d="m201.497 282.424h-63.649v154.773h63.649c8.284 0 15-6.716 15-15v-124.773c0-8.284-6.716-15-15-15z" fill="#fdbf00"/><circle cx="168.851" cy="336.327" fill="#f85" r="13.726"/><circle cx="137.848" cy="369.327" fill="#ffb74b" r="13.726"/><path d="m137.848 355.6c7.581 0 13.726 6.145 13.726 13.726s-6.145 13.726-13.726 13.726z" fill="#f85"/><path d="m137.848 129.237c-8.284 0-15-6.716-15-15v-88.215c0-8.284 6.716-15 15-15s15 6.716 15 15v88.215c0 8.284-6.716 15-15 15z" fill="#fab991"/><path d="m152.848 114.237v-88.215c0-8.284-6.716-15-15-15v118.215c8.284 0 15-6.716 15-15z" fill="#f0915a"/><circle cx="137.848" cy="159.829" fill="#fa7578" r="75.592"/><path d="m213.44 159.829c0-41.682-33.911-75.593-75.592-75.593v151.185c41.681 0 75.592-33.91 75.592-75.592z" fill="#f9545b"/><path d="m186.448 212.921h-94.676c-25.365 0-46.001 20.637-46.001 46.002s20.636 46.001 46.001 46.001h94.676c25.365 0 46.001-20.637 46.001-46.002s-20.636-46.001-46.001-46.001z" fill="#ffb74b"/><path d="m186.448 212.921h-48.6v92.003h48.6c25.365 0 46.001-20.637 46.001-46.002s-20.636-46.001-46.001-46.001z" fill="#f85"/></g><g><path d="m431.497 282.424h-124.774c-8.284 0-15 6.716-15 15v124.773c0 8.284 6.716 15 15 15h124.774c8.284 0 15-6.716 15-15v-124.773c0-8.284-6.716-15-15-15z" fill="#fce000"/><path d="m431.497 282.424h-63.649v154.773h63.649c8.284 0 15-6.716 15-15v-124.773c0-8.284-6.716-15-15-15z" fill="#fdbf00"/><circle cx="398.851" cy="344.969" fill="#f85" r="13.726"/><circle cx="346.369" cy="374.969" fill="#ffb74b" r="13.726"/><path d="m367.848 129.237c-8.284 0-15-6.716-15-15v-88.215c0-8.284 6.716-15 15-15s15 6.716 15 15v88.215c0 8.284-6.716 15-15 15z" fill="#fab991"/><path d="m382.848 114.237v-88.215c0-8.284-6.716-15-15-15v118.215c8.284 0 15-6.716 15-15z" fill="#f0915a"/><circle cx="367.848" cy="159.829" fill="#fa7578" r="75.592"/><path d="m443.44 159.829c0-41.682-33.911-75.593-75.592-75.593v151.185c41.681 0 75.592-33.91 75.592-75.592z" fill="#f9545b"/><path d="m416.448 212.921h-94.676c-25.365 0-46.001 20.637-46.001 46.002s20.636 46.001 46.001 46.001h94.676c25.365 0 46.001-20.637 46.001-46.002s-20.636-46.001-46.001-46.001z" fill="#ffb74b"/><path d="m416.448 212.921h-48.6v92.003h48.6c25.365 0 46.001-20.637 46.001-46.002s-20.636-46.001-46.001-46.001z" fill="#f85"/></g></g><path d="m505.074 428.007c-2.841-3.665-7.218-5.81-11.855-5.81h-478.219c-4.637 0-9.014 2.145-11.855 5.81s-3.828 8.438-2.672 12.929c8.525 33.126 38.395 56.262 72.636 56.262h362c34.242 0 64.111-23.136 72.636-56.262 1.157-4.49.17-9.264-2.671-12.929z" fill="#fff5f5"/><path d="m505.074 428.007c-2.841-3.665-7.218-5.81-11.855-5.81h-239.109v75h181c34.242 0 64.111-23.136 72.636-56.262 1.156-4.489.169-9.263-2.672-12.928z" fill="#eeeced"/></g></svg>