<svg id="Capa_1" enable-background="new 0 0 512 512" height="512" viewBox="0 0 512 512" width="512" xmlns="http://www.w3.org/2000/svg"><g><path d="m447.076 512h-382.152c-8.284 0-15-6.716-15-15v-281.192c-26.266-25.495-41.579-59.314-41.25-91.701.29-28.646 12.355-53.896 34.892-73.018 49.765-42.226 142.991-51.089 212.434-51.089s162.669 8.863 212.435 51.089c22.536 19.121 34.602 44.37 34.892 73.018.328 32.387-14.984 66.206-41.25 91.701v281.192c-.001 8.284-6.717 15-15.001 15z" fill="#ffb74b"/><path d="m468.435 51.089c-49.766-42.226-142.992-51.089-212.435-51.089v512h191.076c8.284 0 15-6.716 15-15v-281.192c26.266-25.495 41.578-59.314 41.25-91.701-.29-28.648-12.355-53.897-34.891-73.018z" fill="#f85"/><path d="m79.924 482h352.152v-272.738c0-4.299 1.845-8.392 5.065-11.239 22.921-20.259 36.448-47.778 36.187-73.612-.199-19.682-8.604-37.125-24.304-50.446-33.413-28.352-101.963-43.965-193.024-43.965s-159.612 15.613-193.025 43.964c-15.7 13.321-24.104 30.765-24.303 50.446-.261 25.834 13.266 53.354 36.187 73.612 3.221 2.848 5.066 6.94 5.066 11.239v272.739z" fill="#fff5f5"/><path d="m449.024 73.964c-33.413-28.351-101.963-43.964-193.024-43.964v452h176.076v-272.738c0-4.299 1.845-8.392 5.065-11.239 22.921-20.259 36.448-47.778 36.187-73.612-.199-19.682-8.603-37.126-24.304-50.447z" fill="#eeeced"/><g><g fill="#ca6d58"><circle cx="188.225" cy="312.004" r="14.509"/><circle cx="217.243" cy="242.619" r="14.509"/><circle cx="87" cy="114.491" r="14.509"/><circle cx="139.618" cy="175.004" r="14.509"/><circle cx="256" cy="129" r="14.509"/><path d="m166.772 122.41c-3.839 0-7.677-1.464-10.606-4.394-5.858-5.857-5.858-15.354 0-21.213l22.819-22.82c5.858-5.857 15.355-5.859 21.213 0 5.858 5.857 5.858 15.354 0 21.213l-22.819 22.82c-2.929 2.929-6.768 4.394-10.607 4.394z"/><path d="m156.255 266.104c-1.305 0-2.631-.172-3.951-.531l-31.137-8.48c-7.993-2.177-12.708-10.421-10.531-18.414 2.177-7.994 10.418-12.709 18.415-10.531l31.137 8.48c7.993 2.177 12.708 10.421 10.531 18.414-1.817 6.673-7.865 11.062-14.464 11.062z"/><path d="m198.276 429.052c-1.375 0-2.771-.19-4.158-.59-7.961-2.292-12.556-10.604-10.263-18.565l8.931-31.011c2.292-7.96 10.604-12.557 18.565-10.263 7.961 2.292 12.556 10.604 10.263 18.565l-8.931 31.011c-1.893 6.574-7.892 10.853-14.407 10.853z"/><circle cx="125.109" cy="367.477" r="14.509"/><circle cx="125.109" cy="443.065" r="14.509"/></g><circle cx="382.274" cy="191.335" fill="#a54f3e" r="14.509"/><circle cx="278.368" cy="428.557" fill="#a54f3e" r="14.509"/><circle cx="373.588" cy="359" fill="#a54f3e" r="14.509"/><circle cx="429.303" cy="129" fill="#a54f3e" r="14.509"/><circle cx="360.603" cy="286.519" fill="#a54f3e" r="14.509"/><path d="m256 114.491v29.017c8.013 0 14.509-6.496 14.509-14.509s-6.496-14.508-14.509-14.508z" fill="#a54f3e"/><path d="m304.287 359.555c-3.839 0-7.678-1.465-10.606-4.394l-22.819-22.819c-5.858-5.857-5.858-15.355 0-21.213 5.857-5.857 15.355-5.857 21.213 0l22.819 22.819c5.858 5.857 5.858 15.355 0 21.213-2.929 2.929-6.768 4.394-10.607 4.394z" fill="#a54f3e"/><path d="m354.223 135.592c-4.709 0-9.344-2.21-12.267-6.35l-18.613-26.362c-4.777-6.768-3.165-16.127 3.603-20.905 6.768-4.776 16.126-3.165 20.905 3.603l18.613 26.362c4.777 6.768 3.165 16.127-3.603 20.905-2.628 1.855-5.648 2.747-8.638 2.747z" fill="#a54f3e"/><path d="m288.574 217.122c-6.792 0-12.946-4.644-14.582-11.541-1.912-8.061 3.071-16.145 11.133-18.057l31.399-7.449c8.062-1.912 16.146 3.071 18.058 11.133 1.912 8.061-3.071 16.145-11.133 18.057l-31.399 7.449c-1.164.276-2.329.408-3.476.408z" fill="#a54f3e"/><path d="m344.891 447.284c-6.792 0-12.946-4.644-14.582-11.541-1.912-8.061 3.071-16.145 11.133-18.057l31.399-7.449c8.062-1.913 16.146 3.071 18.058 11.133 1.912 8.061-3.071 16.145-11.133 18.057l-31.399 7.449c-1.165.276-2.33.408-3.476.408z" fill="#a54f3e"/></g></g></svg>