<svg id="Capa_1" enable-background="new 0 0 512.001 512.001" height="512" viewBox="0 0 512.001 512.001" width="512" xmlns="http://www.w3.org/2000/svg"><g><g><path d="m211.705 186.118c-4.752 0-9.425-2.251-12.338-6.451l-108.308-156.116c-4.723-6.807-3.032-16.152 3.774-20.874 6.808-4.723 16.154-3.031 20.874 3.773l108.308 156.117c4.723 6.807 3.032 16.152-3.774 20.874-2.607 1.809-5.587 2.677-8.536 2.677z" fill="#fa7578"/><path d="m186.766 223.192c-3.424 0-6.865-1.165-9.684-3.551l-145.022-122.765c-6.323-5.352-7.109-14.816-1.757-21.14 5.35-6.322 14.815-7.112 21.14-1.757l145.022 122.765c6.323 5.352 7.109 14.816 1.757 21.14-2.966 3.505-7.197 5.308-11.456 5.308z" fill="#fa7578"/><path d="m308.77 114.159c-86.282 0-156.479 70.195-156.479 156.478 0 8.284 6.716 15 15 15h282.956c8.284 0 15-6.716 15-15 .001-86.282-70.195-156.478-156.477-156.478z" fill="#fff5f5"/><path d="m308.77 114.159v171.478h141.478c8.284 0 15-6.716 15-15 0-86.282-70.196-156.478-156.478-156.478z" fill="#eeeced"/><circle cx="370.509" cy="217.45" fill="#a54f3e" r="13.667"/><circle cx="308.77" cy="179.159" fill="#ca6d58" r="13.667"/><path d="m322.436 179.159c0-7.548-6.119-13.667-13.667-13.667v27.333c7.549 0 13.667-6.118 13.667-13.666z" fill="#a54f3e"/><circle cx="241.77" cy="221.859" fill="#ca6d58" r="13.667"/><path d="m374.433 448.216h-131.327c-8.284 0-15 6.716-15 15v33.785c0 8.284 6.716 15 15 15h131.327c8.284 0 15-6.716 15-15v-33.785c0-8.284-6.716-15-15-15z" fill="#fa7578"/><path d="m374.433 512.001c8.284 0 15-6.716 15-15v-33.785c0-8.284-6.716-15-15-15h-65.663v63.785z" fill="#f9545b"/><path d="m470.25 255.637h-322.96c-8.284 0-15 6.716-15 15v97.347c0 60.782 49.45 110.232 110.232 110.232h132.496c60.782 0 110.231-49.45 110.231-110.232v-97.347c.001-8.284-6.715-15-14.999-15z" fill="#fec3b9"/><path d="m485.25 270.637c0-8.284-6.716-15-15-15h-322.96c-8.284 0-15 6.716-15 15v55h352.96z" fill="#fa7578"/><path d="m470.25 255.637h-161.48v222.579h66.249c60.782 0 110.231-49.45 110.231-110.232v-97.347c0-8.284-6.716-15-15-15z" fill="#fd9d8c"/><path d="m485.25 270.637c0-8.284-6.716-15-15-15h-161.48v70h176.48z" fill="#f9545b"/></g><g><path d="m363.77 94.159c-8.284 0-15-6.716-15-15v-32.767c0-8.284 6.716-15 15-15s15 6.716 15 15v32.768c0 8.283-6.716 14.999-15 14.999z" fill="#fdbf00"/><path d="m308.77 94.159c-8.284 0-15-6.716-15-15v-57.16c0-8.284 6.716-15 15-15s15 6.716 15 15v57.16c0 8.284-6.716 15-15 15z" fill="#fce000"/><path d="m323.77 79.159v-57.16c0-8.284-6.716-15-15-15v87.16c8.284 0 15-6.716 15-15z" fill="#fdbf00"/><path d="m253.77 94.159c-8.284 0-15-6.716-15-15v-32.767c0-8.284 6.716-15 15-15s15 6.716 15 15v32.768c0 8.283-6.716 14.999-15 14.999z" fill="#fce000"/></g></g></svg>