<svg id="Capa_1" enable-background="new 0 0 510.646 510.646" height="512" viewBox="0 0 510.646 510.646" width="512" xmlns="http://www.w3.org/2000/svg"><g><path d="m348.585 0h-186.523c-25.338 0-45.952 20.614-45.952 45.952v418.742c0 25.338 20.614 45.952 45.952 45.952h186.523c25.338 0 45.952-20.614 45.952-45.952v-418.742c0-25.338-20.614-45.952-45.952-45.952z" fill="#fff5f5"/><path d="m348.585 0h-93.262v510.646h93.262c25.338 0 45.952-20.614 45.952-45.952v-418.742c0-25.338-20.614-45.952-45.952-45.952z" fill="#eeeced"/><path d="m116.109 70.644h278.428v337.241h-278.428z" fill="#4fdae1"/><path d="m255.323 70.644h139.214v337.241h-139.214z" fill="#16aac8"/><path d="m255.323 219.431c-8.284 0-15-6.716-15-15v-17c0-8.284 6.716-15 15-15s15 6.716 15 15v17c0 8.284-6.716 15-15 15z" fill="#eee1dd"/><path d="m270.323 204.431v-17c0-8.284-6.716-15-15-15v47c8.284 0 15-6.716 15-15z" fill="#ccbeb9"/><path d="m255.323 189.431c-34.432 0-62.444 29.508-62.444 65.777 0 8.284 6.716 15 15 15h94.889c8.284 0 15-6.716 15-15 0-36.27-28.013-65.777-62.445-65.777z" fill="#fff5f5"/><path d="m255.323 189.431v80.777h47.444c8.284 0 15-6.716 15-15 .001-36.27-28.012-65.777-62.444-65.777z" fill="#eeeced"/><path d="m313.93 276.098h-117.214c-8.284 0-15-6.716-15-15s6.716-15 15-15h117.214c8.284 0 15 6.716 15 15s-6.716 15-15 15z" fill="#eee1dd"/><path d="m313.93 246.098h-58.607v30h58.607c8.284 0 15-6.716 15-15s-6.716-15-15-15z" fill="#ccbeb9"/><circle cx="255.323" cy="459.265" fill="#eee1dd" r="17.224"/><path d="m272.548 459.265c0-9.513-7.712-17.224-17.224-17.224v34.449c9.512 0 17.224-7.712 17.224-17.225z" fill="#ccbeb9"/><path d="m339.537 367.884h-30c-8.284 0-15-6.716-15-15s6.716-15 15-15h15v-15c0-8.284 6.716-15 15-15s15 6.716 15 15v30c0 8.284-6.716 15-15 15z" fill="#444"/><path d="m201.109 367.884h-30c-8.284 0-15-6.716-15-15v-30c0-8.284 6.716-15 15-15s15 6.716 15 15v15h15c8.284 0 15 6.716 15 15s-6.715 15-15 15z" fill="#59595a"/><path d="m339.537 170.644c-8.284 0-15-6.716-15-15v-15h-15c-8.284 0-15-6.716-15-15s6.716-15 15-15h30c8.284 0 15 6.716 15 15v30c0 8.284-6.716 15-15 15z" fill="#444"/><path d="m171.109 170.644c-8.284 0-15-6.716-15-15v-30c0-8.284 6.716-15 15-15h30c8.284 0 15 6.716 15 15s-6.716 15-15 15h-15v15c0 8.284-6.715 15-15 15z" fill="#59595a"/></g></svg>