<svg id="Capa_1" enable-background="new 0 0 512 512" height="512" viewBox="0 0 512 512" width="512" xmlns="http://www.w3.org/2000/svg"><g><path d="m100.053 115c-31.706 0-57.5-25.794-57.5-57.5l-.001 371.942c0 45.595 36.962 82.558 82.558 82.558h329.337c8.284 0 15-6.716 15-15v-382z" fill="#f85"/><path d="m125.109 115v397h.001 329.337c8.284 0 15-6.716 15-15v-382z" fill="#ffb74b"/><path d="m297.278 115v397h157.169c8.284 0 15-6.716 15-15v-382z" fill="#f85"/><path d="m329.552 324.298c-1.218 0-2.456-.149-3.691-.462-8.031-2.033-12.894-10.191-10.861-18.223l16.81-66.419c1.685-6.656 7.675-11.319 14.542-11.319h28.914c8.284 0 15 6.716 15 15s-6.716 15-15 15h-17.237l-13.945 55.1c-1.721 6.795-7.828 11.323-14.532 11.323z" fill="#eee1dd"/><g fill="#eeeced"><path d="m221.291 272.294c-8.284 0-15-6.716-15-15v-22.397c0-8.284 6.716-15 15-15s15 6.716 15 15v22.397c0 8.284-6.716 15-15 15z"/><path d="m266.698 272.294c-8.284 0-15-6.716-15-15v-38.397c0-8.284 6.716-15 15-15s15 6.716 15 15v38.397c0 8.284-6.715 15-15 15z"/></g><path d="m381.088 294.294h-167.62c-8.284 0-15 6.716-15 15 0 54.483 44.326 98.81 98.81 98.81s98.81-44.326 98.81-98.81c0-8.284-6.716-15-15-15z" fill="#fa7578"/><path d="m381.088 294.294h-83.81v113.81c54.484 0 98.81-44.326 98.81-98.81 0-8.284-6.716-15-15-15z" fill="#f9545b"/><path d="m454.448 0h-354.395c-31.706 0-57.5 25.794-57.5 57.5s25.794 57.5 57.5 57.5h354.395c8.284 0 15-6.716 15-15v-85c0-8.284-6.716-15-15-15z" fill="#fff5f5"/><path d="m297.278 0h172.17v115h-172.17z" fill="#eeeced"/><path d="m390.547 72.5h-265.438c-8.284 0-15-6.716-15-15s6.716-15 15-15h265.438c8.284 0 15 6.716 15 15s-6.716 15-15 15z" fill="#eee1dd"/><path d="m390.547 42.5h-93.269v30h93.269c8.284 0 15-6.716 15-15s-6.716-15-15-15z" fill="#ccbeb9"/></g></svg>