<svg id="Capa_1" enable-background="new 0 0 512 512" height="512" viewBox="0 0 512 512" width="512" xmlns="http://www.w3.org/2000/svg"><g><g><path d="m203.6 157.906 52.43-10.037c0-7.618 6.197-13.815 13.815-13.815h33.386c22.627 0 41.036-18.409 41.036-41.036s-18.409-41.035-41.036-41.035h-50.097c-50.962 0-92.422 41.46-92.422 92.422z" fill="#fff5f5"/><path d="m338.183 163.099c-7.228-6.165-16.79-8.854-26.267-7.392l-42.919 5.952c-7.225-.44-12.967-6.458-12.967-13.791 0-.095.012-.187.014-.281h-95.271c1.685 49.493 42.465 89.238 92.361 89.238h15.676l43.105 5.978c1.693.261 3.39.39 5.074.39 7.744 0 15.257-2.719 21.192-7.781 7.004-5.975 11.021-14.61 11.021-23.694v-24.924c.001-9.084-4.015-17.72-11.019-23.695z" fill="#eee1dd"/><g><path d="m497 278.16h-482c-8.284 0-15 6.716-15 15v78.989c0 76.714 62.411 139.125 139.125 139.125h233.75c76.714 0 139.125-62.411 139.125-139.125v-78.989c0-8.284-6.716-15-15-15z" fill="#fff5f5"/><path d="m497 278.16h-241v233.114h116.875c76.714 0 139.125-62.411 139.125-139.125v-78.989c0-8.284-6.716-15-15-15z" fill="#eee1dd"/><path d="m512 293.16c0-8.284-6.716-15-15-15h-482c-8.284 0-15 6.716-15 15v43.753h512z" fill="#ffb74b"/><path d="m512 293.16c0-8.284-6.716-15-15-15h-241v58.753h256z" fill="#f85"/></g><path d="m303.231 134.054c22.627 0 41.036-18.409 41.036-41.036s-18.409-41.035-41.036-41.035h-33.385v82.071z" fill="#ffb74b"/><path d="m338.183 163.099c-7.228-6.165-16.79-8.854-26.267-7.392l-42.07 5.834v75.427l42.07 5.834c1.693.261 3.39.39 5.074.39 7.744 0 15.257-2.719 21.192-7.781 7.004-5.975 11.021-14.61 11.021-23.694v-24.924c0-9.083-4.016-17.719-11.02-23.694z" fill="#f85"/><path d="m256.03 147.869c0-2.459.653-4.766 1.784-6.768l-83.498-44.911c-8.624 14.046-13.603 30.559-13.603 48.214 0 21.319 7.259 40.972 19.43 56.625l77.297-47.11c-.896-1.829-1.41-3.879-1.41-6.05z" fill="#ffb74b"/><path d="m119.898 28.225c-17.217-17.216-42.607-23.536-56.209-25.769-11.007-1.81-37.848-4.769-49.373 6.756-11.524 11.523-8.563 38.366-6.755 49.372 2.234 13.603 8.553 38.993 25.771 56.21 17.416 17.416 34.438 21.197 45.928 21.197.293 0 .583-.002.869-.007 15.216-.254 29.71-6.839 41.916-19.045s18.791-26.7 19.045-41.916c.191-11.49-3.33-28.936-21.192-46.798z" fill="#a5e887"/><circle cx="224.456" cy="26.422" fill="#00cc76" r="13.685"/><circle cx="162.23" cy="246.182" fill="#00cc76" r="13.685"/><circle cx="374.773" cy="170.318" fill="#00884f" r="13.685"/><path d="m72.853 162.008c-27.343 0-49.588 22.244-49.588 49.587s22.245 49.588 49.588 49.588 49.588-22.245 49.588-49.588-22.246-49.587-49.588-49.587z" fill="#fa7578"/><circle cx="446.802" cy="211.595" fill="#fa7578" r="41.054"/><path d="m502.38 54.3c-10.835-29.024-37.434-47.055-69.416-47.055-31.983 0-58.582 18.03-69.416 47.055-7.146 19.144-4.849 46.2 13.486 58.637 5.453 3.698 11.52 5.876 18.022 6.517l-.478 10.666c-.183 4.09 1.314 8.078 4.145 11.037s6.746 4.633 10.841 4.633h46.798c4.095 0 8.011-1.674 10.841-4.633s4.327-6.947 4.145-11.037l-.478-10.666c6.502-.641 12.57-2.819 18.022-6.518 18.336-12.434 20.633-39.491 13.488-58.636z" fill="#ffb74b"/><path d="m256.04 147.588h-95.27c.684 20.088 7.811 38.572 19.374 53.442l77.297-47.11c-.896-1.83-1.41-3.88-1.41-6.051-.001-.094.007-.187.009-.281z" fill="#f85"/><path d="m502.38 54.3c-10.835-29.024-37.434-47.055-69.416-47.055v138.544h23.399c4.095 0 8.011-1.674 10.841-4.633s4.327-6.947 4.145-11.037l-.478-10.666c6.502-.641 12.57-2.819 18.022-6.518 18.335-12.433 20.632-39.49 13.487-58.635z" fill="#f0915a"/><path d="m141.089 75.023c.192-11.49-3.329-28.937-21.19-46.798-17.218-17.216-42.608-23.536-56.21-25.769-11.007-1.81-37.847-4.769-49.373 6.756l107.727 107.727c12.207-12.206 18.792-26.7 19.046-41.916z" fill="#00cc76"/><path d="m126.865 136.761c-3.839 0-7.678-1.465-10.606-4.394l-42.074-42.074c-5.858-5.857-5.858-15.355 0-21.213 5.857-5.857 15.355-5.857 21.213 0l42.074 42.074c5.858 5.857 5.858 15.355 0 21.213-2.929 2.929-6.768 4.394-10.607 4.394z" fill="#00cc76"/><path d="m137.472 111.154-42.075-42.074c-5.857-5.857-15.355-5.857-21.213 0l63.287 63.287c5.859-5.858 5.859-15.355.001-21.213z" fill="#00884f"/><g fill="#f9545b"><path d="m72.853 162.008v99.175c27.343 0 49.588-22.245 49.588-49.588s-22.246-49.587-49.588-49.587z"/><path d="m446.802 170.541v82.107c22.637 0 41.054-18.417 41.054-41.054s-18.418-41.053-41.054-41.053z"/></g></g></g></svg>