<svg id="Capa_1" enable-background="new 0 0 512 512" height="512" viewBox="0 0 512 512" width="512" xmlns="http://www.w3.org/2000/svg"><g><path d="m345.649 85.293h-179.298c-46.189 0-83.766 37.577-83.766 83.766v288.674c0 29.923 24.343 54.267 54.267 54.267h238.298c29.923 0 54.267-24.343 54.267-54.267v-288.673c-.002-46.189-37.579-83.767-83.768-83.767z" fill="#fff5f5"/><path d="m345.649 85.293h-89.649v426.707h119.149c29.923 0 54.267-24.343 54.267-54.267v-288.673c-.001-46.189-37.578-83.767-83.767-83.767z" fill="#eee1dd"/><path d="m136.851 512h238.298c29.923 0 54.267-24.343 54.267-54.267v-202.491c-10.774-5.654-22.849-8.693-35.114-8.693-3.846 0-7.661.288-11.423.861-9.658-19.781-29.929-32.982-52.882-32.982h-147.994c-22.953 0-43.224 13.201-52.882 32.982-3.762-.573-7.577-.861-11.423-.861-12.265 0-24.34 3.04-35.114 8.693v202.491c.001 29.924 24.344 54.267 54.267 54.267z" fill="#fce000"/><path d="m394.302 246.549c-3.846 0-7.661.288-11.423.861-9.658-19.781-29.929-32.982-52.882-32.982h-73.997v297.572h119.149c29.923 0 54.267-24.343 54.267-54.267v-202.491c-10.775-5.654-22.849-8.693-35.114-8.693z" fill="#fdbf00"/><path d="m212.685 344.855c-4.854 0-9.617-2.343-12.521-6.679-4.625-6.908-2.775-16.257 4.132-20.881l15.009-10.049c6.909-4.626 16.256-2.775 20.881 4.132s2.775 16.257-4.132 20.881l-15.009 10.049c-2.57 1.722-5.482 2.547-8.36 2.547z" fill="#ca6d58"/><path d="m278.636 407.366c-7.641 0-14.184-5.793-14.96-13.557l-1.794-17.973c-.826-8.272 5.21-15.647 13.482-16.473 8.258-.837 15.647 5.21 16.473 13.482l1.794 17.973c.826 8.272-5.21 15.647-13.482 16.473-.507.05-1.013.075-1.513.075z" fill="#a54f3e"/><path d="m358.535 364.276c-3.852 0-7.704-1.47-10.643-4.409l-12.771-12.771c-5.879-5.878-5.879-15.408 0-21.286 5.878-5.878 15.408-5.878 21.286 0l12.771 12.771c5.879 5.878 5.879 15.408 0 21.286-2.939 2.94-6.791 4.409-10.643 4.409z" fill="#a54f3e"/><path d="m199.033 455.74c-1.091 0-2.197-.119-3.305-.367-8.112-1.818-13.213-9.867-11.396-17.979l3.95-17.625c1.817-8.112 9.869-13.216 17.979-11.396 8.112 1.818 13.213 9.867 11.396 17.979l-3.95 17.625c-1.57 7.004-7.785 11.763-14.674 11.763z" fill="#ca6d58"/><path d="m336.095 461.245c-8.313 0-15.052-6.739-15.052-15.052v-18.062c0-8.313 6.739-15.052 15.052-15.052s15.052 6.739 15.052 15.052v18.062c-.001 8.314-6.74 15.052-15.052 15.052z" fill="#a54f3e"/><path d="m165.174 389.082c-4.466 0-8.887-1.979-11.856-5.767l-11.144-14.215c-5.128-6.542-3.981-16.003 2.561-21.131 6.541-5.13 16.002-3.983 21.132 2.56l11.144 14.216c5.128 6.542 3.981 16.003-2.561 21.132-2.754 2.158-6.027 3.205-9.276 3.205z" fill="#ca6d58"/><path d="m300.164 167.757c-18.683 0-35.081 9.964-44.163 24.856-9.082-14.892-25.481-24.856-44.164-24.856-28.501 0-51.689 23.187-51.689 51.688s23.188 51.689 51.689 51.689c18.683 0 35.082-9.964 44.164-24.857 9.082 14.893 25.481 24.857 44.163 24.857 28.501 0 51.688-23.188 51.688-51.689s-23.187-51.688-51.688-51.688z" fill="#fa7578"/><path d="m300.164 167.757c-18.683 0-35.081 9.964-44.163 24.856v53.665l.001-.001c9.082 14.893 25.481 24.857 44.163 24.857 28.501 0 51.688-23.188 51.688-51.689s-23.188-51.688-51.689-51.688z" fill="#f9545b"/><g><path d="m388.531 0h-263.055c-13.121 0-23.797 10.675-23.797 23.797v67.803c0 13.121 10.675 23.797 23.797 23.797h263.055c13.121 0 23.797-10.675 23.797-23.797v-67.803c-.001-13.122-10.676-23.797-23.797-23.797z" fill="#fff5f5"/><path d="m388.531 0h-132.531v115.397h132.531c13.121 0 23.797-10.675 23.797-23.797v-67.803c-.001-13.122-10.676-23.797-23.797-23.797z" fill="#eee1dd"/><path d="m101.68 91.6c0 13.121 10.675 23.797 23.797 23.797h263.055c13.121 0 23.797-10.675 23.797-23.797v-18.85h-310.649z" fill="#ffb74b"/><path d="m412.327 91.6v-18.85h-156.327v42.647h132.531c13.121 0 23.796-10.676 23.796-23.797z" fill="#f85"/><path d="m412.327 23.797c0-13.122-10.675-23.797-23.796-23.797h-263.055c-13.121 0-23.797 10.675-23.797 23.797v18.85h310.648z" fill="#ffb74b"/><path d="m412.327 23.797c0-13.122-10.675-23.797-23.796-23.797h-132.531v42.647h156.327z" fill="#f85"/></g></g></svg>