<svg id="Capa_1" enable-background="new 0 0 512 512" height="512" viewBox="0 0 512 512" width="512" xmlns="http://www.w3.org/2000/svg"><g><path d="m451.603 0h-391.206c-8.284 0-15 6.716-15 15v70c0 .373.014.745.042 1.116l28.583 382.917c1.282 24.111 21.146 42.967 45.315 42.967h273.325c24.169 0 44.033-18.856 45.315-42.967l28.583-382.917c.028-.371.042-.743.042-1.116v-70c.001-8.284-6.715-15-14.999-15z" fill="#fff5f5"/><path d="m451.603 0h-195.603v512h136.663c24.169 0 44.033-18.856 45.315-42.967l28.583-382.917c.028-.371.042-.743.042-1.116v-70c0-8.284-6.716-15-15-15z" fill="#eeeced"/><path d="m451.603 0h-391.206c-8.284 0-15 6.716-15 15v70h421.205v-70c.001-8.284-6.715-15-14.999-15z" fill="#fec3b9"/><path d="m466.603 15c0-8.284-6.716-15-15-15h-195.603v85h210.603z" fill="#fd9d8c"/><path d="m336.305 169.753v-.002c-6.827-8.135-16.413-13.125-26.993-14.051-7.973-.702-15.789.975-22.639 4.763-7.326-8.871-18.402-14.504-30.672-14.504s-23.347 5.633-30.672 14.504c-6.85-3.788-14.67-5.465-22.639-4.763-10.581.926-20.167 5.916-26.993 14.053-14.093 16.794-11.895 41.923 4.9 56.017l17.979 15.086c2.702 2.268 6.116 3.51 9.642 3.51h95.568c3.526 0 6.94-1.242 9.642-3.51l17.979-15.086c16.793-14.094 18.991-39.223 4.898-56.017z" fill="#a5e887"/><path d="m336.305 169.753v-.002c-6.827-8.135-16.413-13.125-26.993-14.051-7.973-.702-15.789.975-22.639 4.763-7.326-8.871-18.402-14.504-30.672-14.504v98.406h47.784c3.526 0 6.94-1.242 9.642-3.51l17.979-15.086c16.794-14.093 18.992-39.222 4.899-56.016z" fill="#00cc76"/><path d="m354.706 275.051c-2.424-24.803-15.257-43.448-37.11-53.92-15.526-7.44-35.099-10.906-61.596-10.906s-46.07 3.466-61.596 10.906c-21.853 10.472-34.686 29.117-37.11 53.92-1.179 12.064.497 23.515 2.484 34.091 5.052 26.887 16.52 56.598 30.677 79.479 19.184 31.003 41.849 47.391 65.545 47.391s46.361-16.388 65.545-47.391c14.157-22.881 25.625-52.592 30.677-79.479 1.987-10.577 3.663-22.027 2.484-34.091z" fill="#fa7578"/><path d="m321.545 388.62c14.157-22.881 25.625-52.592 30.677-79.479 1.987-10.576 3.663-22.026 2.484-34.091-2.424-24.803-15.257-43.448-37.11-53.92-15.526-7.44-35.099-10.906-61.596-10.906v225.786c23.696.001 46.361-16.387 65.545-47.39z" fill="#f9545b"/><circle cx="233.265" cy="281.087" fill="#fec3b9" r="13.726"/><circle cx="295.524" cy="297.66" fill="#fd9d8c" r="13.726"/><circle cx="238.991" cy="347.491" fill="#fec3b9" r="13.726"/></g></svg>