<svg id="Capa_1" enable-background="new 0 0 512.007 512.007" height="512" viewBox="0 0 512.007 512.007" width="512" xmlns="http://www.w3.org/2000/svg"><g><g><path d="m134.943 130.813c-8.284 0-15-6.716-15-15v-72.515c0-8.284 6.716-15 15-15s15 6.716 15 15v72.515c0 8.284-6.715 15-15 15z" fill="#59595a"/><path d="m135.155 28.309v102.493c8.186-.114 14.789-6.776 14.789-14.989v-72.515c-.001-8.213-6.604-14.875-14.789-14.989z" fill="#444"/><path d="m135.155 423.284c-36.232 0-65.709 32.947-65.709 73.445 0 8.284 6.716 15 15 15h101.419c8.284 0 15-6.716 15-15-.001-40.498-29.478-73.445-65.71-73.445z" fill="#16aac8"/><path d="m135.155 423.284v88.445h50.709c8.284 0 15-6.716 15-15 0-40.498-29.477-73.445-65.709-73.445z" fill="#157aa8"/><path d="m205.713 154.597c-21.662-33.678-48.039-53.784-70.559-53.784s-48.897 20.106-70.559 53.784c-22.909 35.617-35.525 78.709-35.525 121.338 0 45.329 10.171 88.173 28.64 120.641 19.985 35.133 47.489 54.481 77.444 54.481s57.459-19.349 77.444-54.481c18.469-32.468 28.64-75.312 28.64-120.641.001-42.629-12.616-85.721-35.525-121.338z" fill="#4fdae1"/><path d="m205.713 154.597c-21.662-33.678-48.039-53.784-70.559-53.784v350.244c29.956 0 57.459-19.349 77.444-54.481 18.469-32.468 28.64-75.312 28.64-120.641.001-42.629-12.616-85.721-35.525-121.338z" fill="#16aac8"/><path d="m114.57 375.629c-4.48 0-8.913-1.999-11.869-5.815-5.073-6.549-3.876-15.971 2.673-21.044l41.191-31.907c6.548-5.074 15.971-3.877 21.044 2.673 5.073 6.549 3.876 15.971-2.673 21.044l-41.191 31.907c-2.733 2.117-5.966 3.142-9.175 3.142z" fill="#16aac8"/><path d="m167.609 319.535c-5.073-6.55-14.496-7.747-21.044-2.673l-11.41 8.838v37.948l29.781-23.069c6.549-5.073 7.746-14.495 2.673-21.044z" fill="#157aa8"/><path d="m114.57 300.798c-4.48 0-8.913-1.999-11.869-5.815-5.073-6.549-3.876-15.971 2.672-21.044l41.191-31.908c6.549-5.074 15.971-3.877 21.044 2.673 5.073 6.549 3.876 15.971-2.672 21.044l-41.191 31.908c-2.732 2.117-5.966 3.142-9.175 3.142z" fill="#16aac8"/><path d="m167.609 244.703c-5.073-6.55-14.496-7.747-21.044-2.673l-11.41 8.838v37.949l29.782-23.07c6.548-5.073 7.745-14.495 2.672-21.044z" fill="#157aa8"/><path d="m218.359 177.138c-3.781-7.776-7.998-15.315-12.646-22.541-21.662-33.678-48.039-53.784-70.559-53.784s-48.897 20.106-70.559 53.784c-4.648 7.227-8.865 14.765-12.646 22.541 21.775 16.359 49.865 29.907 83.205 29.907 33.341.001 61.43-13.548 83.205-29.907z" fill="#16aac8"/><path d="m218.359 177.138c-3.781-7.776-7.998-15.315-12.646-22.541-21.662-33.678-48.039-53.784-70.559-53.784v106.233c33.341 0 61.43-13.549 83.205-29.908z" fill="#157aa8"/><circle cx="164.501" cy="151.978" fill="#444" r="14.346"/></g><g><path d="m376.641 130.813c-8.284 0-15-6.716-15-15v-72.515c0-8.284 6.716-15 15-15s15 6.716 15 15v72.515c0 8.284-6.716 15-15 15z" fill="#59595a"/><path d="m376.852 28.309v102.493c8.186-.114 14.789-6.776 14.789-14.989v-72.515c0-8.213-6.603-14.875-14.789-14.989z" fill="#444"/><path d="m376.852 423.284c-36.232 0-65.709 32.947-65.709 73.445 0 8.284 6.716 15 15 15h101.419c8.284 0 15-6.716 15-15 0-40.498-29.477-73.445-65.71-73.445z" fill="#16aac8"/><path d="m376.852 423.284v88.445h50.709c8.284 0 15-6.716 15-15 .001-40.498-29.476-73.445-65.709-73.445z" fill="#157aa8"/><path d="m447.411 154.597c-21.662-33.678-48.039-53.784-70.559-53.784s-48.897 20.106-70.559 53.784c-22.909 35.617-35.525 78.709-35.525 121.338 0 45.329 10.171 88.173 28.64 120.641 19.985 35.133 47.489 54.481 77.444 54.481s57.459-19.349 77.444-54.481c18.469-32.468 28.64-75.312 28.64-120.641 0-42.629-12.616-85.721-35.525-121.338z" fill="#4fdae1"/><path d="m447.411 154.597c-21.662-33.678-48.039-53.784-70.559-53.784v350.244c29.956 0 57.459-19.349 77.444-54.481 18.469-32.468 28.64-75.312 28.64-120.641 0-42.629-12.616-85.721-35.525-121.338z" fill="#16aac8"/><path d="m356.268 375.629c-4.48 0-8.913-1.999-11.869-5.815-5.073-6.549-3.876-15.971 2.673-21.044l41.191-31.907c6.548-5.074 15.971-3.877 21.044 2.673 5.073 6.549 3.876 15.971-2.673 21.044l-41.191 31.907c-2.733 2.117-5.967 3.142-9.175 3.142z" fill="#16aac8"/><path d="m409.306 319.535c-5.073-6.55-14.496-7.747-21.044-2.673l-11.41 8.838v37.948l29.781-23.069c6.55-5.073 7.747-14.495 2.673-21.044z" fill="#157aa8"/><path d="m356.268 300.798c-4.48 0-8.913-1.999-11.869-5.815-5.073-6.549-3.876-15.971 2.672-21.044l41.191-31.908c6.549-5.074 15.971-3.877 21.044 2.673 5.073 6.549 3.876 15.971-2.672 21.044l-41.191 31.908c-2.733 2.117-5.967 3.142-9.175 3.142z" fill="#16aac8"/><path d="m409.306 244.703c-5.073-6.55-14.496-7.747-21.044-2.673l-11.41 8.838v37.949l29.782-23.07c6.549-5.073 7.746-14.495 2.672-21.044z" fill="#157aa8"/><path d="m460.057 177.138c-3.781-7.776-7.998-15.315-12.646-22.541-21.662-33.678-48.039-53.784-70.559-53.784s-48.897 20.106-70.559 53.784c-4.648 7.227-8.865 14.765-12.646 22.541 21.775 16.359 49.865 29.907 83.205 29.907 33.34.001 61.43-13.548 83.205-29.907z" fill="#16aac8"/><path d="m460.057 177.138c-3.781-7.776-7.998-15.315-12.646-22.541-21.662-33.678-48.039-53.784-70.559-53.784v106.233c33.34 0 61.43-13.549 83.205-29.908z" fill="#157aa8"/><circle cx="406.198" cy="151.978" fill="#444" r="14.346"/></g><path d="m256.003 60.192c-177.797 0-240.943-28.205-247.558-31.421-7.451-3.622-10.554-12.599-6.932-20.049 3.623-7.45 12.598-10.553 20.049-6.932 2.385 1.16 60.417 28.401 234.441 28.401s232.057-27.241 234.442-28.401c7.45-3.62 16.426-.52 20.049 6.932 3.622 7.45.519 16.427-6.932 20.049-6.615 3.216-69.761 31.421-247.559 31.421z" fill="#59595a"/><path d="m510.494 8.722c-3.623-7.451-12.599-10.552-20.049-6.932-2.385 1.16-60.417 28.401-234.441 28.401v30c177.798 0 240.944-28.205 247.559-31.421 7.45-3.621 10.553-12.598 6.931-20.048z" fill="#444"/></g></svg>