<svg id="Capa_1" enable-background="new 0 0 512 512" height="512" viewBox="0 0 512 512" width="512" xmlns="http://www.w3.org/2000/svg"><g><path d="m399.522 105.438v-45.438c0-8.284-6.716-15-15-15h-257.044c-8.284 0-15 6.716-15 15v45.438c-25.233 13.784-41.572 40.687-41.572 69.896v291.624c0 24.836 20.206 45.041 45.042 45.041h280.107c24.836 0 45.041-20.205 45.041-45.041v-291.623c-.001-29.21-16.34-56.112-41.574-69.897z" fill="#fff5f5"/><path d="m399.522 105.438v-45.438c0-8.284-6.716-15-15-15h-128.522v467h140.054c24.836 0 45.041-20.205 45.041-45.041v-291.624c0-29.21-16.339-56.112-41.573-69.897z" fill="#eee1dd"/><path d="m72.126 161.581c-.801 4.497-1.221 9.096-1.221 13.754v291.624c0 24.836 20.206 45.041 45.042 45.041h280.107c24.836 0 45.041-20.205 45.041-45.041v-291.624c0-4.658-.42-9.257-1.221-13.754z" fill="#fce000"/><path d="m439.874 161.581h-183.874v350.419h140.054c24.836 0 45.041-20.205 45.041-45.041v-291.624c0-4.658-.42-9.257-1.221-13.754z" fill="#fdbf00"/><path d="m406.843 0h-301.686c-8.284 0-15 6.716-15 15v45c0 8.284 6.716 15 15 15h301.686c8.284 0 15-6.716 15-15v-45c0-8.284-6.716-15-15-15z" fill="#59595a"/><path d="m421.843 60v-45c0-8.284-6.716-15-15-15h-150.843v75h150.843c8.284 0 15-6.716 15-15z" fill="#444"/><g><path d="m221.498 322.453c0-27.534 5.683-48.744 10.451-61.688 4.833-13.119 4.268-27.335-1.592-40.028s-16.311-22.346-29.427-27.177c-13.118-4.835-27.333-4.271-40.03 1.589-12.695 5.859-22.348 16.312-27.181 29.432-11.217 30.45-16.904 63.379-16.904 97.872s5.688 67.422 16.904 97.872c7.548 20.491 27.287 34.259 49.119 34.259 6.173 0 12.259-1.089 18.089-3.237 13.119-4.832 23.571-14.484 29.43-27.178s6.425-26.909 1.592-40.028c-4.768-12.945-10.451-34.154-10.451-61.688z" fill="#00cc76"/><g fill="#00884f"><path d="m169.113 265.281c0-8.284-6.716-15-15-15h-28.381c-2.518 9.797-4.507 19.805-5.959 30h34.341c8.283 0 14.999-6.716 14.999-15z"/><path d="m154.865 316.718c0-8.284-6.716-15-15-15h-22.341c-.464 6.844-.709 13.756-.709 20.735 0 3.103.062 6.188.154 9.265h22.896c8.284 0 15-6.716 15-15z"/><path d="m224.795 358.005h-27.557c-8.284 0-15 6.716-15 15s6.716 15 15 15h35.953c-.368-1.296-.772-2.587-1.243-3.864-2.441-6.628-5.117-15.435-7.153-26.136z"/></g></g><g><path d="m381.498 322.453c0-27.535 5.683-48.744 10.45-61.688 4.833-13.119 4.268-27.335-1.592-40.028s-16.312-22.346-29.427-27.177c-13.117-4.835-27.334-4.271-40.03 1.589-12.694 5.859-22.347 16.312-27.18 29.432-11.217 30.448-16.904 63.378-16.904 97.872s5.688 67.424 16.904 97.872c7.547 20.491 27.286 34.259 49.117 34.259 6.173 0 12.26-1.089 18.089-3.237 13.119-4.832 23.571-14.484 29.431-27.178s6.425-26.909 1.592-40.028c-4.9-13.305-10.45-29.158-10.45-61.688z" fill="#00884f"/><g fill="#006634"><path d="m329.113 265.281c0-8.284-6.716-15-15-15h-28.382c-2.518 9.797-4.507 19.805-5.959 30h34.341c8.284 0 15-6.716 15-15z"/><path d="m314.865 316.718c0-8.284-6.716-15-15-15h-22.341c-.464 6.844-.709 13.756-.709 20.735 0 3.103.062 6.188.154 9.265h22.896c8.284 0 15-6.716 15-15z"/><path d="m384.397 358.005h-27.157c-8.284 0-15 6.716-15 15s6.716 15 15 15h35.952c-.368-1.296-.772-2.587-1.243-3.864-2.657-7.212-5.502-15.178-7.552-26.136z"/></g></g><g><circle cx="111.109" cy="453.31" fill="#00cc76" r="13.726"/><circle cx="405.617" cy="453.31" fill="#00884f" r="13.726"/><circle cx="256" cy="197.854" fill="#00cc76" r="13.726"/><circle cx="258" cy="453.31" fill="#00cc76" r="13.726"/><circle cx="407.118" cy="316.717" fill="#00884f" r="13.726"/><circle cx="106.383" cy="205.071" fill="#00cc76" r="13.726"/><g fill="#00884f"><path d="m269.726 197.854c0-7.581-6.145-13.726-13.726-13.726v27.452c7.581.001 13.726-6.145 13.726-13.726z"/><path d="m258 439.584c-.681 0-1.345.066-2 .162v27.128c.655.096 1.319.162 2 .162 7.581 0 13.726-6.146 13.726-13.726 0-7.581-6.145-13.726-13.726-13.726z"/></g></g></g></svg>