<svg id="Capa_1" enable-background="new 0 0 512 512" height="512" viewBox="0 0 512 512" width="512" xmlns="http://www.w3.org/2000/svg"><g><g><path d="m365.195 350.066h-93.934c-8.428 0-15.261-6.832-15.261-15.261v-93.934c0-8.428 6.832-15.261 15.261-15.261h93.934c8.428 0 15.261 6.832 15.261 15.261v93.934c0 8.428-6.833 15.261-15.261 15.261z" fill="#eee1dd"/><circle cx="333.228" cy="301.776" fill="#ccc2be" r="13.726"/><path d="m240.739 350.066h-93.934c-8.428 0-15.261-6.832-15.261-15.261v-93.934c0-8.428 6.832-15.261 15.261-15.261h93.934c8.428 0 15.261 6.832 15.261 15.261v93.934c0 8.428-6.832 15.261-15.261 15.261z" fill="#fff5f5"/><circle cx="201.298" cy="283.532" fill="#eee1dd" r="13.726"/><circle cx="159.021" cy="297.258" fill="#eee1dd" r="13.726"/><path d="m302.967 225.61h-93.934c-8.428 0-15.261-6.832-15.261-15.261v-93.934c0-8.428 6.832-15.261 15.261-15.261h93.934c8.428 0 15.261 6.832 15.261 15.261v93.934c0 8.429-6.833 15.261-15.261 15.261z" fill="#fff5f5"/><path d="m318.228 210.35v-93.934c0-8.428-6.833-15.261-15.261-15.261h-46.967v124.455h46.967c8.428 0 15.261-6.832 15.261-15.26z" fill="#eee1dd"/><circle cx="284.726" cy="177.968" fill="#ccc2be" r="13.726"/></g><g><path d="m403.179 512h-294.358c-7.059 0-13.163-4.922-14.659-11.82l-21.026-96.935c-.962-4.434.135-9.063 2.982-12.596 2.848-3.531 7.141-5.584 11.677-5.584h336.41c4.536 0 8.829 2.053 11.677 5.584 2.848 3.532 3.944 8.162 2.982 12.596l-21.026 96.935c-1.496 6.898-7.601 11.82-14.659 11.82z" fill="#16aac8"/><path d="m440.849 415.065h-369.698c-17.921 0-32.5-14.579-32.5-32.5s14.579-32.5 32.5-32.5h369.697c17.921 0 32.5 14.579 32.5 32.5s-14.578 32.5-32.499 32.5z" fill="#4fdae1"/><path d="m435.882 390.649c-2.848-3.531-7.141-5.584-11.677-5.584h-168.205v126.935h147.179c7.059 0 13.163-4.922 14.659-11.82l21.026-96.935c.962-4.433-.135-9.063-2.982-12.596z" fill="#157aa8"/><path d="m440.849 350.065h-184.849v65h184.849c17.921 0 32.5-14.579 32.5-32.5s-14.579-32.5-32.5-32.5z" fill="#16aac8"/></g><path d="m315.268 80.848c-8.284 0-15-6.716-15-15v-25.287c0-8.284 6.716-15 15-15s15 6.716 15 15v25.287c0 8.284-6.716 15-15 15z" fill="#fdbf00"/><path d="m256 80.848c-8.284 0-15-6.716-15-15v-50.848c0-8.284 6.716-15 15-15s15 6.716 15 15v50.848c0 8.284-6.716 15-15 15z" fill="#fce000"/><path d="m271 65.848v-50.848c0-8.284-6.716-15-15-15v80.848c8.284 0 15-6.716 15-15z" fill="#fdbf00"/><path d="m196.732 80.848c-8.284 0-15-6.716-15-15v-25.287c0-8.284 6.716-15 15-15s15 6.716 15 15v25.287c0 8.284-6.715 15-15 15z" fill="#fce000"/></g></svg>