<svg id="Capa_1" enable-background="new 0 0 512 512" height="512" viewBox="0 0 512 512" width="512" xmlns="http://www.w3.org/2000/svg"><g><path d="m372.044 90.544v-35.544c0-8.284-6.716-15-15-15h-202.046c-8.284 0-15 6.716-15 15v35.544c-24.977 10.622-41.571 35.104-41.571 63.121v308.403c0 27.532 22.399 49.932 49.932 49.932h215.326c27.532 0 49.932-22.399 49.932-49.932v-308.403c-.001-28.017-16.596-52.499-41.573-63.121z" fill="#fff5f5"/><path d="m372.044 90.544v-35.544c0-8.284-6.716-15-15-15h-101.044v472h107.685c27.532 0 49.932-22.399 49.932-49.932v-308.403c-.001-28.017-16.596-52.499-41.573-63.121z" fill="#eee1dd"/><path d="m98.384 158.779h315.189v296.415h-315.189z" fill="#fce000"/><path d="m256 158.779h157.573v296.415h-157.573z" fill="#fdbf00"/><path d="m379.364 0h-246.686c-8.284 0-15 6.716-15 15v40c0 8.284 6.716 15 15 15h246.687c8.284 0 15-6.716 15-15v-40c-.001-8.284-6.717-15-15.001-15z" fill="#59595a"/><path d="m394.364 55v-40c0-8.284-6.716-15-15-15h-123.364v70h123.364c8.284 0 15-6.716 15-15z" fill="#444"/><g><path d="m256 273.61c-8.284 0-15-6.716-15-15v-33.513c0-8.284 6.716-15 15-15s15 6.716 15 15v33.513c0 8.285-6.716 15-15 15z" fill="#59595a"/><path d="m256 210.098v63.513c8.284 0 15-6.716 15-15v-33.513c0-8.285-6.716-15-15-15z" fill="#444"/><path d="m322.493 268.931c-11.892-15.026-28.018-23.302-45.408-23.302-7.193 0-14.352 1.487-21.085 4.348-6.733-2.86-13.892-4.348-21.085-4.348-17.391 0-33.517 8.275-45.408 23.302-11.075 13.994-17.175 32.398-17.175 51.822s6.1 37.828 17.175 51.822c11.892 15.026 28.018 23.302 45.408 23.302 7.193 0 14.352-1.487 21.085-4.348 6.733 2.86 13.892 4.348 21.085 4.348 17.391 0 33.517-8.275 45.408-23.302 11.075-13.994 17.175-32.398 17.175-51.822s-6.1-37.828-17.175-51.822z" fill="#fa7578"/><path d="m322.493 268.931c-11.892-15.026-28.018-23.302-45.408-23.302-7.193 0-14.352 1.487-21.085 4.348v141.553c6.733 2.86 13.892 4.348 21.085 4.348 17.391 0 33.517-8.275 45.408-23.302 11.075-13.994 17.175-32.398 17.175-51.822s-6.1-37.829-17.175-51.823z" fill="#f9545b"/></g></g></svg>