<svg id="Capa_1" enable-background="new 0 0 511.992 511.992" height="512" viewBox="0 0 511.992 511.992" width="512" xmlns="http://www.w3.org/2000/svg"><g><g><path d="m476.589 186.816c-24.577-41.225-56.115-64.868-86.528-64.868s-61.951 23.644-86.528 64.868c-22.168 37.185-35.403 83.035-35.403 122.647 0 40.039 12.521 72.626 36.21 94.239 21.267 19.403 50.909 29.659 85.722 29.659s64.455-10.256 85.722-29.659c23.688-21.613 36.21-54.2 36.21-94.239-.002-39.612-13.237-85.462-35.405-122.647z" fill="#fff5f5"/><path d="m476.589 186.816c-24.577-41.225-56.115-64.868-86.528-64.868v311.412c34.813 0 64.455-10.256 85.722-29.659 23.688-21.613 36.21-54.2 36.21-94.239-.001-39.611-13.236-85.461-35.404-122.646z" fill="#eee1dd"/><path d="m390.061 247.205c-35.549 0-64.47 28.921-64.47 64.47s28.921 64.47 64.47 64.47 64.471-28.921 64.471-64.47-28.923-64.47-64.471-64.47z" fill="#ffb74b"/><path d="m390.061 247.205v128.94c35.549 0 64.471-28.921 64.471-64.47s-28.923-64.47-64.471-64.47z" fill="#f85"/></g><g><path d="m227.792 242.015c-3.938-7.574-8.311-14.28-12.539-20.765-7.864-12.06-14.655-22.475-16.965-35.639-1.15-6.558-1.742-13.346-2.369-20.531-1.327-15.212-2.7-30.941-9.562-46.521-11.177-25.375-34.509-39.928-64.016-39.928-29.506 0-52.838 14.553-64.015 39.929-6.861 15.579-8.234 31.308-9.562 46.52-.627 7.186-1.219 13.973-2.369 20.531-2.309 13.164-9.101 23.579-16.964 35.639-4.229 6.485-8.603 13.19-12.54 20.765-13.817 26.576-19.436 56.701-15.823 84.823 3.992 31.077 17.269 57.564 38.393 76.599 21.725 19.576 50.385 29.923 82.882 29.923s61.156-10.347 82.881-29.923c21.124-19.035 34.4-45.522 38.394-76.599 3.613-28.125-2.008-58.249-15.826-84.823z" fill="#a5e887"/><path d="m227.792 242.015c-3.938-7.574-8.311-14.28-12.539-20.765-7.864-12.06-14.655-22.475-16.965-35.639-1.15-6.558-1.742-13.346-2.369-20.531-1.327-15.212-2.7-30.941-9.562-46.521-11.177-25.375-34.509-39.928-64.015-39.928v354.729c32.497 0 61.156-10.347 82.881-29.923 21.124-19.035 34.4-45.522 38.394-76.599 3.614-28.125-2.007-58.249-15.825-84.823z" fill="#00cc76"/><path d="m122.342 247.323c-35.549 0-64.47 28.921-64.47 64.47s28.921 64.47 64.47 64.47 64.471-28.921 64.471-64.47-28.922-64.47-64.471-64.47z" fill="#ffb74b"/><path d="m186.813 311.793c0-35.549-28.922-64.47-64.47-64.47v128.94c35.548 0 64.47-28.921 64.47-64.47z" fill="#f85"/></g></g></svg>