<svg id="Capa_1" enable-background="new 0 0 512 512" height="512" viewBox="0 0 512 512" width="512" xmlns="http://www.w3.org/2000/svg"><g><path d="m512 446.551v-381.102c0-36.089-29.36-65.449-65.449-65.449h-381.102c-36.089 0-65.449 29.36-65.449 65.449v381.102c0 36.089 29.36 65.449 65.449 65.449h381.102c36.089 0 65.449-29.36 65.449-65.449z" fill="#59595a"/><path d="m446.551 0h-138.681v512h138.681c36.089 0 65.449-29.36 65.449-65.449v-381.102c0-36.089-29.36-65.449-65.449-65.449z" fill="#444"/><path d="m446.551 30c19.547 0 35.449 15.902 35.449 35.449v381.102c0 19.547-15.902 35.449-35.449 35.449h-123.681v-452z" fill="#fa7578"/><path d="m446.551 30h-45.051v452h45.051c19.547 0 35.449-15.902 35.449-35.449v-381.102c0-19.547-15.902-35.449-35.449-35.449z" fill="#f9545b"/><g><path d="m341 205.689v-110.378c0-22.228 18.083-40.311 40.311-40.311h40.379c22.227 0 40.31 18.083 40.31 40.311v110.379c0 22.227-18.083 40.31-40.311 40.31h-40.379c-22.227 0-40.31-18.083-40.31-40.311z" fill="#f0915a"/><path d="m462 205.689v-110.378c0-22.228-18.083-40.311-40.311-40.311h-20.189v191h20.19c22.227 0 40.31-18.083 40.31-40.311z" fill="#c8733c"/><path d="m422.93 183.36c0-4.074-1.649-8.133-4.898-11.093l-12.859-11.714c-6.125-5.579-15.612-5.137-21.19.987-5.579 6.124-5.138 15.611.987 21.19l12.859 11.714c6.125 5.579 15.612 5.137 21.19-.987 2.619-2.874 3.911-6.491 3.911-10.097z" fill="#ca6d58"/><path d="m419.019 193.458c2.619-2.875 3.911-6.492 3.911-10.098 0-4.074-1.649-8.133-4.898-11.093l-12.859-11.714c-1.125-1.025-2.365-1.843-3.672-2.463v38.818c5.807 2.758 12.964 1.549 17.518-3.45z" fill="#a54f3e"/><path d="m422.93 129.361c0-4.074-1.649-8.133-4.898-11.093l-12.859-11.714c-6.125-5.579-15.612-5.137-21.19.987-5.579 6.124-5.138 15.611.987 21.19l12.859 11.714c6.125 5.579 15.612 5.137 21.19-.987 2.619-2.874 3.911-6.491 3.911-10.097z" fill="#ca6d58"/><path d="m419.019 139.459c2.619-2.875 3.911-6.492 3.911-10.098 0-4.074-1.649-8.133-4.898-11.093l-12.859-11.714c-1.125-1.025-2.365-1.843-3.672-2.463v38.818c5.807 2.758 12.964 1.549 17.518-3.45z" fill="#a54f3e"/></g><g><path d="m341 417.135v-110.379c0-22.228 18.083-40.311 40.311-40.311h40.379c22.228 0 40.311 18.083 40.311 40.311v110.379c0 22.228-18.083 40.311-40.311 40.311h-40.379c-22.228-.001-40.311-18.084-40.311-40.311z" fill="#f0915a"/><path d="m462 417.135v-110.379c0-22.228-18.083-40.311-40.311-40.311h-20.189v191h20.19c22.227 0 40.31-18.083 40.31-40.31z" fill="#c8733c"/><path d="m422.93 394.806c0-4.074-1.649-8.133-4.898-11.093l-12.859-11.714c-6.125-5.579-15.612-5.137-21.19.987-5.579 6.124-5.138 15.611.987 21.19l12.859 11.714c6.125 5.579 15.612 5.137 21.19-.987 2.619-2.875 3.911-6.492 3.911-10.097z" fill="#ca6d58"/><path d="m419.019 404.903c2.619-2.875 3.911-6.492 3.911-10.098 0-4.074-1.649-8.133-4.898-11.093l-12.859-11.714c-1.125-1.025-2.365-1.843-3.672-2.463v38.818c5.807 2.759 12.964 1.55 17.518-3.45z" fill="#a54f3e"/><path d="m422.93 340.807c0-4.074-1.649-8.133-4.898-11.093l-12.86-11.714c-6.125-5.579-15.612-5.137-21.19.987-5.579 6.124-5.138 15.611.987 21.19l12.859 11.714c6.125 5.579 15.612 5.137 21.19-.987 2.62-2.875 3.912-6.492 3.912-10.097z" fill="#ca6d58"/><path d="m419.019 350.904c2.619-2.875 3.911-6.492 3.911-10.098 0-4.074-1.649-8.133-4.898-11.093l-12.86-11.713c-1.125-1.025-2.365-1.843-3.672-2.463v38.818c5.808 2.758 12.965 1.549 17.519-3.451z" fill="#a54f3e"/></g><path d="m292.87 482h-227.421c-19.547 0-35.449-15.902-35.449-35.449v-125.551h262.87z" fill="#fa7578"/><path d="m161.435 321h131.435v161h-131.435z" fill="#f9545b"/><g><path d="m47.746 401.5c0-30.41 24.741-55.151 55.152-55.151 30.41 0 55.151 24.741 55.151 55.151s-24.741 55.151-55.151 55.151c-30.411 0-55.152-24.741-55.152-55.151z" fill="#a5e887"/><path d="m106.283 401.5c0-30.41 24.741-55.151 55.151-55.151 30.411 0 55.152 24.741 55.152 55.151s-24.741 55.151-55.152 55.151c-30.41 0-55.151-24.741-55.151-55.151z" fill="#ffb74b"/><circle cx="219.972" cy="401.5" fill="#ffcd00" r="55.151"/><path d="m216.587 401.5c0-30.41-24.741-55.151-55.152-55.151v110.303c30.411-.001 55.152-24.742 55.152-55.152z" fill="#f85"/></g><path d="m30 291v-225.551c0-19.547 15.902-35.449 35.449-35.449h227.421v261z" fill="#fce000"/><path d="m161.435 30h131.435v261h-131.435z" fill="#fdbf00"/><g fill="#00aa63"><circle cx="252.099" cy="69.016" r="13.726"/><circle cx="54.764" cy="97.878" r="13.726"/><circle cx="88.131" cy="54.003" r="13.726"/><circle cx="260.868" cy="266.675" r="13.726"/><circle cx="54.764" cy="258.523" r="13.726"/></g><g><path d="m89.918 99.25c18.62-30.43 44.019-47.188 71.517-47.188s52.896 16.759 71.517 47.188c14.756 24.115 23.923 55.217 23.923 81.166 0 52.625-42.813 95.439-95.439 95.439s-95.439-42.814-95.439-95.439c-.001-25.95 9.166-57.051 23.921-81.166z" fill="#fff5f5"/><path d="m232.952 99.25c-18.62-30.43-44.019-47.188-71.517-47.188v223.794c52.626 0 95.439-42.814 95.439-95.439.001-25.951-9.166-57.052-23.922-81.167z" fill="#eeeced"/><path d="m161.435 134.924c23.69 0 42.965 19.274 42.965 42.966 0 23.69-19.274 42.965-42.965 42.965s-42.965-19.274-42.965-42.965 19.275-42.966 42.965-42.966z" fill="#ffb74b"/><path d="m204.4 177.89c0-23.691-19.274-42.966-42.965-42.966v85.931c23.69 0 42.965-19.274 42.965-42.965z" fill="#f85"/></g></g></svg>