<svg id="Capa_1" enable-background="new 0 0 512.017 512.017" height="512" viewBox="0 0 512.017 512.017" width="512" xmlns="http://www.w3.org/2000/svg"><g><path d="m248.033 6.507c-7.34-6.312-17.176-8.169-26.313-4.968l-130.866 45.848c-9.136 3.201-15.663 10.791-17.459 20.304-1.796 9.512 1.514 18.959 8.854 25.271l105.139 90.409c4.973 4.275 11.09 6.507 17.359 6.507 2.985 0 6.006-.506 8.952-1.538 9.137-3.2 15.663-10.791 17.46-20.304l25.727-136.257v.001c1.796-9.513-1.513-18.962-8.853-25.273z" fill="#ffb74b"/><circle cx="196.519" cy="66.004" fill="#ca6d58" r="13.726"/><circle cx="165.143" cy="94.936" fill="#ca6d58" r="13.726"/><path d="m345.322 123.591c-.456-5.209-1.042-11.477-1.719-17.815-.976-9.14-1.944-16.532-2.877-21.974-1.393-8.121-3.301-19.244-14.128-22.021-6.463-1.66-13.306 1.076-17.031 6.813-20.263 31.266-53.055 49.305-62.505 54.042h-66.466c-50.146 0-87.96 36.225-87.96 84.261 0 8.284 6.716 15 15 15h296.744c8.284 0 15-6.716 15-15 0-43.484-30.989-77.289-74.058-83.306z" fill="#a5e887"/><path d="m419.38 206.896c0-43.483-30.989-77.288-74.058-83.306-.456-5.209-1.042-11.477-1.719-17.815-.976-9.14-1.944-16.532-2.877-21.974-1.393-8.121-3.301-19.244-14.128-22.021-6.463-1.66-13.306 1.076-17.031 6.813-15.92 24.564-39.568 40.96-53.559 49.159v104.144h148.372c8.284 0 15-6.715 15-15z" fill="#00cc76"/><path d="m404.015 192.99h-296.013c-29.101 0-52.776 23.676-52.776 52.777v1.158c0 29.102 23.676 52.777 52.776 52.777h296.013c29.101 0 52.776-23.676 52.776-52.777v-1.158c0-29.101-23.676-52.777-52.776-52.777z" fill="#00cc76"/><path d="m456.791 246.926v-1.158c0-29.102-23.676-52.777-52.776-52.777h-148.007v106.713h148.006c29.101-.001 52.777-23.677 52.777-52.778z" fill="#00884f"/><path d="m453.019 269.703h-394.021c-8.284 0-15 6.716-15 15v92.239c0 74.48 60.594 135.074 135.074 135.074h153.873c74.48 0 135.074-60.594 135.074-135.074v-92.239c0-8.284-6.716-15-15-15z" fill="#eee1dd"/><path d="m453.019 269.703h-197.011v242.314h76.937c74.48 0 135.074-60.594 135.074-135.074v-92.239c0-8.285-6.716-15.001-15-15.001z" fill="#ccc2be"/><path d="m43.998 344.317v32.625c0 74.48 60.594 135.074 135.074 135.074h153.873c74.48 0 135.074-60.594 135.074-135.074v-32.625z" fill="#fff5f5"/><path d="m256.008 344.317v167.699h76.937c74.48 0 135.074-60.594 135.074-135.074v-32.625z" fill="#eeeced"/></g></svg>