<svg id="Capa_1" enable-background="new 0 0 512 512" height="512" viewBox="0 0 512 512" width="512" xmlns="http://www.w3.org/2000/svg"><g><path d="m486.43 0h-460.86c-14.099 0-25.57 11.471-25.57 25.57v460.86c0 14.099 11.471 25.57 25.57 25.57h460.86c14.1 0 25.57-11.471 25.57-25.57v-460.86c0-14.099-11.471-25.57-25.57-25.57z" fill="#fff5f5"/><path d="m486.43 0h-230.43v512h230.43c14.1 0 25.57-11.471 25.57-25.57v-460.86c0-14.099-11.471-25.57-25.57-25.57z" fill="#eeeced"/><path d="m512 25.57c0-14.099-11.471-25.57-25.57-25.57h-460.86c-14.099 0-25.57 11.471-25.57 25.57v74.43h512z" fill="#4fdae1"/><path d="m512 25.57c0-14.099-11.471-25.57-25.57-25.57h-230.43v100h256z" fill="#16aac8"/><g fill="#fdbf00"><circle cx="455.546" cy="50" r="15.276"/><circle cx="408.546" cy="50" r="15.276"/><circle cx="361.546" cy="50" r="15.276"/></g><path d="m437.122 193.144h-134.601c-8.284 0-15 6.716-15 15v195.713c0 8.284 6.716 15 15 15h134.602c8.284 0 15-6.716 15-15v-195.713c-.001-8.285-6.717-15-15.001-15z" fill="#fdbf00"/><g fill="#f0915a"><path d="m391.177 268.799h-42.712c-8.284 0-15-6.716-15-15s6.716-15 15-15h42.712c8.284 0 15 6.716 15 15s-6.716 15-15 15z"/><path d="m391.177 321h-42.712c-8.284 0-15-6.716-15-15s6.716-15 15-15h42.712c8.284 0 15 6.716 15 15s-6.716 15-15 15z"/><path d="m391.177 373.201h-42.712c-8.284 0-15-6.716-15-15s6.716-15 15-15h42.712c8.284 0 15 6.716 15 15s-6.716 15-15 15z"/></g><path d="m194.884 345.975c-4.343-8.54-6.639-18.601-6.639-29.094v-28.453c0-8.284-6.716-15-15-15h-51.798c-8.284 0-15 6.716-15 15v28.453c0 10.494-2.295 20.554-6.639 29.094-3.557 6.993-5.437 14.856-5.437 22.738 0 29.055 22.279 50.144 52.974 50.144 30.696 0 52.975-21.089 52.975-50.144.001-7.883-1.88-15.746-5.436-22.738z" fill="#eee1dd"/><path d="m229.519 276.387c-5.191-47.456-40.518-83.243-82.173-83.243s-76.981 35.787-82.172 83.243c-.753 6.885 1.465 13.788 6.086 18.942 4.615 5.146 11.226 8.099 18.139 8.099h115.896c6.913 0 13.524-2.952 18.139-8.1 4.62-5.153 6.838-12.057 6.085-18.941z" fill="#f0915a"/></g></svg>